<svg width="20" height="20" viewBox="0 0 20 20" fill="none" xmlns="http://www.w3.org/2000/svg">
    <path
        d="M10.8333 5.83333C10.8333 5.3731 10.4602 5 10 5C9.53977 5 9.16667 5.3731 9.16667 5.83333V8.95833C9.16667 9.07339 9.0734 9.16667 8.95834 9.16667H5.83333C5.3731 9.16667 5 9.53976 5 10C5 10.4602 5.3731 10.8333 5.83333 10.8333H8.95834C9.0734 10.8333 9.16667 10.9266 9.16667 11.0417V14.1667C9.16667 14.6269 9.53977 15 10 15C10.4602 15 10.8333 14.6269 10.8333 14.1667V11.0417C10.8333 10.9266 10.9266 10.8333 11.0417 10.8333H14.1667C14.6269 10.8333 15 10.4602 15 10C15 9.53976 14.6269 9.16667 14.1667 9.16667H11.0417C10.9266 9.16667 10.8333 9.07339 10.8333 8.95833V5.83333Z"
        fill="white" />
</svg>