<svg width="154" height="154" viewBox="0 0 154 154" fill="none" xmlns="http://www.w3.org/2000/svg">
    <path
        d="M121.826 96.7976C122.045 97.7616 122.457 98.6718 123.036 99.4744C123.614 100.276 124.347 100.954 125.193 101.467C126.038 101.98 126.978 102.318 127.957 102.461C128.935 102.604 129.932 102.548 130.889 102.299C137.693 100.609 138.45 91.868 132.809 88.6098C131.547 87.887 130.1 87.549 128.648 87.6366C127.196 87.7249 125.801 88.2349 124.635 89.1044C123.468 89.9739 122.581 91.1652 122.082 92.5316C121.583 93.8988 121.494 95.3813 121.826 96.7976ZM124.735 89.5146C125.515 88.9063 126.415 88.4692 127.376 88.2326C128.337 87.9953 129.337 87.963 130.311 88.1382C131.285 88.3133 132.211 88.692 133.029 89.2496C133.847 89.8065 134.538 90.53 135.058 91.3718C139.526 98.6364 129.773 105.986 123.938 99.9138C123.264 99.2002 122.745 98.353 122.418 97.4267C122.09 96.5011 121.959 95.5164 122.035 94.5371C122.11 93.5578 122.39 92.6046 122.855 91.7397C123.32 90.8749 123.962 90.1168 124.738 89.5146H124.735Z"
        fill="#253E92" />
    <path
        d="M129.124 100.99C129.983 100.967 130.827 100.757 131.596 100.375C132.365 99.9927 133.043 99.4474 133.58 98.7769C134.117 98.1063 134.502 97.3267 134.707 96.4926C134.913 95.6584 134.935 94.7897 134.769 93.9463C134.605 93.103 134.259 92.3049 133.755 91.609C133.251 90.9131 132.601 90.3355 131.851 89.9162C131.102 89.4968 130.269 89.2464 129.413 89.1811C128.556 89.1158 127.695 89.2387 126.89 89.5398C125.8 89.993 124.85 90.7303 124.14 91.6751C121.22 96.4426 124.891 101.158 129.124 100.99ZM127.992 99.4766C128.305 98.3344 128.54 97.3597 128.606 97.3013C128.69 97.2468 128.784 97.2115 128.884 97.1961C129.268 97.0978 131.258 96.4572 131.617 96.3627C131.765 96.3236 131.864 96.3144 131.607 96.5778C131.609 96.713 127.887 99.8729 127.992 99.4766ZM128.519 96.0494C128.42 96.3666 128.334 96.299 128.288 96.2606C127.713 95.6976 127.269 95.2529 126.787 94.6991C126.557 94.4333 126.416 94.3404 126.551 94.3089C127.319 94.1245 128.099 93.9924 128.885 93.9118C128.917 93.9072 129.102 93.8772 129.039 94.0738C129.039 94.1506 128.662 95.59 128.519 96.0494ZM129.622 94.0585C130.245 94.4633 130.822 94.9341 131.343 95.4625C131.665 95.7644 131.546 95.7698 130.723 96.0125C128.902 96.5578 128.859 96.501 128.926 96.226C129.432 94.1445 129.39 93.9279 129.622 94.0585ZM130.361 90.5445C130.576 91.089 131.566 94.716 131.566 94.7436C131.873 95.9871 131.873 95.0839 129.722 93.6537C129.621 93.5861 129.645 93.5354 129.704 93.2136C129.741 93.0154 130.235 90.7618 130.278 90.6082C130.312 90.4884 130.344 90.5068 130.361 90.5445ZM129.967 90.463C130.149 90.3256 129.828 91.0007 129.457 92.51C129.204 93.5369 129.192 93.4609 129.027 93.4701C128.131 93.5922 127.241 93.7589 126.36 93.9701C127.483 92.722 128.688 91.5499 129.967 90.463ZM126.167 94.8972C126.256 94.8273 127.19 96.1262 128.135 97.1009C128.023 97.8605 127.87 98.614 127.675 99.3568C127.571 99.7685 125.946 95.0009 126.167 94.8972Z"
        fill="#253E92" />
    <path
        d="M82.0318 92.8374C85.2163 94.3644 101.443 99.2625 104.053 98.5981C105.195 98.307 105.69 97.1825 106.337 95.9098C112.021 84.7141 112.904 83.2847 110.625 79.9719C109.867 78.872 109.061 78.6616 107.048 78.0202C103.177 76.7843 89.7856 73.2642 85.7109 73.1459C82.869 72.9055 81.5026 76.4372 79.7436 79.7169C79.1176 80.8844 76.7243 86.3847 77.3549 88.1482C78.6161 91.6776 80.0178 91.8712 82.0318 92.8374ZM78.1345 85.9192C78.4594 84.3101 80.1023 80.0864 82.9458 75.5224C84.3821 73.2181 85.7662 74.0983 85.7793 73.8326C90.0168 74.3126 100.177 76.7782 104.507 78.0471C111.403 80.0672 111.619 79.3037 106.499 89.5892C104.123 94.3613 103.678 96.2239 101.524 95.79C92.2689 93.9258 81.0932 90.3557 78.8096 88.8925C77.914 88.4079 77.9317 86.9201 78.1337 85.9192H78.1345Z"
        fill="#253E92" />
    <path
        d="M125.223 80.3027C122.645 82.991 115.454 98.6393 115.315 101.697C115.268 102.746 115.95 101.912 122.996 105.298C131.757 109.507 133.615 111.944 134.435 110.632C136.648 107.088 143.835 89.188 142.528 87.4605C141.547 86.164 136.96 83.7806 134.408 82.3796C133.114 81.6699 129.204 79.4609 127.03 79.4962C126.684 79.4555 126.333 79.5085 126.015 79.6506C125.697 79.7927 125.423 80.0178 125.223 80.3027ZM127.604 80.5001C132.28 81.7291 140.29 86.5619 141.574 87.6495C142.099 88.0942 142.189 88.1772 139.989 95.1768C138.392 99.7654 136.532 104.258 134.415 108.631C133.716 110.095 133.772 109.967 133.548 109.853C128.747 107.428 128.507 106.474 119.558 102.576C115.794 100.938 115.89 102.742 116.799 99.8107C118.801 94.0477 121.336 88.4829 124.369 83.1892C124.566 82.8443 124.811 82.5601 125.275 81.7605C125.844 80.7797 126.513 80.2128 127.605 80.5001H127.604Z"
        fill="#253E92" />
    <path
        d="M86.7171 78.582C85.7155 78.6565 84.7731 79.0867 84.0603 79.7941C83.3467 80.5015 82.9097 81.4409 82.8267 82.4417C82.8067 87.3774 88.1434 87.5241 89.6397 83.5715C90.5069 81.275 89.2794 78.7042 86.7171 78.582ZM88.3393 84.4833C86.6303 86.4189 83.7215 85.8704 83.5618 82.7827C83.6232 79.7372 86.8438 78.105 88.5628 80.0575C89.0475 80.7058 89.2902 81.5031 89.2495 82.3111C89.208 83.1191 88.8854 83.888 88.3378 84.4833H88.3393Z"
        fill="#253E92" />
    <path
        d="M94.4689 81.6904C99.7456 83.3087 102.246 84.2251 102.764 84.1559C102.951 84.1306 103.078 83.9124 102.918 83.7872C101.584 82.7565 95.856 81.2226 95.0833 81.2364C94.5672 81.2456 94.4289 81.2026 94.336 81.4738C94.2968 81.5775 94.359 81.6566 94.4689 81.6904Z"
        fill="#253E92" />
    <path
        d="M100.412 85.1637C98.6374 84.4847 96.8217 83.9186 94.9759 83.4678C94.6065 83.3648 94.2117 83.4125 93.8776 83.5999C93.4029 83.9071 94.0911 84.1375 94.6457 84.2435C98.725 85.0439 100.374 86.133 100.625 85.5101C100.674 85.3803 100.624 85.2659 100.412 85.1637Z"
        fill="#253E92" />
    <path
        d="M98.2875 87.1409C98.0571 87.0165 94.199 85.7492 93.3034 85.5856C93.2343 85.5733 93.1636 85.5863 93.1029 85.6224C93.043 85.6585 92.9977 85.7146 92.9754 85.7814C92.9539 85.8482 92.9562 85.9204 92.9831 85.985C93.01 86.0495 93.0592 86.1025 93.1221 86.134C93.3134 86.2553 97.8428 87.6886 98.0663 87.7293C98.4373 87.7969 98.6816 87.3483 98.2875 87.1409Z"
        fill="#253E92" />
    <path
        d="M127.109 84.7976C127.408 84.6778 126.832 85.7523 127.284 85.8944C127.381 85.9252 127.493 85.6924 127.531 85.598C127.941 84.5825 127.778 84.6033 128.198 84.7646C129.016 85.078 129.091 85.0641 129.212 85.0396C129.332 85.015 129.353 84.9397 129.273 84.8729C129.02 84.6601 128.76 84.4558 128.488 84.2676C128.186 84.0587 129.619 83.7184 129.518 83.4788C129.417 83.2392 129.41 83.3782 128.42 83.6455C128.059 83.743 128.273 83.5287 128.361 82.7576C128.37 82.6938 128.352 82.6293 128.313 82.5778C128.274 82.5264 128.216 82.4933 128.152 82.4841C128.089 82.4757 128.024 82.4918 127.973 82.531C127.921 82.5694 127.887 82.627 127.877 82.6907C127.513 83.786 127.57 83.6892 127.259 83.5141C126.537 83.1017 126.377 83.3121 126.503 83.7392C126.558 83.9274 127.194 84.0902 126.957 84.2392C126.564 84.4865 126.238 84.5887 126.399 84.8813C126.505 85.0726 126.693 84.9627 127.109 84.7976Z"
        fill="#253E92" />
    <path
        d="M133.51 105.208C132.121 105.09 132.267 105.46 132.825 104.311C133.055 103.836 132.722 103.557 132.388 104.039C132.113 104.436 132.074 104.705 131.92 104.517C131.741 104.301 131.436 103.851 131.158 104.017C130.88 104.184 131.218 104.503 131.473 104.988C131.684 105.389 130.308 104.926 130.256 105.381C130.246 105.466 130.381 105.627 130.513 105.671C131.277 105.93 131.413 105.55 131.261 106.026C131.208 106.193 131.073 106.382 131.238 106.551C131.315 106.628 131.392 106.561 131.448 106.498C132.21 105.599 131.768 105.746 132.432 106.479C132.825 106.915 132.997 106.71 132.953 106.568C132.594 105.401 132.231 105.895 133.547 105.401C133.681 105.35 133.585 105.229 133.51 105.208Z"
        fill="#253E92" />
    <path
        d="M137.091 91.0957C137.617 91.1664 137.796 90.999 137.746 91.2255C137.586 91.9491 137.726 91.7425 138.265 91.2693C138.431 91.512 138.802 92.1473 138.843 91.7525C138.95 90.6556 138.118 91.2094 139.65 90.6502C139.708 90.6295 139.793 90.6503 139.83 90.4705C139.845 90.4006 139.528 90.3937 139.163 90.3691C139.163 90.3799 138.769 90.4459 138.943 90.0688C139.02 89.9029 139.058 89.7493 138.892 89.6717C138.64 89.5557 138.58 89.7769 138.42 90.0189C138.232 90.3023 138.262 89.9966 137.789 89.6287C137.636 89.5073 137.422 89.6732 137.547 89.992C137.716 90.4168 137.898 90.4214 137.536 90.5258C137.361 90.5504 137.191 90.6072 137.036 90.6925C136.879 90.843 136.934 91.075 137.091 91.0957Z"
        fill="#253E92" />
    <path
        d="M120.839 98.5034C120.74 98.3544 120.496 98.5618 120.355 98.6916C119.895 99.1156 119.876 99.2692 119.764 99.0595C119.694 98.9297 119.61 98.657 119.482 98.7C119.431 98.7169 119.388 98.7507 119.359 98.7968C119.331 98.8421 119.32 98.8966 119.329 98.9496C119.3 99.1885 119.309 99.1463 118.97 99.1033C118.497 99.1033 118.415 99.5019 118.803 99.6816C119.192 99.8614 119.281 99.7715 119.123 100.015C118.724 100.629 118.822 100.465 118.769 100.629C118.911 100.643 118.911 100.763 119.5 100.268C119.697 100.102 119.63 100.303 119.924 100.848C119.957 100.91 120.041 100.943 120.102 100.99C120.269 100.481 119.917 100.053 120.222 100.094C120.355 100.113 120.707 100.222 120.722 100.109C120.745 99.9428 120.633 99.8491 120.346 99.6809C119.948 99.4527 121.147 98.9635 120.839 98.5034Z"
        fill="#253E92" />
    <path
        d="M133 85.9236C133.392 86.1033 133.422 85.9919 133.258 86.2393C132.992 86.5726 132.828 86.7723 132.955 86.906C133.082 87.0396 133.099 87.0396 133.712 86.5319C133.914 86.3645 133.742 86.5081 134.046 87.0742C134.079 87.1372 134.174 87.4075 134.339 87.2793C134.504 87.151 134.148 86.3115 134.463 86.3576C134.6 86.376 134.965 86.4897 134.982 86.3729C135.008 86.1947 134.889 86.1064 134.592 85.9313C134.181 85.6885 135.258 85.4174 134.937 84.9489C134.832 84.7953 134.582 85.0088 134.437 85.1424C133.962 85.5802 134.105 85.495 133.992 85.2776C133.921 85.1417 133.825 84.859 133.702 84.9059C133.647 84.9212 133.6 84.9558 133.569 85.0034C133.538 85.0518 133.526 85.1094 133.535 85.1655C133.505 85.4113 133.689 85.6786 133.118 85.5272C132.835 85.4504 132.75 85.5541 132.74 85.6494C132.73 85.7446 132.795 85.8299 133 85.9236Z"
        fill="#253E92" />
    <path fill-rule="evenodd" clip-rule="evenodd"
        d="M147.588 86.3284C147.768 87.1126 147.744 87.9306 147.516 88.7026C147.199 89.7625 146.776 90.7879 146.253 91.7634C146.09 92.0115 146.142 92.1213 146.273 92.4009C146.403 92.6751 146.608 93.1106 146.764 93.9978C146.869 95.0163 146.807 96.0448 146.583 97.0433C146.394 98.2699 145.555 99.3544 145.008 100.06C144.753 100.389 144.563 100.635 144.531 100.775C144.511 100.864 144.538 101.003 144.576 101.2C144.732 101.994 145.071 103.727 143.233 106.825C143.14 106.979 143.183 107.109 143.268 107.369C143.426 107.853 143.732 108.787 143.582 111.159C143.478 113.952 142.829 116.698 141.67 119.241C141.461 119.709 141.577 120.223 141.735 120.929C141.88 121.578 142.062 122.388 142.062 123.473C141.989 125.754 141.444 127.997 140.461 130.057C140.364 130.305 140.448 130.517 140.579 130.844C140.704 131.158 140.871 131.579 140.962 132.242C141.021 132.813 141.041 133.388 141.022 133.962C141.071 135.213 140.838 135.908 140.629 136.529C140.399 137.214 140.199 137.807 140.441 138.955C140.763 140.182 140.977 141.436 141.082 142.701C141.223 144.414 141.22 146.135 141.072 147.847C140.99 148.398 140.753 148.948 140.206 148.834C139.802 148.75 139.811 148.516 139.861 147.317C139.894 146.524 139.945 145.311 139.905 143.44C139.752 141.927 139.517 140.425 139.2 138.939C138.98 137.835 139.09 137.461 139.348 136.575C139.477 136.136 139.641 135.573 139.82 134.735C139.841 134.635 139.837 133.442 139.835 132.981C139.835 132.905 139.835 132.849 139.835 132.821C139.83 132.066 139.654 131.609 139.499 131.206C139.233 130.514 139.028 129.981 139.853 128.375C140.443 127.02 140.781 125.568 140.852 124.091C140.977 122.668 140.76 121.698 140.59 120.936C140.49 120.488 140.405 120.111 140.416 119.756C140.431 119.262 140.595 118.875 140.852 118.266C141.136 117.597 141.532 116.66 141.97 115.017C142.372 113.509 142.803 109.605 142.47 107.956C142.326 108.105 142.2 108.235 142.09 108.348C141.441 109.018 141.337 109.124 141.325 109.456C141.103 115.245 138.634 117.293 137.32 118.382C136.824 118.793 136.494 119.067 136.51 119.355C136.716 122.995 135.672 124.457 133.029 126.407C132.724 126.629 132.731 126.916 132.745 127.496C132.746 127.541 132.747 127.587 132.748 127.636C132.798 128.404 132.654 129.174 132.33 129.873C132.005 130.572 131.509 131.178 130.889 131.636C129.975 132.24 129.932 132.36 129.836 132.621L129.831 132.634C129.772 132.795 129.725 132.945 129.681 133.084C129.504 133.648 129.378 134.049 128.7 134.371C127.8 134.798 127.219 135.038 126.837 135.195C126.238 135.442 126.134 135.485 126.067 135.73C125.778 136.65 125.141 137.421 124.293 137.88C122.584 138.943 121.509 139.479 119.175 139.012C118.558 138.889 118.029 139.092 117.455 139.315C116.32 139.753 115.004 140.262 112.459 138.467C112.408 138.431 112.36 138.396 112.315 138.363C111.96 138.107 111.742 137.95 111.23 138.035C107.5 138.65 105.884 137.161 104.552 135.933C104.349 135.745 104.151 135.564 103.954 135.396C103.538 135.044 103.002 134.986 102.378 134.919C101.166 134.79 99.6181 134.624 97.9529 132.19C97.3638 131.33 96.6671 131.061 95.9213 130.774C94.7876 130.337 93.5402 129.855 92.382 127.19C92.0402 126.403 91.4787 126.166 90.4556 125.736C90.4187 125.721 90.3819 125.705 90.3442 125.689C88.2788 124.826 87.6513 123.114 87.1566 121.766C86.864 120.968 86.6182 120.298 86.1489 120.005C85.811 119.795 85.4476 119.65 85.079 119.502C83.8638 119.017 82.5865 118.506 81.9382 115.565C81.8484 115.16 81.4605 114.914 80.942 114.584C80.3982 114.238 79.7116 113.801 79.0771 112.997C78.3728 112.104 77.8973 111.143 77.5263 110.393C77.1715 109.676 76.9126 109.151 76.6384 109.06C75.7567 108.702 75.053 108.009 74.6813 107.133C74.3314 106.314 74.2307 105.741 74.1457 105.258C74.0365 104.637 73.9534 104.164 73.4009 103.509C72.7651 102.832 72.2062 102.087 71.7342 101.287C71.1235 100.311 72.3924 99.74 73.3379 100.253C74.237 100.8 75.0412 101.489 75.719 102.294C75.7676 102.165 75.7991 101.98 75.8372 101.756C75.8726 101.549 75.9137 101.308 75.9794 101.047C76.3249 99.6655 76.4995 99.4282 76.4456 99.2661C76.4263 99.2077 76.3773 99.1594 76.2959 99.071C75.9692 98.5871 75.5046 98.2123 74.9624 97.9957C74.4634 97.892 73.9978 97.667 73.6075 97.339C73.5336 97.2345 73.482 97.1155 73.4561 96.9903C73.4302 96.8651 73.4306 96.736 73.4571 96.6101C73.4836 96.4849 73.5359 96.3666 73.6104 96.2629C73.6849 96.1584 73.7801 96.0709 73.8902 96.0056C74.1077 95.8596 74.2288 95.8281 74.2298 95.7928C74.2312 95.7444 74.0076 95.6899 73.4985 95.3251C72.3917 94.5331 74.1037 93.1183 76.5708 93.8918C80.2346 95.0409 80.2938 98.5403 80.3375 101.159C80.3621 102.606 80.3821 103.783 81.0012 104.15C82.2086 104.865 83.0305 104.709 83.8324 104.556C84.6281 104.405 85.4023 104.257 86.5122 104.971C86.609 105.033 86.7012 105.097 86.7903 105.16C87.265 105.491 87.672 105.775 88.4831 105.544C90.9449 104.844 91.3189 105.095 92.2345 105.71C92.4565 105.859 92.7099 106.028 93.0318 106.211C93.5556 106.508 93.8667 106.41 94.3728 106.25C94.8206 106.107 95.4205 105.918 96.4559 105.909C97.4099 105.904 97.9015 106.258 98.9491 107.012L99.0114 107.056C99.4914 107.402 99.7671 107.295 100.202 107.127C100.57 106.984 101.051 106.798 101.866 106.804C102.674 106.81 103.456 107.097 104.078 107.614C104.525 108.029 104.882 108.008 105.254 107.986C105.338 107.981 105.423 107.976 105.509 107.976C105.677 107.977 105.669 107.922 105.633 107.674C105.587 107.351 105.493 106.702 105.676 105.428C105.713 105.159 105.813 104.903 105.969 104.681C106.124 104.458 106.33 104.277 106.57 104.15C106.864 103.977 106.892 103.948 106.801 103.617C106.622 103.093 106.549 102.537 106.585 101.984C106.622 101.431 106.77 100.89 107.017 100.394C107.265 99.8975 107.609 99.4558 108.03 99.0941C108.449 98.7315 108.937 98.4566 109.464 98.2845C109.688 98.2008 109.681 98.1055 109.642 97.5694C109.622 97.2768 109.592 96.8536 109.584 96.2306C109.555 93.8749 110.626 92.7189 112.474 91.2296C113.13 90.7004 113.112 89.9469 113.09 89.009C113.063 87.8692 113.029 86.4567 114.193 84.8437C115.124 83.6608 116.39 82.7852 117.826 82.3313C117.892 82.3098 117.955 82.2921 118.015 82.2752C118.37 82.1746 118.608 82.1062 118.731 81.5463L118.735 81.5302C119.098 79.8788 119.439 78.328 120.472 77.0768C121.435 75.9085 123.636 74.0282 125.053 74.4215C125.508 74.5467 125.785 75.0943 125.36 75.1711C124.72 75.1181 124.081 75.2744 123.538 75.6166C120.663 77.2911 120.211 79.4525 119.879 81.0378C119.671 82.0302 119.51 82.7967 118.832 83.0763C118.682 83.1378 118.512 83.1977 118.327 83.263C117.389 83.5925 116.055 84.0618 114.939 85.6064C114.157 86.6894 114.139 87.9191 114.122 89.0467C114.106 90.1197 114.091 91.1006 113.421 91.7749C113.122 92.076 112.842 92.3372 112.585 92.5784C111.444 93.6445 110.739 94.3043 110.739 96.1907C110.738 96.7045 110.748 97.1216 110.755 97.4626C110.785 98.6839 110.791 98.9374 110.197 99.2377C110.106 99.2838 110.002 99.3306 109.889 99.3813C109.165 99.7078 108.089 100.192 107.781 101.635C107.603 102.468 107.789 103.077 107.937 103.557C108.142 104.23 108.271 104.653 107.216 105.096C106.602 105.356 106.517 105.914 106.448 107.138C106.397 108.023 106.782 108.141 107.38 108.324C107.884 108.479 108.541 108.679 109.213 109.428C109.225 109.441 109.238 109.455 109.251 109.469C109.442 109.681 109.778 110.052 109.643 110.261C109.591 110.313 109.529 110.353 109.46 110.379C109.391 110.404 109.318 110.416 109.245 110.411C109.172 110.407 109.1 110.387 109.035 110.354C108.97 110.32 108.913 110.274 108.867 110.217C107.908 109.383 106.669 108.946 105.4 108.993C105.06 109.069 104.706 109.058 104.372 108.959C104.037 108.862 103.733 108.681 103.487 108.433C103.209 108.138 102.858 107.923 102.47 107.809C102.081 107.694 101.67 107.685 101.276 107.783C101.015 107.826 100.782 107.927 100.551 108.027C99.996 108.267 99.453 108.502 98.5513 107.915C98.1772 107.671 97.913 107.473 97.7041 107.316C97.2378 106.967 97.0427 106.821 96.5105 106.821C95.7155 106.821 95.1747 107.002 94.7054 107.158C93.8436 107.447 93.2246 107.654 91.7199 106.505C91.5478 106.326 91.3358 106.19 91.1016 106.107C90.8673 106.025 90.6177 105.998 90.3711 106.029C89.8127 106.146 89.3795 106.265 89.0216 106.363C87.7796 106.703 87.4462 106.794 85.9554 105.696C85.1727 105.118 84.2433 105.327 83.6104 105.469C83.433 105.508 83.2793 105.543 83.158 105.554C81.7286 105.679 81.4897 105.293 81.4121 105.323C81.3599 105.343 81.3806 105.551 81.1609 106.231C80.7569 107.738 79.9166 109.092 78.7468 110.125C78.69 110.186 78.6255 110.211 78.5732 110.233C78.4488 110.283 78.3889 110.307 78.6401 110.721C79.889 112.783 80.9597 113.409 81.7408 113.865C82.393 114.245 82.8431 114.509 83.0274 115.389C83.5151 117.719 84.4914 118.116 85.549 118.544C86.119 118.776 86.7135 119.017 87.2665 119.577C87.6329 119.948 87.775 120.346 87.9862 120.939C88.1337 121.353 88.3157 121.863 88.6321 122.525C89.3795 124.096 90.3527 124.517 91.7521 125.122L91.769 125.129C92.9872 125.657 93.2753 126.331 93.5879 127.062C93.9911 128.005 94.4343 129.043 96.9705 129.982C98.0919 130.398 98.5689 131.041 99.0498 131.69C99.7641 132.655 100.488 133.632 103.353 133.893C104.174 133.966 104.797 134.538 105.492 135.177C106.526 136.125 107.719 137.22 109.953 137.042C111.602 136.911 111.603 136.899 111.624 136.714C111.625 136.704 111.626 136.693 111.628 136.682C111.747 135.098 112.163 133.551 112.857 132.123C114.246 129.436 115.546 127.429 117.992 125.539C118.152 125.377 118.35 125.258 118.567 125.19C119.767 124.018 121.923 123.517 122.852 123.302C123.006 123.266 123.127 123.238 123.204 123.216C124.335 123.017 125.487 122.961 126.633 123.049C128.67 123.204 130.618 123.953 132.236 125.2C132.259 125.225 132.287 125.245 132.318 125.259C132.349 125.273 132.383 125.281 132.416 125.281C132.436 125.281 132.454 125.278 132.472 125.274C132.487 125.271 132.502 125.265 132.515 125.259C132.537 125.25 132.557 125.237 132.575 125.222C132.583 125.215 132.591 125.208 132.598 125.2C135.441 123.163 135.428 121.22 135.418 119.795C135.412 118.983 135.407 118.339 135.932 117.941C139.616 115.142 139.845 113.007 140.183 109.867C140.209 109.62 140.236 109.367 140.266 109.108C140.308 108.732 140.696 108.247 141.19 107.629C142.157 106.42 143.531 104.7 143.531 102.286C143.531 101.631 143.462 101.245 143.413 100.971C143.346 100.59 143.316 100.424 143.56 100.059C143.66 99.909 143.784 99.7462 143.921 99.5664C144.657 98.5994 145.773 97.1331 145.659 94.4364C145.612 93.7167 145.395 93.0185 145.025 92.3994C144.819 92.0008 145.15 91.344 145.561 90.526C146.294 89.0697 147.285 87.1026 145.952 85.1724C145.77 84.909 145.614 84.7001 145.482 84.5242C144.826 83.6493 144.79 83.5994 145.389 81.8904C146.551 78.573 145.25 77.4401 144.28 76.5956C143.856 76.2271 143.496 75.9136 143.432 75.4976C143.251 74.7778 142.92 74.1046 142.46 73.522C142.001 72.9395 141.423 72.461 140.765 72.118C140.452 71.9644 140.18 71.841 139.937 71.7305C139.567 71.5617 139.262 71.4229 138.976 71.2531C138.654 71.0622 138.575 70.7519 138.478 70.3658C138.262 69.5092 137.95 68.2794 134.675 67.1523C134.578 67.1191 134.477 67.0894 134.374 67.0593C133.814 66.8948 133.201 66.7149 132.954 65.8573C132.849 65.5035 132.665 65.1782 132.416 64.9058C132.168 64.6336 131.859 64.4213 131.517 64.285C130.392 63.704 129.125 63.4532 127.863 63.5615C127.696 63.5581 127.607 63.7617 127.464 64.0917C127.246 64.5932 126.902 65.3864 125.962 66.1891C124.624 67.5768 123.048 68.7133 121.308 69.5449C118.268 70.929 113.357 71.8883 103.156 70.0449C94.243 68.4327 92.8543 64.6706 92.4088 63.2366C92.1239 62.2516 92.0955 61.2099 92.3274 60.211C92.3589 60.0474 92.3474 60.016 91.014 59.7341C90.3811 59.5173 89.696 59.5092 89.0584 59.711C87.8518 60.061 86.7903 60.7927 86.0345 61.7964C85.7557 62.0852 85.6212 62.0548 85.304 61.983C84.9952 61.9131 84.5136 61.804 83.5558 61.9116C82.5535 62.122 81.6057 62.5407 80.7754 63.1405C79.6923 63.9046 78.8759 64.989 78.4411 66.2413C78.2391 66.7141 78.0095 66.7195 77.544 66.7304C77.2383 66.7376 76.8312 66.7472 76.2628 66.8934C73.702 67.5517 72.8479 69.0203 72.3686 71.5688C72.2506 72.1956 72.0514 72.2771 71.5763 72.4715C71.1198 72.6583 70.4089 72.9491 69.2709 73.9276C67.9449 75.0697 67.7522 76.1547 67.5857 77.0921C67.4317 77.9593 67.3001 78.6997 66.3138 79.242C63.2782 80.9095 63.2637 81.7491 63.2183 84.3928C63.2154 84.5633 63.2124 84.74 63.2084 84.9259C63.1903 85.7738 62.823 85.8614 62.224 86.0035C61.8779 86.0857 61.4544 86.1855 60.9763 86.4621C59.3973 87.373 59.0812 88.2924 58.6804 89.4576C58.5552 89.8217 58.4217 90.2103 58.2388 90.6297C58.2045 90.6896 58.195 90.7611 58.2126 90.8279C58.2301 90.8947 58.2732 90.9523 58.3325 90.9876C59.6045 92.0299 59.9225 93.3103 59.3741 93.4002C59.161 93.4348 59.151 93.4179 59.0671 93.2727C58.9351 93.0446 58.6198 92.5 57.0406 91.3448C56.1414 90.8747 55.1202 90.6904 54.1134 90.8164C53.6626 90.8471 53.3372 90.917 53.0816 90.9723C52.5959 91.0767 52.3625 91.1267 52.0012 90.7526C50.5065 89.2118 49.1877 88.6319 46.123 89.9077C45.635 90.1105 45.3734 89.9584 44.9536 89.7134C44.4487 89.42 43.7151 88.9921 42.0844 88.8892C41.4681 88.8501 41.0242 88.9768 40.6522 89.0828C40.0975 89.2418 39.7027 89.3539 39.1349 88.8024C38.2455 87.9391 37.1916 88.234 36.3744 88.4629C36.2777 88.4898 36.1843 88.5159 36.0948 88.539C35.6174 88.6626 35.513 88.5098 35.3666 88.2955C35.2178 88.0781 35.0255 87.797 34.3543 87.6772C34.0493 87.6219 33.7417 87.5819 33.4326 87.5589C32.6246 89.6243 30.8165 92.1889 28.6305 92.6198C28.5084 93.0546 28.5094 93.5139 28.6332 93.9479C28.757 94.3818 28.9988 94.7728 29.3318 95.0777C31.1287 96.5455 31.0757 96.7537 30.9846 97.1124C30.9244 97.3497 30.8475 97.6524 31.2773 98.4281C32.0961 99.9044 33.1909 100.493 34.7488 101.331C34.7867 101.351 34.825 101.371 34.8635 101.392C35.2168 101.583 35.2691 101.712 35.3807 101.991C35.514 102.324 35.7317 102.868 36.647 103.976C37.6715 105.219 38.5894 105.445 39.3245 105.627C39.9457 105.78 40.4364 105.902 40.7509 106.577C41.5659 107.634 42.6062 108.498 43.7964 109.104C44.621 109.499 45.5201 109.713 46.434 109.734C46.8942 109.794 46.9473 109.958 47.0424 110.252C47.126 110.51 47.2421 110.87 47.696 111.347C48.6579 112.472 49.9598 113.254 51.4051 113.574C51.9986 113.709 52.6073 113.765 53.2155 113.741C53.3691 113.744 53.4459 113.695 53.4459 113.529C53.4298 112.019 56.3386 106.402 62.5962 104.169C63.228 103.934 63.8804 103.759 64.5448 103.646C64.7192 103.633 64.7243 103.479 64.7357 103.127C64.7546 102.547 64.7909 101.432 65.6302 99.5365C66.1882 98.2753 66.632 97.6616 66.9215 97.2614C67.1924 96.8873 67.3284 96.6992 67.2969 96.342C67.2352 95.5962 67.2841 94.8458 67.4421 94.1145C68.1819 90.6128 69.2545 89.3962 69.9855 88.5666C70.3996 88.0966 70.7041 87.7509 70.7764 87.1848C70.9868 85.5273 71.877 82.6761 73.0668 81.3166C73.4893 80.8335 74.1828 81.4418 73.7135 81.7306C72.9762 82.183 72.0721 85.538 71.8094 86.7048C71.7405 87.0089 71.7218 87.2609 71.705 87.4859C71.6708 87.946 71.6447 88.2963 71.2157 88.7602C70.2585 89.6926 69.5234 90.8287 69.0651 92.0837C68.6703 93.1022 68.098 95.3957 68.3331 96.4534C68.3821 96.67 68.3752 96.8958 68.3128 97.1086C68.2505 97.3221 68.1347 97.5156 67.9767 97.6716C67.7026 98.0187 67.4609 98.3905 67.2547 98.7822C65.6669 101.364 65.7434 103.439 65.7955 104.852C65.8237 105.62 65.8448 106.192 65.5879 106.544C63.4173 109.516 63.8517 113.373 64.0329 114.981C64.0603 115.225 64.0818 115.416 64.0878 115.546C64.1136 116.106 63.8299 116.628 63.4767 117.278C63.1035 117.964 62.6527 118.793 62.4072 119.962C62.2518 120.701 62.3829 121.447 62.5362 122.32C62.6086 122.732 62.6861 123.172 62.7406 123.654C62.8039 124.212 62.8682 124.625 62.9174 124.94C63.0391 125.721 63.0693 125.914 62.7675 126.271C61.7581 127.421 61.2063 128.903 61.2167 130.434C61.3747 131.559 61.6462 132.341 61.8555 132.945C62.1702 133.851 62.344 134.352 61.779 135.001C61.6651 135.131 61.5563 135.231 61.4567 135.323C61.1968 135.564 61.0003 135.745 60.9448 136.238C60.7274 138.201 61.1067 139.277 61.3763 140.042C61.6288 140.759 61.7851 141.202 61.2651 141.845C61.0801 142.074 60.9247 142.241 60.7926 142.383C60.5016 142.696 60.324 142.887 60.1952 143.346C59.9385 144.929 60.0408 146.549 60.4947 148.087C60.719 148.435 59.6337 148.497 59.285 147.378C58.5729 145.093 58.4931 142.747 60.2435 141.129C60.4555 140.933 60.337 140.576 60.1526 140.019C59.8792 139.196 59.461 137.936 59.7596 136.116C59.9339 135.044 60.3339 134.679 60.6177 134.42C60.7579 134.293 60.8696 134.19 60.9118 134.042C60.8099 133.533 60.6723 133.032 60.5001 132.542C59.8994 131.201 59.8398 129.68 60.3334 128.296C60.6726 126.928 61.1174 126.368 61.4173 125.991C61.6662 125.678 61.8154 125.49 61.7221 125.07C61.6315 124.609 61.5658 124.145 61.5255 123.677C61.467 123.157 61.4109 122.717 61.3622 122.337C61.0928 120.231 61.05 119.897 62.0908 117.342C62.1476 117.203 61.8423 117.256 61.045 117.393C61.0028 117.4 60.9591 117.408 60.9141 117.415C58.3133 117.858 55.3708 116.355 53.3207 114.709C53.1608 114.58 52.9545 114.61 52.6626 114.653C52.2021 114.722 51.5283 114.821 50.4865 114.375C50.1372 114.225 49.8633 114.115 49.6364 114.023C48.8649 113.712 48.637 113.62 47.8381 112.953C46.759 112.052 46.4411 111.484 46.2481 111.138C46.0798 110.838 46.0064 110.707 45.606 110.673C44.2769 110.556 43.0101 110.055 41.9584 109.234C40.6519 108.221 40.2124 107.628 39.9384 107.259C39.6729 106.9 39.5629 106.752 38.9697 106.635C36.5887 106.166 34.8704 103.748 34.438 102.487C34.3781 102.313 34.0766 102.157 33.6469 101.934C32.764 101.476 31.3397 100.737 30.3556 98.9873C30.0085 98.4834 29.8475 97.8743 29.9001 97.2653C29.9793 97.0448 29.7302 96.8413 29.3645 96.5417C28.8791 96.1454 28.1887 95.5801 27.7879 94.5861C27.5313 93.9947 27.4644 93.338 27.5966 92.7074C26.6105 92.6751 25.6431 92.4301 24.7612 91.9877C23.8793 91.5453 23.104 90.9162 22.4888 90.1451C21.26 89.5444 20.1132 88.7886 19.0762 87.8969C18.5877 87.4736 17.5531 86.0865 18.2198 85.439C18.61 85.0595 19.438 85.2907 19.8865 85.4958C19.1751 84.9366 18.5631 84.2615 18.0762 83.4988C17.8896 83.263 17.7777 82.9765 17.7549 82.6761C17.732 82.3766 17.7992 82.0763 17.9479 81.8151C18.1297 81.6192 18.367 81.4848 18.628 81.428C18.889 81.3719 19.1609 81.3965 19.4073 81.4994C19.4292 81.5071 19.4521 81.5163 19.4758 81.5255C19.5075 81.5378 19.5404 81.5501 19.5739 81.5616C18.8469 81.0754 18.2593 80.4087 17.8688 79.6261C17.8033 79.4486 17.7967 79.2551 17.8498 79.073C17.9029 78.8918 18.0129 78.732 18.1637 78.6176C18.32 78.5039 18.501 78.4301 18.6919 78.401C18.7543 78.3917 18.8172 78.3871 18.88 78.3871C19.0307 78.6444 19.1865 78.9102 19.3473 79.1852C18.9534 79.0654 18.6456 79.0515 18.5447 79.2397C18.4141 79.4809 18.7505 79.848 18.981 80.0731C19.5732 80.6691 20.1952 81.2344 20.8443 81.766C21.1403 82.2737 21.4681 82.8198 21.8302 83.4035C21.1985 83.0164 20.5336 82.6854 19.8428 82.4135C19.2268 82.1561 18.0961 81.9081 18.623 83.0118C19.6016 84.5672 21.5364 85.8391 23.1018 86.7893C23.1922 86.8369 23.2601 86.9183 23.2905 87.0159C23.3209 87.1134 23.3113 87.2186 23.2638 87.3093C23.2164 87.3999 23.1349 87.4675 23.0374 87.4982C22.9399 87.5282 22.8342 87.519 22.7438 87.4713C22.3982 87.2893 18.9764 85.5158 18.6929 85.9974C18.527 86.2324 18.8681 86.6902 19.3074 87.1426C20.3127 88.1764 21.418 88.7302 22.1769 89.1104C22.5904 89.317 22.901 89.473 23.0365 89.6266C23.3666 90.0022 23.745 90.3332 24.1617 90.6097C27.5075 92.8464 29.3632 91.404 30.0177 90.8586C31.2968 89.7526 32.2502 88.3185 32.7751 86.7109C32.9132 86.3453 33.0336 85.9743 33.1361 85.5987C33.4502 85.3683 33.761 85.1333 34.0686 84.8936C34.1193 84.8514 34.1673 84.8114 34.2127 84.7715C34.1176 85.386 33.9688 85.9935 33.7667 86.5873C34.2472 86.6495 34.7237 86.7401 35.1938 86.8576C35.5499 86.9467 35.7036 87.1172 35.8242 87.2509C35.9462 87.3861 36.0342 87.4836 36.2638 87.4206C36.8004 87.214 37.3793 87.1426 37.9501 87.2117C38.5209 87.2801 39.0661 87.4882 39.5381 87.8162C39.8799 88.0827 40.1803 88.2878 40.5981 88.0174C42.2168 87.6557 43.9126 87.9214 45.3426 88.7625C45.7164 88.9668 46.0796 88.8255 46.5834 88.6296C47.1384 88.4138 47.8642 88.1311 48.9634 88.1711C50.1934 88.1734 51.3737 88.6565 52.2523 89.5175C52.7134 89.9745 52.9998 89.9261 53.5026 89.8409C54.1431 89.7326 55.1348 89.5644 57.2864 90.3064C57.3305 90.3217 57.3564 90.3317 57.3746 90.324C57.4462 90.2933 57.3982 89.983 57.8617 88.5843C58.1148 87.8185 58.5398 87.1211 59.1042 86.545C59.6685 85.9689 60.3573 85.5304 61.1176 85.2615C61.418 85.1563 61.6347 85.0972 61.7906 85.0549C62.1175 84.9658 62.1761 84.9497 62.1761 84.7354C62.1807 81.3243 62.2951 80.2628 65.9635 78.2105C66.3142 78.0138 66.4026 77.5468 66.521 76.9208C66.6883 76.0365 66.9154 74.8359 68.0274 73.638C68.7104 72.9695 69.4741 72.3887 70.3009 71.9091C70.5661 71.7736 70.765 71.6958 70.9149 71.637C71.2056 71.523 71.3125 71.4812 71.3632 71.2324C71.5206 69.7934 72.1474 68.4462 73.1467 67.3988C73.7484 66.739 74.5338 66.2744 75.4018 66.0647C76.3297 65.7721 76.842 65.7338 77.1492 65.7109C77.4587 65.6878 77.5609 65.6802 77.6707 65.4448C77.9634 64.6053 78.4565 63.8499 79.1078 63.2442C79.8222 62.4872 80.6909 61.8926 81.6548 61.5007C82.2877 61.1538 82.9913 60.9559 83.7118 60.9223C84.2371 60.8817 84.7656 60.9076 85.284 60.9991C85.4031 61.0338 85.5867 60.8483 85.864 60.5687C86.715 59.7106 88.4455 57.9667 91.8635 58.9852C90.1269 56.6057 89.116 53.7746 88.9532 50.8334C88.8787 49.5787 88.9855 48.6528 89.0577 48.0319C89.1114 47.5598 89.146 47.264 89.0646 47.1343C87.7888 44.7221 87.139 42.0284 87.1743 39.2998C87.7681 30.9463 91.6915 27.8377 93.4688 26.4299C93.9204 26.0721 94.2331 25.824 94.3176 25.6278C97.0635 19.248 107.457 16.4921 114.216 17.281C131.161 19.2594 133.435 32.3861 134.027 35.8046C134.105 36.2562 134.155 36.5383 134.204 36.603C136.935 40.1754 135.619 48.715 132.283 50.8427C132.172 50.9135 132.073 50.955 131.984 50.9925C131.766 51.0839 131.605 51.1515 131.464 51.5616C130.434 54.5456 126.812 58.3077 126.269 58.7978C125.968 59.026 125.686 59.278 125.424 59.5513C125.411 59.5682 125.448 59.6626 125.497 59.6626C126.157 59.8044 126.758 60.1457 127.217 60.6403C127.677 61.1349 127.974 61.7589 128.067 62.4278C128.087 62.5584 128.09 62.624 128.124 62.6569C128.219 62.7474 128.551 62.5903 130.141 62.8579C130.97 63.0705 131.761 63.4124 132.484 63.871C133.365 64.5 133.559 65.0267 133.708 65.4318C133.839 65.7882 133.936 66.0503 134.434 66.2052C136.331 66.7928 137.835 67.2867 138.788 68.8505C139.045 69.3534 139.257 69.8777 139.422 70.4174C139.508 70.6188 139.798 70.733 140.213 70.8968C141.072 71.2351 142.466 71.7849 143.711 73.7517C144.031 74.2556 144.099 74.6326 144.154 74.9348C144.211 75.2539 144.253 75.4896 144.561 75.7034C145.135 76.1423 145.634 76.6715 146.038 77.2703C147.216 78.8488 146.773 81.3474 145.95 83.1347C145.8 83.4619 146.038 83.7253 146.463 84.1962L146.488 84.2231C147.029 84.8191 147.408 85.5434 147.588 86.3284ZM34.2852 82.0647C34.244 81.6546 34.179 81.2452 34.0901 80.8396C33.9618 80.4978 33.7944 80.0523 33.2989 79.954C33.2502 79.944 33.2018 79.941 33.1535 79.9433C33.6521 80.8596 34.0188 81.5432 34.2852 82.0647ZM62.2191 105.166C58.4193 106.414 54.552 111.129 54.0512 113.811C54.0265 113.943 54.0128 114.006 54.0311 114.056C54.0487 114.106 54.0957 114.144 54.191 114.223C55.6904 115.339 57.4182 116.109 59.2504 116.477C60.321 116.595 61.4043 116.487 62.4311 116.163C62.9533 115.996 62.9305 115.765 62.8388 114.835C62.802 114.462 62.7541 113.977 62.726 113.337C62.5625 109.627 63.3362 108.194 63.9559 107.048C64.3583 106.303 64.6957 105.678 64.67 104.628C64.6694 104.604 64.6717 104.581 64.6738 104.559C64.6931 104.364 64.6942 104.352 62.2191 105.166ZM128.531 44.8093C128.833 51.176 131.69 51.5923 133.442 47.6428C136.235 41.3468 133.441 34.2834 130.856 37.3673C129.004 39.5798 128.771 42.1659 128.589 44.1823C128.57 44.3982 128.551 44.6076 128.531 44.8093ZM129.126 50.33C128.984 50.1601 128.73 49.8574 128.468 49.3065C126.843 45.8931 127.612 40.6685 129.064 38.0947C129.872 36.6672 130.391 36.385 130.718 36.2072C130.78 36.1741 130.833 36.1447 130.882 36.1122C130.893 36.1047 130.905 36.0971 130.916 36.0893C131.052 36.0002 131.215 35.8932 131.124 35.8227C130.81 35.6857 130.465 35.6389 130.126 35.6875C129.211 35.7422 128.347 36.1239 127.69 36.7628C125.619 38.7429 124.247 45.9131 126.167 49.5799C126.689 50.5738 128.191 50.6668 129.134 50.5539C129.297 50.5339 129.263 50.4937 129.126 50.33ZM120.337 19.7235C111.181 16.1711 100.862 18.9339 96.5757 23.7291V23.7298C96.2624 24.0267 96.0004 24.3741 95.8023 24.7575C95.9405 24.7254 96.1502 24.6058 96.4475 24.4363C97.8462 23.6386 101.183 21.7353 108.139 22.6322C113.93 23.3804 121.066 27.3237 125.512 33.7496C126.676 35.4319 126.827 35.9396 126.969 35.937C127.149 35.9338 127.315 35.107 129.525 34.8195C130.6 34.6919 131.688 34.8899 132.65 35.3879C132.863 35.463 132.836 35.3462 132.74 34.94C132.695 34.7516 132.635 34.5009 132.578 34.1782C132.245 32.4997 131.687 30.8738 130.921 29.3438C129.868 26.7899 126.943 22.2851 120.337 19.7235ZM107.806 54.1992C107.71 53.9682 107.559 53.6072 107.423 53.0463V53.0471C107.4 52.9534 107.378 52.8604 107.356 52.768C106.622 49.7532 106.018 47.269 106.732 43.025C106.747 42.896 106.8 42.7743 106.884 42.6752C106.968 42.5762 107.079 42.5043 107.204 42.4686C107.329 42.4329 107.462 42.4351 107.586 42.4748C107.709 42.5145 107.818 42.59 107.899 42.6917C108.94 43.9842 109.392 44.5518 109.615 44.4727C109.907 44.369 109.805 43.1567 110.115 41.0111C110.782 36.3788 111.417 33.1935 113.615 28.969C114.846 26.6053 115.264 26.2586 115.203 26.1234C115.189 26.0896 115.144 26.069 115.074 26.0333C113.296 25.119 111.413 24.4227 109.467 23.9595C108.664 23.7391 104.83 35.6721 104.509 36.815C104.396 37.2221 103.814 37.6653 103.191 36.3004C103.006 35.7728 102.775 35.2629 102.499 34.7765C102.013 35.6682 101.678 36.6342 101.508 37.6353L101.448 37.938C100.205 44.2616 99.7879 46.385 100.842 52.5854C100.89 52.868 100.921 53.0965 100.945 53.2813C101.024 53.8558 101.044 54.007 101.342 54.0448C103.419 54.5147 105.55 54.7011 107.677 54.5986C107.971 54.5955 107.945 54.5327 107.806 54.1992ZM90.0562 48.6306C89.7144 49.8941 90.1599 53.8612 91.7053 56.8192V56.8199C95.3583 63.8126 114.777 64.5323 122.218 60.3232C127.236 57.4851 130.015 52.3581 130.368 51.6545C130.473 51.4438 130.2 51.4695 129.72 51.5146C128.391 51.6395 125.471 51.9136 124.575 47.7473C124.486 47.3261 124.444 47.3889 124.234 47.7093C124.101 47.912 123.9 48.2176 123.576 48.5691C115.147 57.7255 102.159 56.7047 95.6556 53.0402C92.4288 51.2214 91.6354 50.3155 90.9587 49.5427C90.6891 49.234 90.4372 48.9465 90.0562 48.6306ZM121.21 62.1244C119.543 64.7721 116.353 65.7113 113.229 65.8427C108.757 66.0786 104.277 65.5106 100.005 64.1659C98.6196 63.822 97.3769 63.0534 96.4498 61.9677C97.9813 62.4986 99.5398 62.9508 101.117 63.3226C112.526 65.3271 118.714 63.0239 120.612 62.3173C120.931 62.1983 121.129 62.1247 121.21 62.1244ZM116.263 69.955C120.651 69.1816 123.398 67.3912 124.798 66.0677L124.793 66.067C127.202 63.7896 127.2 62.8786 127.119 62.2926C127.016 61.7224 126.728 61.2019 126.301 60.8108C125.873 60.4197 125.329 60.1796 124.752 60.1273C124.667 60.109 124.494 60.2304 124.229 60.4167C123.895 60.6512 123.415 60.9887 122.779 61.2795C122.571 61.3756 122.539 61.5063 122.483 61.7404C122.445 61.8952 122.397 62.0955 122.279 62.3609C121.587 63.9194 118.308 66.4356 113.955 66.8251C113.574 66.8592 113.008 66.8384 112.431 66.8172C111.945 66.7993 111.451 66.7811 111.052 66.7951C107.581 66.7203 104.132 66.2303 100.778 65.3357C99.1834 65.0237 97.6979 64.3027 96.4667 63.2435C95.6295 62.4994 95.4904 62.0655 95.3944 61.765C95.3314 61.5659 95.2861 61.4252 95.0687 61.2918C93.6432 60.4164 93.3359 60.1734 93.2576 60.2328C93.2353 60.2495 93.2315 60.2903 93.2253 60.3478C92.8897 61.5506 93.0456 62.8375 93.6585 63.9255C95.9567 67.5709 100.658 68.5771 104.482 69.2784C108.36 69.9888 112.819 70.5618 116.263 69.955ZM76.822 108.403C77.0002 108.505 77.15 108.591 77.2491 108.689V108.69C77.3627 108.803 77.461 108.914 77.5501 109.015C77.8804 109.39 78.0824 109.619 78.4442 109.234C79.1485 108.345 79.7331 107.367 80.1832 106.326C80.3552 105.876 80.4566 105.401 80.4843 104.919C80.4996 104.808 80.4451 104.725 80.3591 104.594C80.1855 104.328 79.8805 103.862 79.753 102.557C79.6993 102.003 79.6586 101.464 79.6194 100.944C79.3567 97.4327 79.1601 94.8043 75.252 94.4794C74.547 94.5785 74.1604 94.5984 74.1417 94.6921C74.1185 94.8081 74.6579 95.037 75.8534 95.6661C76.3647 95.7851 76.855 95.9802 77.309 96.2445C78.3098 96.7552 79.0172 98.3037 78.6424 98.4719C78.3551 98.601 78.1784 98.2883 77.9718 97.9243C77.8167 97.6501 77.6446 97.3467 77.3973 97.1785C76.9871 96.8597 76.5045 96.6469 75.9923 96.5594C75.4801 96.4726 74.9542 96.5133 74.4617 96.6784C74.2339 96.8144 74.4074 96.8766 74.7688 97.0072C75.2486 97.18 76.0597 97.4726 76.7037 98.2146C77.3328 98.9412 77.1584 99.6041 76.9188 100.515C76.6306 101.611 76.2478 103.066 77.057 105.422C77.1292 105.633 77.1093 105.975 76.8788 105.848C76.376 105.571 76.116 104.73 75.8835 103.979L75.8619 103.909C75.788 103.671 75.6729 103.611 75.5395 103.542C75.4287 103.485 75.3052 103.421 75.1821 103.243C74.4917 102.272 73.5826 101.477 72.5284 100.924C72.0345 100.75 73.1329 102.205 73.5169 102.613C74.4508 103.617 74.5582 104.177 74.7132 104.985C74.7664 105.262 74.8251 105.569 74.9248 105.932C75.3747 107.572 76.2476 108.073 76.822 108.403ZM131.133 129.61C131.396 129.033 131.544 128.41 131.566 127.776V127.777C131.595 126.59 131.71 126.271 131.601 126.081C131.547 125.988 131.439 125.926 131.24 125.807C125.366 122.327 117.899 124 113.537 132.582C112.925 133.882 112.53 135.273 112.371 136.701C112.342 136.779 112.342 136.865 112.374 136.942C112.405 137.019 112.463 137.082 112.537 137.118C113.097 137.524 113.691 137.878 114.313 138.177C115.797 138.784 116.381 138.534 117.124 138.214C117.377 138.106 117.648 137.989 117.98 137.896C118.583 137.727 119.134 137.807 119.713 137.89C120.933 138.067 122.275 138.261 124.49 136.181C124.955 135.744 125.016 135.485 125.067 135.261C125.164 134.846 125.232 134.554 127.812 133.479C128.396 133.236 128.472 132.985 128.593 132.582C128.614 132.512 128.637 132.438 128.663 132.359C128.949 131.504 129.485 131.139 130.005 130.784C130.446 130.483 130.876 130.189 131.133 129.61Z"
        fill="#253E92" />
    <path
        d="M14.2161 73.5466C15.1086 75.7042 20.5029 83.7807 22.3041 86.7493C22.8857 87.7694 23.5269 88.7533 24.2243 89.698C25.1721 90.7334 25.6068 90.9109 26.5009 90.7419C27.9288 90.4707 35.4353 85.6571 36.0329 84.5019C36.6036 83.3997 35.8954 83.0203 30.7116 73.2479C25.7113 63.8196 26.368 64.0461 20.7264 66.2713C18.7027 67.2076 16.737 68.2643 14.8398 69.4358C13.418 70.3184 13.5217 71.8684 14.2161 73.5466ZM16.3898 69.7738C17.0895 69.3567 17.0864 69.339 17.7232 69.8322C17.9116 70.0094 18.1514 70.1224 18.4081 70.1548C18.6648 70.1872 18.9251 70.1375 19.1518 70.0127C21.4983 68.8114 22.9108 68.5587 22.4861 67.2637C22.4601 67.159 22.4619 67.0494 22.4911 66.9455C22.5203 66.8417 22.576 66.7473 22.6528 66.6715C25.4002 65.3934 25.444 65.8127 29.5487 73.35C33.2255 80.0992 34.4737 82.2668 34.8201 83.2269C35.0006 83.7269 35.0766 84.0618 34.0681 84.8936C31.937 86.5527 29.6471 87.9975 27.2321 89.2065C26.1092 89.6673 25.4732 88.7894 24.7896 87.8324C22.9877 85.3092 21.6496 83.1662 20.6788 81.481C14.4834 70.7216 14.0555 71.1663 16.3898 69.7738Z"
        fill="#253E92" />
    <path
        d="M27.2326 53.2536C26.9653 53.2076 27.0452 52.9956 27.0659 52.7805C28.3217 39.7437 27.2326 37.2044 28.0475 37.2958C29.1774 37.4225 28.1121 53.408 27.2326 53.2536Z"
        fill="#253E92" />
    <path
        d="M38.9468 73.126C39.0351 73.0577 39.0896 72.9778 39.1595 72.9594C39.6253 72.8338 40.1033 72.759 40.5851 72.7358C41.7035 72.7789 54.9584 73.3711 54.8631 74.4725C54.8247 74.9111 53.5512 74.4948 52.2839 74.378C38.4275 73.0984 39.4514 73.8657 38.9468 73.126Z"
        fill="#253E92" />
    <path
        d="M43.1147 55.106C36.4323 61.6063 36.9308 61.899 36.6021 60.8037C39.3941 57.3473 46.0265 50.9176 47.9475 50.0911C48.0059 50.0665 48.2348 50.2493 48.1511 50.36C48.1186 50.4025 48.0885 50.4468 48.0612 50.4928C48.0051 50.5013 47.4152 50.9245 43.1147 55.106Z"
        fill="#253E92" />
    <path
        d="M9.55842 50.6597C7.36782 47.0935 6.10738 45.4713 5.95453 44.8652C5.16724 41.7506 15.0126 57.2315 14.2499 58.4266C13.2191 57.2899 14.5979 58.8645 9.55842 50.6597Z"
        fill="#253E92" />
    <path
        d="M68.1637 28.1695C67.0277 29.1181 64.2188 31.1374 65.1328 31.5852C65.3962 31.7134 65.5268 31.3501 66.1144 30.8716C68.7467 28.7279 68.4717 28.9091 68.5301 29.2909C68.719 30.5198 68.5039 32.7688 68.9786 32.6781C69.0654 32.662 69.1914 32.6198 69.2152 32.5568C69.5647 31.6213 69.1315 29.0167 69.3166 28.9506C69.4833 28.8915 72.0156 31.3916 72.4189 31.5168C72.8221 31.642 72.9619 31.248 72.7945 30.943C72.7338 30.8324 70.9926 29.2225 70.8988 29.1357C69.6561 27.9928 69.5439 28.1211 69.6937 27.969C70.183 27.4743 73.6816 24.763 73.2961 24.2668C72.9627 23.8382 70.7091 26.0273 69.2951 27.2324C69.2336 25.7684 69.176 21.9863 69.0984 21.7828C69.0308 21.6046 68.7144 21.6161 68.6837 22.0363C68.5339 23.9649 68.6299 27.0826 68.4786 27.0803C68.3273 27.078 66.1812 25.2837 65.2426 24.9719C65.1855 24.9488 65.1222 24.9457 65.063 24.9631C65.004 24.9804 64.9524 25.0173 64.9169 25.0676C64.8812 25.1179 64.8637 25.1788 64.8671 25.2403C64.8705 25.3019 64.8945 25.3605 64.9354 25.4066C65.7795 26.2508 68.5132 27.8761 68.1637 28.1695Z"
        fill="#253E92" />
    <path
        d="M32.5926 10.0743C32.8683 10.3101 32.5826 10.3378 31.5664 11.2825C30.3321 12.4293 30.3305 12.4899 30.2322 12.7834C30.1339 13.0768 30.4772 13.4501 30.7791 13.0868C31.081 12.7234 32.8737 11.2149 32.9828 11.1381C33.0911 11.5437 32.9321 13.4239 33.1095 14.6928C33.2339 15.583 33.7762 15.2773 33.7762 13.8886C33.7762 11.1466 33.7862 11.5552 33.8346 11.2887C34.1679 11.5191 33.7386 11.1466 35.2171 12.5944C35.8823 13.2427 36.7787 13.1321 35.3439 11.6427C33.8453 10.082 33.8768 10.3086 34.1249 10.0551C34.6626 9.50976 35.9345 8.26622 36.7364 7.43822C37.4277 6.71928 37.2364 6.45429 36.9999 6.57488C35.1403 7.52348 33.7869 9.53894 33.7823 9.02509C33.737 3.82435 33.6625 3.852 33.3292 3.84586C32.9136 3.83895 33.0219 4.0494 33.0219 6.69317C33.0404 6.69317 33.0557 9.11342 32.9835 9.3354C32.8407 9.24016 30.4488 7.18936 29.9112 7.03113C29.5578 6.92897 29.4119 7.27154 29.6193 7.49582C29.8566 7.75237 29.9288 7.78847 32.5926 10.0743Z"
        fill="#253E92" />
    <path
        d="M29.0786 121.286C31.346 119.468 31.1793 118.707 30.922 118.894C28.8105 120.417 29.1554 120.187 28.3228 120.823C27.9203 121.13 28.3366 115.086 27.5224 115.08C27.0224 115.08 27.1922 115.58 27.3443 118.87C27.4072 120.226 27.2797 118.514 27.4211 120.736C27.4618 121.388 25.5323 119.019 23.3102 118.492C23.2798 118.483 23.2479 118.481 23.2165 118.485C23.185 118.489 23.1548 118.5 23.128 118.517C23.1011 118.534 23.0782 118.556 23.0607 118.583C23.0433 118.609 23.0317 118.639 23.0268 118.67C22.95 119.041 23.1804 119.048 23.3986 119.17C24.6413 119.879 23.8871 119.313 26.8488 121.531C27.2759 121.85 27.1346 121.805 26.6491 122.256C25.8495 123 23.8671 124.605 24.5507 124.867C24.9424 125.017 25.0054 124.791 27.2444 122.822C27.7928 122.34 27.3473 124.571 27.8589 126.636C27.8723 126.691 27.9043 126.738 27.9493 126.772C27.9943 126.805 28.0495 126.822 28.1054 126.819C28.5709 126.846 28.4956 126.351 28.2721 123.088C28.2721 122.474 28.1784 122.605 29.4388 123.542C30.2292 124.129 30.3813 124.209 30.6847 124.234C30.9881 124.258 31.018 123.9 30.796 123.681C30.6424 123.527 30.6102 123.48 28.6293 121.882C28.4764 121.757 28.5156 121.737 29.0786 121.286Z"
        fill="#253E92" />
</svg>