<svg width="20" height="20" viewBox="0 0 20 20" fill="none" xmlns="http://www.w3.org/2000/svg">
    <path
        d="M9.3231 1.81186L3.48977 4.4319C2.88789 4.70224 2.5 5.30543 2.5 5.97105V6.1397C2.5 6.83737 3.05964 7.40294 3.75 7.40294H16.25C16.9404 7.40294 17.5 6.83737 17.5 6.1397V5.97105C17.5 5.30543 17.1121 4.70224 16.5102 4.43191L10.6769 1.81186C10.246 1.6183 9.75405 1.6183 9.3231 1.81186Z"
        fill="white" />
    <path
        d="M2.5 17.0701V16.228C2.5 15.5303 3.05964 14.9647 3.75 14.9647H16.25C16.9404 14.9647 17.5 15.5303 17.5 16.228V17.0701C17.5 17.7678 16.9404 18.3334 16.25 18.3334H3.75C3.05964 18.3334 2.5 17.7678 2.5 17.0701Z"
        fill="white" />
    <path
        d="M4.58333 9.06964C4.35321 9.06964 4.16667 9.25619 4.16667 9.48631V12.8814C4.16667 13.1115 4.35321 13.2981 4.58333 13.2981H5.41667C5.64679 13.2981 5.83333 13.1115 5.83333 12.8814V9.48631C5.83333 9.25619 5.64679 9.06964 5.41667 9.06964H4.58333Z"
        fill="white" />
    <path
        d="M7.91667 9.06964C7.68655 9.06964 7.5 9.25619 7.5 9.48631V12.8814C7.5 13.1115 7.68655 13.2981 7.91667 13.2981H8.75C8.98012 13.2981 9.16667 13.1115 9.16667 12.8814V9.48631C9.16667 9.25619 8.98012 9.06964 8.75 9.06964H7.91667Z"
        fill="white" />
    <path
        d="M11.25 9.06964C11.0199 9.06964 10.8333 9.25619 10.8333 9.48631V12.8814C10.8333 13.1115 11.0199 13.2981 11.25 13.2981H12.0833C12.3135 13.2981 12.5 13.1115 12.5 12.8814V9.48631C12.5 9.25619 12.3135 9.06964 12.0833 9.06964H11.25Z"
        fill="white" />
    <path
        d="M14.5833 9.06964C14.3532 9.06964 14.1667 9.25619 14.1667 9.48631V12.8814C14.1667 13.1115 14.3532 13.2981 14.5833 13.2981H15.4167C15.6468 13.2981 15.8333 13.1115 15.8333 12.8814V9.48631C15.8333 9.25619 15.6468 9.06964 15.4167 9.06964H14.5833Z"
        fill="white" />
</svg>