<svg width="72" height="72" viewBox="0 0 72 72" fill="none" xmlns="http://www.w3.org/2000/svg">
<path d="M34.6774 7.21444L14.6289 19.0891H57.3716L37.3232 7.21444C36.9227 6.97722 36.4657 6.85205 36.0002 6.85205C35.5348 6.85205 35.0779 6.97722 34.6774 7.21444Z" fill="#D4D9E3"/>
<path d="M35.3243 8.4429L20.0703 17.4778H51.9296L36.6756 8.4429C36.471 8.32174 36.2377 8.25781 35.9999 8.25781C35.7622 8.25781 35.5288 8.32174 35.3243 8.4429Z" fill="#E5E9F1"/>
<path d="M14.0767 25.1895H21.4638V27.5313C21.4638 27.6412 21.4201 27.7467 21.3425 27.8243C21.2647 27.9021 21.1592 27.9458 21.0494 27.9458H14.4911C14.3811 27.9458 14.2758 27.9021 14.198 27.8243C14.1203 27.7467 14.0767 27.6412 14.0767 27.5313V25.1895Z" fill="#D4D9E3"/>
<path d="M13.1772 51.3306H22.3633C22.4733 51.3306 22.5788 51.3743 22.6564 51.4519C22.7341 51.5297 22.7779 51.6352 22.7779 51.745V54.0868H12.7627V51.745C12.7627 51.6352 12.8064 51.5297 12.8841 51.4519C12.9618 51.3743 13.0672 51.3306 13.1772 51.3306Z" fill="#D4D9E3"/>
<path d="M20.2438 27.9458H15.2966L14.0767 51.3305H21.4638L20.2438 27.9458Z" fill="#E5E9F1"/>
<path d="M26.23 25.1895H33.6172V27.5313C33.6172 27.6412 33.5736 27.7467 33.4958 27.8243C33.418 27.9021 33.3127 27.9458 33.2027 27.9458H26.6444C26.5346 27.9458 26.4291 27.9021 26.3513 27.8243C26.2736 27.7467 26.23 27.6412 26.23 27.5313V25.1895Z" fill="#D4D9E3"/>
<path d="M25.3306 51.3306H34.5168C34.6266 51.3306 34.7321 51.3743 34.8098 51.4519C34.8875 51.5297 34.9312 51.6352 34.9312 51.745V54.0868H24.916V51.745C24.916 51.6906 24.9267 51.6367 24.9477 51.5864C24.9685 51.5362 24.999 51.4905 25.0374 51.4519C25.0759 51.4135 25.1216 51.3829 25.172 51.3621C25.2222 51.3413 25.2762 51.3306 25.3306 51.3306Z" fill="#D4D9E3"/>
<path d="M32.3971 27.9458H27.4499L26.23 51.3305H33.6172L32.3971 27.9458Z" fill="#E5E9F1"/>
<path d="M38.3828 25.1895H45.77V27.5313C45.77 27.6412 45.7264 27.7467 45.6486 27.8243C45.5709 27.9021 45.4654 27.9458 45.3556 27.9458H38.7972C38.6874 27.9458 38.5819 27.9021 38.5042 27.8243C38.4264 27.7467 38.3828 27.6412 38.3828 27.5313V25.1895Z" fill="#D4D9E3"/>
<path d="M37.4833 51.3306H46.6695C46.7794 51.3306 46.8849 51.3743 46.9625 51.4519C47.0403 51.5297 47.084 51.6352 47.084 51.745V54.0868H37.0688V51.745C37.0688 51.6352 37.1126 51.5297 37.1902 51.4519C37.268 51.3743 37.3734 51.3306 37.4833 51.3306Z" fill="#D4D9E3"/>
<path d="M44.5501 27.9458H39.6029L38.3828 51.3305H45.77L44.5501 27.9458Z" fill="#E5E9F1"/>
<path d="M50.5361 25.1895H57.9234V27.5313C57.9234 27.6412 57.8797 27.7467 57.8019 27.8243C57.7242 27.9021 57.6189 27.9458 57.5089 27.9458H50.9507C50.8407 27.9458 50.7353 27.9021 50.6575 27.8243C50.5799 27.7467 50.5361 27.6412 50.5361 27.5313V25.1895Z" fill="#D4D9E3"/>
<path d="M49.6367 51.3306H58.8229C58.9327 51.3306 59.0382 51.3743 59.116 51.4519C59.1937 51.5297 59.2373 51.6352 59.2373 51.745V54.0868H49.2222V51.745C49.2222 51.6352 49.2659 51.5297 49.3437 51.4519C49.4213 51.3743 49.5268 51.3306 49.6367 51.3306Z" fill="#D4D9E3"/>
<path d="M56.7034 27.9458H51.7562L50.5361 51.3305H57.9233L56.7034 27.9458Z" fill="#E5E9F1"/>
<path d="M11.6392 22.585H60.3606V24.6559C60.3606 24.7974 60.3043 24.9331 60.2043 25.0332C60.1042 25.1332 59.9685 25.1895 59.8269 25.1895H12.1728C12.0313 25.1895 11.8955 25.1332 11.7955 25.0332C11.6954 24.9331 11.6392 24.7974 11.6392 24.6559V22.585Z" fill="#E5E9F1"/>
<path d="M57.5851 17.1169H14.4147C14.0229 17.1169 13.6422 17.2472 13.3326 17.4873C13.0229 17.7274 12.8019 18.0636 12.7043 18.443L11.6392 22.5844H60.3606L59.2953 18.443C59.1978 18.0636 58.9768 17.7274 58.6672 17.4873C58.3575 17.2472 57.9768 17.1169 57.5851 17.1169Z" fill="#E5E9F1"/>
<path d="M60.5938 22.585H11.4058C11.2423 22.585 11.1099 22.7174 11.1099 22.8808V23.0942C11.1099 23.2577 11.2423 23.3902 11.4058 23.3902H60.5938C60.7573 23.3902 60.8897 23.2577 60.8897 23.0942V22.8808C60.8897 22.7174 60.7573 22.585 60.5938 22.585Z" fill="#253E92"/>
<path d="M61.8672 54.0867H10.1323V58.0976H61.8672V54.0867Z" fill="#E5E9F1"/>
<path d="M62.0001 54.0867H9.99953C9.8361 54.0867 9.70361 54.2191 9.70361 54.3825V54.596C9.70361 54.7594 9.8361 54.8919 9.99953 54.8919H62.0001C62.1635 54.8919 62.296 54.7594 62.296 54.596V54.3825C62.296 54.2191 62.1635 54.0867 62.0001 54.0867Z" fill="#D4D9E3"/>
<path d="M63.2734 58.0974H8.72607V62.1083H63.2734V58.0974Z" fill="#E5E9F1"/>
<path d="M63.4063 58.0974H8.59328C8.42985 58.0974 8.29736 58.2299 8.29736 58.3933V58.6068C8.29736 58.7702 8.42985 58.9026 8.59328 58.9026H63.4063C63.5697 58.9026 63.7022 58.7702 63.7022 58.6068V58.3933C63.7022 58.2299 63.5697 58.0974 63.4063 58.0974Z" fill="#D4D9E3"/>
<path d="M63.4063 62.1089H8.59328C8.42985 62.1089 8.29736 62.2414 8.29736 62.4048V62.6181C8.29736 62.7816 8.42985 62.9141 8.59328 62.9141H63.4063C63.5697 62.9141 63.7022 62.7816 63.7022 62.6181V62.4048C63.7022 62.2414 63.5697 62.1089 63.4063 62.1089Z" fill="#D4D9E3"/>
<path d="M36 19.1109C38.2363 19.1109 40.0493 17.2979 40.0493 15.0616C40.0493 12.8252 38.2363 11.0122 36 11.0122C33.7636 11.0122 31.9507 12.8252 31.9507 15.0616C31.9507 17.2979 33.7636 19.1109 36 19.1109Z" fill="#253E92"/>
<path d="M57.5851 17.1169H14.4147C14.0229 17.1169 13.6422 17.2472 13.3326 17.4873C13.0229 17.7274 12.8019 18.0636 12.7043 18.443L11.6392 22.5844H60.3606L59.2953 18.443C59.1978 18.0636 58.9768 17.7274 58.6672 17.4873C58.3575 17.2472 57.9768 17.1169 57.5851 17.1169Z" fill="#D4D9E3"/>
</svg>
