<svg width="20" height="20" viewBox="0 0 20 20" fill="none" xmlns="http://www.w3.org/2000/svg">
    <path fill-rule="evenodd" clip-rule="evenodd"
        d="M5.83331 1.66669H14.1666C15.5474 1.66669 16.6666 2.79262 16.6666 4.18153V17.7541C16.6666 18.0657 16.3407 18.2683 16.0636 18.129L13.706 16.9432C13.4714 16.8252 13.1952 16.8252 12.9606 16.9432L10.3727 18.2449C10.1381 18.3629 9.86191 18.3629 9.6273 18.2449L7.03932 16.9432C6.80472 16.8252 6.52857 16.8252 6.29397 16.9432L3.93632 18.129C3.65928 18.2683 3.33331 18.0657 3.33331 17.7541V4.18153C3.33331 2.79262 4.4526 1.66669 5.83331 1.66669ZM6.66665 5.00002C6.20641 5.00002 5.83331 5.37312 5.83331 5.83335C5.83331 6.29359 6.20641 6.66669 6.66665 6.66669H13.3333C13.7936 6.66669 14.1666 6.29359 14.1666 5.83335C14.1666 5.37312 13.7936 5.00002 13.3333 5.00002H6.66665ZM6.66665 8.33335C6.20641 8.33335 5.83331 8.70645 5.83331 9.16669C5.83331 9.62692 6.20641 10 6.66665 10H13.3333C13.7936 10 14.1666 9.62692 14.1666 9.16669C14.1666 8.70645 13.7936 8.33335 13.3333 8.33335H6.66665ZM6.66665 11.6667C6.20641 11.6667 5.83331 12.0398 5.83331 12.5C5.83331 12.9603 6.20641 13.3334 6.66665 13.3334H13.3333C13.7936 13.3334 14.1666 12.9603 14.1666 12.5C14.1666 12.0398 13.7936 11.6667 13.3333 11.6667H6.66665Z"
        fill="white" />
</svg>