<svg width="25px" height="24px" viewBox="0 0 25 24" fill="none" xmlns="http://www.w3.org/2000/svg">
<g id="coin-exchange">
<path id="Vector" d="M11.6666 9C11.6666 11.2 9.86663 13 7.66663 13C5.46663 13 3.66663 11.2 3.66663 9C3.66663 6.8 5.46663 5 7.66663 5C9.86663 5 11.6666 6.8 11.6666 9Z" stroke="#3535bd" stroke-width="1.5" stroke-linecap="round" stroke-linejoin="round" data-originalstrokecolor="#757575"></path>
<path id="Vector_2" d="M21.6666 15C21.6666 17.2 19.8666 19 17.6666 19C15.4666 19 13.6666 17.2 13.6666 15C13.6666 12.8 15.4666 11 17.6666 11C19.8666 11 21.6666 12.8 21.6666 15Z" stroke="#3535bd" stroke-width="1.5" stroke-linecap="round" stroke-linejoin="round" data-originalstrokecolor="#757575"></path>
<path id="Vector_3" d="M13.6666 4.6C15.0666 4.6 16.4666 5 17.6666 5.7C18.3666 6.1 19.0666 6.6 19.5666 7.2M18.5666 3L19.6666 7.2" stroke="#3535bd" stroke-width="1.5" stroke-linecap="round" stroke-linejoin="round" data-originalstrokecolor="#757575"></path>
<path id="Vector_4" d="M11.6666 19.4C10.2666 19.4 8.86663 19 7.66663 18.3C6.96663 17.9 6.26663 17.4 5.76663 16.8M6.76663 21L5.66663 16.8" stroke="#3535bd" stroke-width="1.5" stroke-linecap="round" stroke-linejoin="round" data-originalstrokecolor="#757575"></path>
</g>
</svg>