<svg width="48" height="48" viewBox="0 0 48 48" fill="none" xmlns="http://www.w3.org/2000/svg">
<path d="M1.21875 33.6094C1.89183 33.6094 2.4375 34.155 2.4375 34.8281V40.2188C2.4375 43.1653 4.83473 45.5625 7.78125 45.5625H13.1719C13.845 45.5625 14.3906 46.1082 14.3906 46.7812C14.3906 47.4543 13.845 48 13.1719 48H7.78125C3.49069 48 0 44.5093 0 40.2188V34.8281C1.9631e-08 34.155 0.545672 33.6094 1.21875 33.6094ZM46.7812 33.6094C47.4543 33.6094 48 34.155 48 34.8281V40.2188C48 44.5093 44.5093 48 40.2188 48H34.8281C34.155 48 33.6094 47.4543 33.6094 46.7812C33.6094 46.1082 34.155 45.5625 34.8281 45.5625H40.2188C43.1653 45.5625 45.5625 43.1653 45.5625 40.2188V34.8281C45.5625 34.155 46.1082 33.6094 46.7812 33.6094ZM30.6934 33.6172C31.2068 33.1431 32.0072 33.1751 32.4814 33.6885C32.9556 34.202 32.9236 35.0023 32.4102 35.4766C30.114 37.5973 27.1275 38.7656 24 38.7656C20.8724 38.7656 17.885 37.5975 15.5889 35.4766C15.0756 35.0023 15.0444 34.2019 15.5186 33.6885C15.9929 33.1751 16.7931 33.143 17.3066 33.6172C19.1337 35.3049 21.5109 36.2344 24 36.2344C26.4891 36.2343 28.8663 35.3049 30.6934 33.6172ZM25.2656 16.8281C25.9646 16.8281 26.5312 17.3948 26.5312 18.0938V27.0938C26.5312 28.8772 25.0803 30.3281 23.2969 30.3281H22.2656C21.5666 30.3281 21 29.7615 21 29.0625C21 28.3635 21.5666 27.7969 22.2656 27.7969H23.2969C23.6846 27.7969 24 27.4815 24 27.0938V18.0938C24 17.3948 24.5666 16.8281 25.2656 16.8281ZM14.2266 16.8281C14.8867 16.8281 15.4219 17.3633 15.4219 18.0234V21.6328C15.4219 22.293 14.8867 22.8281 14.2266 22.8281C13.5664 22.8281 13.0312 22.293 13.0312 21.6328V18.0234C13.0312 17.3633 13.5664 16.8281 14.2266 16.8281ZM34.0547 16.8281C34.7148 16.8281 35.25 17.3633 35.25 18.0234V21.6328C35.25 22.293 34.7148 22.8281 34.0547 22.8281C33.3945 22.8281 32.8594 22.293 32.8594 21.6328V18.0234C32.8594 17.3633 33.3945 16.8281 34.0547 16.8281ZM13.1719 0C13.845 0 14.3906 0.545672 14.3906 1.21875C14.3906 1.89183 13.845 2.4375 13.1719 2.4375H7.78125C4.83473 2.4375 2.4375 4.83469 2.4375 7.78125V13.1719C2.4375 13.845 1.89183 14.3906 1.21875 14.3906C0.545672 14.3906 0 13.845 0 13.1719V7.78125C1.25781e-07 3.49064 3.49069 1.25777e-07 7.78125 0H13.1719ZM40.2188 0C44.5093 0 48 3.49064 48 7.78125V13.1719C48 13.845 47.4543 14.3906 46.7812 14.3906C46.1082 14.3906 45.5625 13.845 45.5625 13.1719V7.78125C45.5625 4.83469 43.1653 2.4375 40.2188 2.4375H34.8281C34.155 2.4375 33.6094 1.89183 33.6094 1.21875C33.6094 0.545672 34.155 1.96309e-08 34.8281 0H40.2188Z" fill="#263872"/>
</svg>
