<svg width="20" height="20" viewBox="0 0 20 20" fill="none" xmlns="http://www.w3.org/2000/svg">
    <g id="gift">
        <path id="Icon" d="M16 10V16.5C16 17.0523 15.5523 17.5 15 17.5H5C4.44772 17.5 4 17.0523 4 16.5V10"
            stroke="black" stroke-width="1.5" stroke-linecap="round" stroke-linejoin="round" />
        <path id="Icon_2"
            d="M16.5 6.25H3.5C2.94772 6.25 2.5 6.69772 2.5 7.25V9C2.5 9.55228 2.94772 10 3.5 10H16.5C17.0523 10 17.5 9.55228 17.5 9V7.25C17.5 6.69772 17.0523 6.25 16.5 6.25Z"
            stroke="black" stroke-width="1.5" stroke-linecap="round" stroke-linejoin="round" />
        <path id="Icon_3" d="M10 17.5V6.25" stroke="black" stroke-width="1.5" stroke-linecap="round"
            stroke-linejoin="round" />
        <path id="Icon_4"
            d="M10.3656 5.08828C10.1283 5.67302 10.5888 6.25 11.2198 6.25H13.375C13.8723 6.25 14.3492 6.05246 14.7008 5.70083C15.0525 5.34919 15.25 4.87228 15.25 4.375C15.25 3.87772 15.0525 3.40081 14.7008 3.04917C14.3492 2.69754 13.8723 2.5 13.375 2.5C11.722 2.5 10.8125 3.98703 10.3656 5.08828Z"
            stroke="black" stroke-width="1.5" stroke-linecap="round" stroke-linejoin="round" />
        <path id="Icon_5"
            d="M9.63439 5.08828C9.87167 5.67302 9.41124 6.25 8.7802 6.25H6.625C6.12772 6.25 5.65081 6.05246 5.29917 5.70083C4.94754 5.34919 4.75 4.87228 4.75 4.375C4.75 3.87772 4.94754 3.40081 5.29917 3.04917C5.65081 2.69754 6.12772 2.5 6.625 2.5C8.278 2.5 9.18749 3.98703 9.63439 5.08828Z"
            stroke="black" stroke-width="1.5" stroke-linecap="round" stroke-linejoin="round" />
    </g>
</svg>