<svg width="20" height="20" viewBox="0 0 20 20" fill="none" xmlns="http://www.w3.org/2000/svg">
    <path
        d="M16.0416 5.62508C16.0416 5.16484 15.6685 4.79175 15.2083 4.79175H4.79159C4.33135 4.79175 3.95825 5.16484 3.95825 5.62508V6.7048C3.95825 7.09124 4.23188 7.41519 4.57516 7.59264C5.44619 8.04288 6.04159 8.95195 6.04159 10.0001C6.04159 11.0482 5.44619 11.9573 4.57516 12.4075C4.23188 12.585 3.95825 12.9089 3.95825 13.2954V14.3751C3.95825 14.8353 4.33135 15.2084 4.79158 15.2084H15.2083C15.6685 15.2084 16.0416 14.8353 16.0416 14.3751V13.2954C16.0416 12.9089 15.768 12.585 15.4247 12.4075C14.5536 11.9573 13.9583 11.0482 13.9583 10.0001C13.9583 8.95195 14.5536 8.04288 15.4247 7.59264C15.768 7.41519 16.0416 7.09124 16.0416 6.7048V5.62508Z"
        stroke="#1F1F1F" stroke-width="1.25" stroke-linecap="round" stroke-linejoin="round" />
</svg>