<svg width="12" height="12" viewBox="0 0 12 12" fill="none" xmlns="http://www.w3.org/2000/svg">
    <rect width="12" height="12" rx="6" fill="#966422" />
    <path
        d="M4.57951 8.5V7.95774H5.86903V5.40515H4.74483V4.86289H6.4642V7.95774H7.68759V8.5H4.57951ZM6.10049 4.20821C5.955 4.20821 5.84038 4.17073 5.75661 4.09579C5.67285 4.02084 5.63097 3.91944 5.63097 3.79159C5.63097 3.65933 5.67285 3.55573 5.75661 3.48078C5.84038 3.40143 5.955 3.36175 6.10049 3.36175C6.24597 3.36175 6.36059 3.40143 6.44436 3.48078C6.52812 3.55573 6.57 3.65933 6.57 3.79159C6.57 3.91944 6.52812 4.02084 6.44436 4.09579C6.36059 4.17073 6.24597 4.20821 6.10049 4.20821Z"
        fill="white" />
</svg>