<svg width="20" height="20" viewBox="0 0 20 20" fill="none" xmlns="http://www.w3.org/2000/svg">
<g id="settings">
<g id="Vector">
<path d="M10.9326 4.67772C10.8757 4.26539 10.5233 3.95825 10.1071 3.95825H9.89299C9.47675 3.95825 9.12434 4.26539 9.06747 4.67772L8.99486 5.20418C8.94853 5.54004 8.70026 5.8074 8.38519 5.9326C8.33834 5.95122 8.29189 5.97062 8.24585 5.99079C7.93518 6.12692 7.57036 6.11526 7.29901 5.91175L7.0427 5.71951C6.71093 5.47069 6.24668 5.50368 5.95344 5.79692L5.79705 5.95332C5.5038 6.24656 5.47081 6.71081 5.71964 7.04257L5.91187 7.29888C6.11538 7.57023 6.12704 7.93506 5.99091 8.24572C5.97074 8.29176 5.95134 8.33821 5.93272 8.38506C5.80752 8.70014 5.54016 8.94841 5.2043 8.99473L4.67784 9.06735C4.26551 9.12422 3.95837 9.47663 3.95837 9.89286V10.107C3.95837 10.5232 4.26551 10.8756 4.67784 10.9325L5.2043 11.0051C5.54016 11.0514 5.80752 11.2997 5.93272 11.6148C5.95134 11.6616 5.97074 11.7081 5.99091 11.7541C6.12704 12.0648 6.11538 12.4296 5.91187 12.7009L5.71963 12.9573C5.47081 13.289 5.5038 13.7533 5.79704 14.0465L5.95344 14.2029C6.24668 14.4962 6.71093 14.5291 7.04269 14.2803L7.29901 14.0881C7.57035 13.8846 7.93518 13.8729 8.24584 14.009C8.29188 14.0292 8.33834 14.0486 8.38519 14.0672C8.70026 14.1924 8.94853 14.4598 8.99486 14.7957L9.06747 15.3221C9.12434 15.7345 9.47675 16.0416 9.89299 16.0416H10.1071C10.5233 16.0416 10.8757 15.7345 10.9326 15.3221L11.0052 14.7957C11.0516 14.4598 11.2998 14.1924 11.6149 14.0672C11.6617 14.0486 11.7082 14.0292 11.7542 14.009C12.0649 13.8729 12.4297 13.8846 12.7011 14.0881L12.9574 14.2803C13.2891 14.5291 13.7534 14.4961 14.0466 14.2029L14.203 14.0465C14.4963 13.7533 14.5293 13.289 14.2804 12.9572L14.0882 12.701C13.8847 12.4296 13.873 12.0648 14.0092 11.7541C14.0293 11.7081 14.0487 11.6616 14.0674 11.6148C14.1926 11.2997 14.4599 11.0514 14.7958 11.0051L15.3222 10.9325C15.7346 10.8756 16.0417 10.5232 16.0417 10.107V9.89287C16.0417 9.47663 15.7346 9.12422 15.3222 9.06735L14.7958 8.99473C14.4599 8.94841 14.1926 8.70014 14.0674 8.38506C14.0487 8.33821 14.0293 8.29176 14.0092 8.24572C13.873 7.93505 13.8847 7.57023 14.0882 7.29888L14.2804 7.04259C14.5293 6.71082 14.4963 6.24658 14.203 5.95333L14.0466 5.79694C13.7534 5.5037 13.2891 5.4707 12.9574 5.71953L12.7011 5.91175C12.4297 6.11526 12.0649 6.12692 11.7542 5.99079C11.7082 5.97062 11.6617 5.95122 11.6149 5.9326C11.2998 5.8074 11.0516 5.54004 11.0052 5.20418L10.9326 4.67772Z" stroke="#1F1F1F" stroke-width="1.25" stroke-linecap="round" stroke-linejoin="round"/>
<path d="M11.0417 9.99992C11.0417 10.5752 10.5753 11.0416 10 11.0416C9.42474 11.0416 8.95837 10.5752 8.95837 9.99992C8.95837 9.42462 9.42474 8.95825 10 8.95825C10.5753 8.95825 11.0417 9.42462 11.0417 9.99992Z" stroke="#1F1F1F" stroke-width="1.25" stroke-linecap="round" stroke-linejoin="round"/>
</g>
</g>
</svg>
