<svg width="240" height="240" viewBox="0 0 240 240" fill="none" xmlns="http://www.w3.org/2000/svg">
    <g id="Astronaut-Going-To-The-Moon--Streamline-Milano">
        <g id="Astronaut-Going-To-The-Moon--Streamline-Milano.svg">
            <g id="Group">
                <path id="Vector"
                    d="M90.8923 94.5187C90.0634 94.0407 89.1307 93.7719 88.1745 93.7353C87.2185 93.6986 86.2678 93.8954 85.4049 94.3085C84.5419 94.7217 83.7925 95.3389 83.2215 96.1065C82.6504 96.8743 82.2749 97.7695 82.1275 98.7148C81.9801 99.6602 82.0651 100.627 82.3751 101.532C82.6852 102.438 83.2111 103.254 83.9072 103.91C84.6033 104.566 85.4488 105.043 86.3707 105.3C87.2925 105.556 88.2628 105.584 89.1979 105.381C90.3578 105.125 91.4134 104.525 92.2267 103.659C93.0399 102.793 93.5729 101.702 93.7561 100.529C93.9392 99.3551 93.7637 98.1536 93.2528 97.0813C92.7418 96.0089 91.9191 95.1158 90.8923 94.5187ZM83.8807 103.448C83.3407 102.882 82.9258 102.209 82.6631 101.472C82.4005 100.736 82.2957 99.9519 82.3559 99.1721C82.4162 98.3923 82.6399 97.6339 83.0125 96.9463C83.3852 96.2587 83.8984 95.6572 84.5188 95.1809C85.1392 94.7048 85.853 94.3646 86.6137 94.1824C87.3742 94.0004 88.1647 93.9805 88.9335 94.124C89.7023 94.2675 90.4324 94.5713 91.0761 95.0156C91.7197 95.4598 92.2627 96.0347 92.6695 96.7027C96.1831 102.448 88.4827 108.257 83.8807 103.448Z"
                    fill="#253E92" />
                <path id="Subtract" fill-rule="evenodd" clip-rule="evenodd"
                    d="M91.7542 97.0404C91.3039 96.3641 90.6851 95.8169 89.9587 95.4528C89.2324 95.0887 88.4237 94.9203 87.6124 94.9644C86.801 95.0084 86.0153 95.2633 85.3326 95.7037C84.6499 96.1442 84.0939 96.7553 83.7195 97.4762C83.3451 98.1973 83.1652 99.0036 83.1976 99.8155C83.23 100.627 83.4736 101.417 83.9043 102.106C84.3349 102.795 84.9379 103.359 85.6535 103.744C86.3692 104.129 87.1728 104.32 87.985 104.299C88.8235 104.286 89.6429 104.047 90.3563 103.606C91.0697 103.165 91.6505 102.54 92.0369 101.795C92.4234 101.051 92.6011 100.216 92.5513 99.3788C92.5016 98.5417 92.2261 97.7336 91.7542 97.0404ZM85.7866 98.7852C86.6657 97.7756 87.6318 96.8453 88.6738 96.0048C88.6766 96.0066 88.6792 96.0089 88.6811 96.0115C88.683 96.0141 88.6844 96.0173 88.6853 96.0205C88.686 96.0237 88.6861 96.0271 88.6856 96.0303C88.685 96.0336 88.684 96.0368 88.6822 96.0396C88.6571 96.1346 88.6156 96.2762 88.5654 96.4472C88.4691 96.7752 88.3411 97.2111 88.237 97.6332C88.0518 98.3885 88.0295 98.3876 87.9211 98.3838C87.913 98.3835 87.9043 98.3832 87.895 98.3832C87.2397 98.4272 86.5478 98.6097 86.1418 98.7169C85.9054 98.7793 85.7658 98.8161 85.7866 98.7852ZM86.1334 99.3192C86.5222 99.7608 86.8702 100.121 87.325 100.567C87.4614 100.666 87.5401 100.348 87.7953 99.315C87.8317 99.1669 87.872 99.0043 87.9166 98.826C87.9616 98.6858 87.8509 98.6925 87.8002 98.6957C87.794 98.696 87.7886 98.6964 87.7846 98.6964C87.1658 98.7627 86.5519 98.8677 85.9462 99.0108C85.8647 99.03 85.9097 99.0779 86.0172 99.1923C86.0506 99.2279 86.0899 99.2697 86.1334 99.3192ZM86.8402 103.008C86.2618 101.903 85.8596 100.715 85.6486 99.486C85.7094 99.486 85.8932 99.7087 86.1689 100.043C86.4377 100.369 86.794 100.8 87.2086 101.234C87.1566 101.838 87.033 102.434 86.8402 103.008ZM87.6386 101.341C87.544 101.394 87.5044 101.545 87.3601 102.097C87.2957 102.343 87.2102 102.669 87.0898 103.103C88.1384 102.465 89.1022 101.696 89.9578 100.816C90.2116 100.551 90.0613 100.602 89.5243 100.784C89.1424 100.913 88.5648 101.108 87.7978 101.303L87.7785 101.306C87.7182 101.314 87.6745 101.32 87.6386 101.341ZM88.5664 98.5853C88.4713 98.5232 88.4231 98.4918 88.4043 98.4477C88.3847 98.4024 88.3962 98.3437 88.4196 98.2247C88.424 98.2025 88.4287 98.1782 88.4338 98.1516C88.4638 97.9968 88.8538 96.2136 88.8862 96.0936C88.9186 95.9736 88.9414 96.0132 88.9534 96.0432C89.1286 96.4716 89.9062 99.3588 89.9062 99.3588L89.9431 99.4881C90.0452 99.8456 90.0595 99.8958 89.9482 99.7812C89.1724 98.9808 88.766 98.7156 88.5664 98.5853ZM87.8326 100.53C87.7786 100.747 87.811 100.796 89.251 100.363C89.3096 100.345 89.3639 100.329 89.4136 100.314C89.9136 100.165 89.9675 100.149 89.7406 99.9276C89.3246 99.5139 88.8688 99.1425 88.3798 98.8188C88.2457 98.7423 88.2242 98.8375 88.0789 99.4808C88.0212 99.7363 87.944 100.078 87.8326 100.53Z"
                    fill="#253E92" />
                <path id="Vector_2"
                    d="M17.3864 180.287C17.0384 180.751 17.294 181.444 17.9684 180.694C19.0892 179.449 22.6484 174.777 34.6052 158.748C34.8824 158.376 34.8092 158.581 36.104 159.575C36.6284 159.977 38.3936 157.341 19.4168 183.898C18.8816 184.647 19.574 184.915 20.0564 184.231L33.0464 165.849C38.678 157.855 35.672 160.778 40.2464 160.872C42.2444 160.639 42.9824 160.752 44.0276 159.157C44.0528 159.12 43.988 159.025 43.9628 158.955C43.448 159.26 43.268 160.622 39.6788 160.316C39.0411 160.265 38.415 160.116 37.8224 159.875C37.088 159.571 36.392 161.315 49.0172 143.187C49.5908 142.363 49.0868 142.215 48.5972 142.892C45.4028 147.305 39.3572 155.817 37.0532 159.108C36.7844 159.493 36.7352 159.403 35.414 158.108C35.0024 157.704 35.222 158.342 47.4404 141.621C47.9384 140.94 47.4932 140.789 47.1752 141.171C46.3664 142.146 40.658 149.619 40.5752 149.723C34.5752 157.494 34.8884 157.523 34.5848 156.997C32.7848 153.846 35.3048 150.945 36.5564 152.028C37.0256 152.435 36.6464 152.778 36.7208 152.875C36.8408 153.012 37.0136 153.185 37.1528 152.984C38.1764 151.515 35.7908 150.401 34.4252 151.784C33.7067 152.567 33.2875 153.577 33.2419 154.638C33.1962 155.699 33.5269 156.741 34.1756 157.583C34.5608 158.139 34.8536 156.881 17.3864 180.287Z"
                    fill="#253E92" />
                <path id="Vector_3"
                    d="M22.504 187.613C23.1432 187.555 23.7445 187.285 24.2112 186.844C24.6778 186.403 24.9828 185.819 25.0768 185.184C25.1104 184.325 24.5476 183.064 24.328 183.24C24.1084 183.417 24.292 183.611 24.4072 184.59C24.5668 185.932 23.7712 186.24 22.8844 186.803C22.2196 187.224 21.1624 185.766 21.3244 187.275C21.3361 188.02 21.1856 188.759 20.8834 189.441C20.5814 190.122 20.1349 190.731 19.5748 191.223C18.2296 192.377 16.066 191.273 16.1032 187.805C16.1032 187.445 15.6832 187.417 15.4312 187.702C11.1844 192.495 6.25364 185.77 12.0484 181.822C12.3964 181.589 12.8134 181.482 13.2304 181.519C13.5172 181.519 13.6744 181.725 13.8928 181.827C14.2396 181.99 14.5696 181.623 14.3728 181.36C13.9156 180.736 13.5328 180.61 13.4764 179.586C13.3708 177.426 15.8392 175.386 17.4364 176.935C17.752 177.185 17.4364 177.769 17.7664 177.792C17.9296 177.792 17.9476 177.672 17.9968 177.543C18.4324 176.38 16.9168 175.439 15.6964 175.699C15.2056 175.822 14.7438 176.04 14.3373 176.341C13.9308 176.641 13.5876 177.021 13.3273 177.454C13.067 177.887 12.8947 178.368 12.8202 178.869C12.7456 179.369 12.7705 179.879 12.8932 180.37C13.0324 180.87 12.7864 180.642 12.1156 180.96C11.2441 181.397 10.4861 182.032 9.90134 182.812C9.31659 183.592 8.92109 184.498 8.74604 185.457C8.36804 188.777 11.224 191.097 13.7704 189.819C15.106 189.149 15.184 188.722 15.3688 189.267C17.0752 194.307 20.3668 192.365 21.3688 190.078C22.504 187.469 21.532 187.638 22.504 187.613Z"
                    fill="#253E92" />
                <path id="Vector_4"
                    d="M121.306 96.1197C118.241 95.5857 109.528 94.0173 108.291 94.5153C107.403 94.7951 106.632 95.3594 106.096 96.121C105.561 96.8826 105.291 97.7995 105.328 98.7297C105.314 98.9553 105.255 99.1797 105.256 99.4017C105.256 99.7089 105.317 100.016 105.331 100.324C105.383 101.524 105.303 102.724 105.451 103.932C106.337 111.278 103.107 111.372 116.845 112.992C118.927 113.232 125.587 114.072 127.499 113.276C130.76 111.931 130.689 109.516 130.689 105.99H130.761C130.201 97.2345 130.624 97.7481 121.306 96.1197ZM127.976 111.726C122.781 111.594 117.603 111.07 112.487 110.16C109.623 109.51 108.307 109.825 107.972 108.314C107.517 104.353 107.35 100.365 107.471 96.3801C107.669 94.6737 108.508 94.4205 120.962 96.6525C128.74 98.0469 129.287 98.1969 129.675 100.492C130.013 102.346 130.144 104.231 130.065 106.113C130.061 108.508 130.359 111.608 127.976 111.729V111.726Z"
                    fill="#253E92" />
                <path id="Vector_5"
                    d="M95.6411 89.3263C93.0179 88.2919 85.0571 89.4811 82.2587 89.9263C81.929 89.9609 81.6181 90.0966 81.3686 90.3149C81.1191 90.5332 80.9435 90.8233 80.8655 91.1455C80.3347 94.2939 79.9741 97.4685 79.7855 100.656C79.7243 109.932 79.7363 110.84 80.8655 110.718C81.8771 110.608 82.6139 110.598 83.3327 110.503C97.0751 108.77 96.7367 110.826 97.2395 109.339C97.7711 107.768 97.8575 95.5171 96.5927 90.5659C96.5463 90.2977 96.4356 90.0447 96.2698 89.8288C96.104 89.6128 95.8883 89.4405 95.6411 89.3263ZM96.5051 108.859C96.4307 109.66 96.3479 108.45 86.9159 109.153C82.8839 109.454 80.8919 110.342 80.7527 109.531C80.3003 106.92 80.5535 91.1995 82.0163 90.7327C85.3548 90.0672 88.7476 89.7109 92.1515 89.6683C95.6483 89.6683 95.8943 89.8855 96.2255 92.6683C96.9959 98.0322 97.0882 103.472 96.5003 108.859H96.5051Z"
                    fill="#253E92" />
                <path id="Vector_6"
                    d="M35.5405 193.153C34.4257 193.123 35.3149 194.233 35.1481 194.492C34.6489 194.044 32.9881 192.297 32.4805 192.742C32.3341 192.872 32.5201 193.086 32.8153 193.308C35.5189 195.348 36.0613 197.757 36.6265 197.37C37.2445 196.945 36.1525 195.493 35.8225 194.304C35.6593 193.714 38.3209 196.846 37.8733 195.783C37.4345 194.656 36.6069 193.723 35.5405 193.153Z"
                    fill="#253E92" />
                <path id="Vector_7"
                    d="M122.066 104.443C121.994 106.784 124.256 108.345 126.008 107.366C126.48 107.096 126.88 106.715 127.173 106.257C127.466 105.798 127.643 105.275 127.689 104.733C127.736 104.191 127.649 103.646 127.438 103.144C127.227 102.643 126.897 102.2 126.477 101.854C124.905 100.451 122.16 101.521 122.066 104.443ZM122.678 104.972C122.176 102.904 124.26 100.741 126.174 102.225C126.473 102.482 126.708 102.804 126.863 103.167C127.018 103.529 127.088 103.922 127.066 104.315C127.142 107.351 123.464 108.218 122.678 104.972Z"
                    fill="#253E92" />
                <path id="Vector_8"
                    d="M112.023 100.296C111.869 100.776 114.469 100.831 118.973 101.263C119.158 101.281 119.258 101.111 119.093 100.963C118.538 100.457 112.231 99.6611 112.023 100.296Z"
                    fill="#253E92" />
                <path id="Vector_9"
                    d="M117.925 102.396C113.748 101.926 113.273 101.871 113.327 102.237C113.376 102.579 114.16 102.534 114.993 102.645C118.565 103.125 118.781 103.323 118.908 103.065C119.015 102.847 118.417 102.451 117.925 102.396Z"
                    fill="#253E92" />
                <path id="Vector_10"
                    d="M114.626 104.135C114.157 104.11 114.089 104.588 114.589 104.634C117.634 104.918 119.348 105.302 118.718 104.594C118.603 104.465 114.821 104.146 114.626 104.135Z"
                    fill="#253E92" />
                <path id="Vector_11"
                    d="M94.0015 92.5735C94.1647 92.4631 94.4477 92.4403 94.3506 92.1584C94.2234 91.7914 93.5949 92.294 93.6021 91.7662C93.6021 91.4616 93.6513 91.0825 93.457 91.0465C93.2627 91.0106 93.1835 91.296 93.1151 91.5455C93.024 91.8778 93.0924 91.795 92.3127 91.4256C92.2635 91.8502 93.0324 92.0805 92.4698 92.2652C92.2803 92.3264 92.0956 92.4019 91.9109 92.4727C92.0464 92.7474 92.3031 92.6442 92.5178 92.6598C93.1415 92.703 92.9052 92.8613 92.9772 93.3183C93.0012 93.4659 92.9028 93.6782 93.1067 93.7285C93.1619 93.7405 93.3107 93.5042 93.3574 93.3687C93.4558 93.0652 93.5362 93.1888 93.7964 93.2859C94.0459 93.3207 94.1191 93.2296 94.0459 93.0065C93.9992 92.8613 93.7844 92.7198 94.0015 92.5735Z"
                    fill="#253E92" />
                <path id="Vector_12"
                    d="M83.8937 106.122C84.2032 105.822 83.8193 105.669 83.6238 105.771C83.2004 105.99 83.294 105.531 83.1596 105.338C83.0986 105.266 83.0307 105.201 82.9569 105.144C82.7074 105.448 82.807 105.194 82.693 106.095C82.3908 106.02 81.8534 105.821 82.0333 106.095C82.2804 106.481 82.5767 106.42 82.1761 106.884C82.1533 106.909 81.9578 107.075 82.0429 107.189C82.2492 107.465 82.8825 106.63 83.0121 107.219C83.0645 107.347 83.1343 107.468 83.2196 107.578C83.2916 107.478 83.3647 107.424 83.3719 107.364C83.4235 106.884 84.1972 107.33 84.2355 107.046C84.3087 106.504 83.2388 106.757 83.8937 106.122Z"
                    fill="#253E92" />
                <path id="Vector_13"
                    d="M86.887 91.71C86.7767 91.6548 86.6375 91.5349 86.5847 91.5648C86.2945 91.7316 86.1337 91.656 86.0126 91.3597C85.9694 91.253 85.7835 91.2494 85.7631 91.3597C85.7103 91.8119 85.4656 91.6092 85.0146 91.6092C85.3289 92.1814 85.6528 92.1634 85.4165 92.4632C85.3367 92.5784 85.2947 92.7155 85.2965 92.8555C85.3685 92.8411 85.4561 92.8555 85.5112 92.8111C85.648 92.7127 85.7967 92.5604 85.9178 92.7859C86.1685 93.2477 86.1313 92.6468 86.5895 92.8327C86.9722 92.9886 86.977 92.5832 86.839 92.504C86.4 92.1958 86.7143 92.047 86.887 91.71Z"
                    fill="#253E92" />
                <path id="Vector_14"
                    d="M90.922 105.986C90.8597 105.843 90.8117 105.597 90.6198 105.661C90.3871 105.737 90.5238 105.958 90.5574 106.13C90.6594 106.655 90.5778 106.559 90.2695 106.767C90.6642 107.323 90.4495 106.976 90.4495 107.486C91.084 107.441 90.7265 106.967 91.2891 107.699C91.3682 107.339 91.3119 107.202 91.6813 107.114C92.3386 106.959 91.7053 106.644 91.4306 106.173C91.409 106.122 91.1463 106.496 90.922 105.986Z"
                    fill="#253E92" />
                <path id="Vector_15"
                    d="M95.6121 98.9452C95.6876 98.7965 95.0771 98.6957 94.9356 98.2915C94.8936 98.1715 94.8828 98.1811 94.7113 98.042C94.5158 98.2915 94.6609 98.6885 94.2615 98.8312C94.3071 99.0231 94.3514 99.2127 94.391 99.377C94.2315 99.5701 94.2819 99.6673 94.4486 99.744C94.7377 99.8772 94.8504 100.145 94.9859 99.8748C95.1215 99.6049 95.4177 99.9047 95.5221 99.8568C95.5906 99.806 95.6434 99.737 95.6744 99.6577C95.4249 99.4406 95.4825 99.2031 95.6121 98.9452Z"
                    fill="#253E92" />
                <path id="Subtract_2" fill-rule="evenodd" clip-rule="evenodd"
                    d="M176.932 124.848C177.396 124.95 177.854 125.084 178.303 125.249C178.465 125.284 178.613 125.364 178.73 125.48C178.848 125.597 178.93 125.744 178.967 125.905C179.004 126.066 178.994 126.235 178.94 126.39C178.885 126.546 178.787 126.684 178.657 126.786C178.015 127.201 177.103 127.198 176.698 127.196C176.474 127.195 176.404 127.195 176.617 127.266C176.771 127.296 176.915 127.363 177.037 127.459C177.161 127.556 177.259 127.68 177.325 127.822C177.391 127.964 177.422 128.119 177.416 128.275C177.412 128.432 177.37 128.585 177.294 128.721C177.046 128.997 176.743 129.219 176.405 129.374C176.068 129.529 175.702 129.613 175.331 129.621C175.008 129.661 174.889 129.661 174.887 129.676C174.883 129.703 175.254 129.779 175.513 130.221C175.996 131.711 172.16 131.635 170.615 131.459C168.977 131.951 167.224 131.897 165.618 131.306C165.394 131.445 165.19 131.614 165.008 131.805C164.477 132.527 163.682 133.013 162.798 133.157C162.554 133.248 162.4 133.471 162.205 133.751C161.704 134.474 160.934 135.583 157.679 135.842C157.415 135.864 157.13 136.085 156.768 136.368C156.192 136.818 155.414 137.424 154.199 137.627C153.646 137.718 153.211 137.681 152.833 137.647C152.354 137.605 151.967 137.572 151.548 137.819C150.764 138.28 149.897 138.58 148.996 138.701C148.096 138.822 147.179 138.763 146.302 138.526C145.969 138.436 145.678 138.619 145.284 138.868C144.716 139.224 143.935 139.715 142.512 139.715C141.586 139.83 140.645 139.672 139.807 139.257C139.447 139.003 139.279 139.052 138.878 139.169C138.352 139.322 137.42 139.595 135.113 139.447C133.756 139.361 132.905 138.812 132.425 138.503C132.086 138.285 131.933 138.186 131.915 138.449C131.85 139.411 131.827 139.949 131.692 140.456C131.484 141.238 131.01 141.949 129.712 144.036C129.497 144.383 129.514 144.46 129.575 144.732C129.646 145.043 129.774 145.61 129.677 147.13C129.644 147.641 129.788 147.829 129.943 148.032C130.274 148.465 130.656 148.965 129.469 152.841C129.197 153.732 128.863 154.597 128.531 155.46C128.322 156.002 128.114 156.542 127.921 157.088C127.772 157.432 127.54 157.732 127.242 157.958C126.686 158.45 126.233 158.457 125.881 158.463C125.654 158.467 125.471 158.47 125.33 158.6C125.256 158.669 125.317 158.742 125.44 158.886C125.674 159.16 126.128 159.694 126.272 160.954C126.191 162.296 125.789 163.601 125.098 164.755C124.877 165.185 124.764 165.378 124.794 165.546C124.824 165.709 124.993 165.847 125.338 166.159C125.81 166.6 126.157 167.16 126.341 167.779C126.524 168.399 126.539 169.057 126.382 169.685C126.112 171.162 125.351 172.505 124.222 173.494C123.916 173.809 124.081 173.927 124.404 174.155C124.855 174.474 125.614 175.009 125.8 176.613C125.773 177.369 125.574 178.11 125.219 178.778C124.864 179.445 124.361 180.024 123.749 180.469C123.134 180.918 123.234 181.016 123.439 181.22C123.458 181.238 123.479 181.259 123.499 181.28C124.022 181.7 124.393 182.279 124.555 182.929C124.717 183.579 124.662 184.265 124.398 184.88C123.88 185.971 123.086 186.908 122.098 187.601C121.92 187.76 122.086 187.964 122.318 188.251C122.632 188.636 123.066 189.169 122.945 189.944C122.446 193.126 120.948 194.048 119.945 194.666C119.518 194.929 119.181 195.137 119.05 195.44C116.536 201.24 105.934 209.899 98.5474 215.933C94.2392 219.451 91.0245 222.077 91.146 222.721C91.662 225.456 89.9413 232.556 88.398 233.023C88.2476 233.069 88.1922 233.138 88.1234 233.223C87.974 233.41 87.7606 233.676 86.3773 233.96C82.4521 234.768 76.0332 223.757 74.532 219.761L74.427 219.481C72.61 214.641 72.2588 213.707 73.812 212.681C74.1255 212.474 74.2648 212.076 74.4395 211.576C74.7164 210.782 75.0821 209.736 76.3704 208.796C78.2926 207.393 78.4215 206.742 78.6536 205.567C78.9614 204.009 79.4506 201.533 84.5388 195.172C86.5054 192.712 88.0113 191.131 91.046 187.946C91.4814 187.489 91.9485 186.998 92.4529 186.468C92.6892 186.219 92.653 186.197 92.362 186.01C92.1392 185.867 91.7667 185.627 91.2528 185.117C90.5122 184.382 90.8787 183.641 91.3661 182.653C91.426 182.532 91.4876 182.407 91.5492 182.279C91.7941 181.768 91.7152 181.733 91.3018 181.549C90.9046 181.373 90.1988 181.06 89.1744 180.055C88.0404 178.944 88.4652 177.576 89.142 175.896C89.3734 175.321 89.1521 175.153 87.7006 174.053C87.6536 174.017 87.6052 173.979 87.5556 173.942C86.1828 172.898 86.067 171.868 86.0006 171.276C85.9585 170.9 85.9361 170.701 85.6273 170.785C84.8642 170.992 84.1808 171.059 83.5973 171.116C82.535 171.222 81.8046 171.294 81.5304 172.115C81.4685 172.303 81.4344 172.539 81.3957 172.807C81.2618 173.732 81.0728 175.039 79.4904 176.092C78.8589 176.51 78.4556 176.537 77.0723 176.63C76.968 176.638 76.8584 176.645 76.7424 176.653C76.3044 176.683 76.302 176.69 76.3644 177.118C76.59 178.642 75.738 180.2 72.618 180.512C72.3812 180.536 72.386 180.709 72.3934 180.972C72.4121 181.63 72.4468 182.857 68.7612 183.761L68.7474 183.764C68.1298 183.914 67.7151 184.015 67.5888 184.415C67.3631 184.962 66.9951 185.44 66.5229 185.796C66.0506 186.154 65.4914 186.377 64.9032 186.445C64.3079 186.571 64.1048 186.824 63.8078 187.195C63.5145 187.56 63.1296 188.04 62.1852 188.624C46.6994 198.202 42.7668 199.543 40.9193 200.173C39.8904 200.523 39.5082 200.654 38.1372 201.864C35.4504 204.231 28.9584 208.449 26.2104 208.609C22.7388 208.809 20.4228 204.51 22.2384 199.658C24.5319 193.532 27.4528 191.441 29.0075 190.327C29.5328 189.952 29.9021 189.688 30.0384 189.416C33.2606 183.011 38.3015 176.959 40.6943 174.086C41.2227 173.452 41.622 172.973 41.844 172.679C42.8084 171.403 43.575 171.056 44.1268 170.807C44.5563 170.614 44.8557 170.478 45.0168 170.009C45.1862 169.508 45.4694 169.055 45.8442 168.681C46.2191 168.309 46.6754 168.03 47.1768 167.864C47.5342 167.748 47.5323 167.737 47.4557 167.336L47.4516 167.315C47.3145 166.57 47.3691 165.8 47.61 165.081C47.6807 164.963 47.811 164.846 47.9517 164.722C48.3414 164.375 48.8118 163.957 48.3216 163.191C48.0202 161.621 48.1593 159.996 48.7236 158.499C49.1038 157.319 49.931 156.894 50.5667 156.569C51.047 156.323 51.4179 156.133 51.4044 155.714C51.3252 153.314 51.4032 150.842 53.4024 149.474C53.9934 149.07 54.434 148.826 54.7611 148.645C55.3838 148.3 55.5954 148.183 55.6512 147.618C55.6866 147.257 55.7062 146.906 55.7253 146.563C55.8221 144.827 55.9074 143.298 57.984 141.635C58.1634 141.492 58.3192 141.384 58.4441 141.299C58.7806 141.068 58.8941 140.99 58.6464 140.766C58.4062 140.548 58.2144 140.358 58.0559 140.202C57.6872 139.838 57.4977 139.652 57.2928 139.679C57.0736 139.708 56.8367 139.982 56.3442 140.555C55.9906 140.965 55.505 141.529 54.7992 142.265C52.1868 144.988 47.1072 135.522 48.2364 132.607C48.942 130.929 49.7774 129.311 50.7348 127.763C51.5048 127.099 51.4748 126.281 51.4228 124.868C51.2837 121.081 50.9876 113.019 65.508 92.2007C68.4755 87.9616 71.6807 83.8938 75.108 80.0171C85.8137 67.8681 95.9506 67.8862 99.5824 67.8927C100.477 67.8942 100.976 67.8952 100.993 67.7135C101.081 67.4295 101.092 67.1273 101.026 66.8374C100.96 66.5476 100.819 66.2802 100.616 66.0623C98.9064 64.1423 100.44 56.9039 103.654 55.0223C103.984 54.8289 104.214 54.4563 104.547 53.9154C105.19 52.8726 106.217 51.2049 109.094 48.9923C111.491 47.3628 114.273 46.3912 117.163 46.1747C123.442 45.2543 130.657 48.6707 134.308 53.0759C136.54 55.7688 136.837 57.7212 137.014 58.8797C137.077 59.2977 137.125 59.6123 137.243 59.8211C140.476 65.5535 138.241 73.4651 134.822 76.4735C134.095 77.1137 133.922 77.6728 133.693 78.4127C133.373 79.4524 132.941 80.8493 130.705 83.3303C129.964 84.1548 129.251 84.5676 128.843 84.8049C128.369 85.0793 128.302 85.1188 129.06 85.2887C130.969 85.7173 131.563 86.9003 132.014 87.7999C132.322 88.4113 132.563 88.8921 133.106 88.9163C134.182 89.3861 135.101 90.1527 135.756 91.126C136.411 92.0994 136.775 93.2393 136.806 94.4123C136.792 94.6935 136.937 94.7847 137.29 95.0071C137.562 95.1797 137.962 95.4311 138.508 95.9111C139.118 96.4891 139.556 97.2257 139.772 98.0385C139.988 98.8511 139.975 99.708 139.732 100.513C139.601 100.931 139.897 101.314 140.294 101.828C140.874 102.577 141.666 103.602 141.658 105.414C141.655 105.996 141.54 106.382 141.449 106.692C141.305 107.175 141.215 107.478 141.683 108.062C143.722 110.602 142.952 112.158 142.48 113.117C142.248 113.586 142.087 113.911 142.36 114.139C143.11 114.704 143.672 115.481 143.977 116.37C144.281 117.258 144.312 118.218 144.066 119.124C143.987 119.566 144.149 119.578 144.563 119.609C144.907 119.634 145.424 119.673 146.124 119.981C146.663 120.218 146.976 120.399 147.186 120.521C147.515 120.711 147.593 120.757 147.895 120.644C148.64 120.361 149.448 120.289 150.232 120.434C151.014 120.581 151.742 120.939 152.335 121.471C152.423 121.55 152.506 121.637 152.588 121.722C152.92 122.069 153.24 122.403 153.859 122.205C155.144 122.089 156.422 122.488 157.414 123.313C157.475 123.382 157.556 123.428 157.646 123.448C157.736 123.467 157.83 123.457 157.914 123.42C158.959 123.03 159.792 123.511 160.373 123.847C160.687 124.03 160.927 124.169 161.087 124.102C161.51 124.002 161.95 123.988 162.378 124.06C162.808 124.133 163.217 124.29 163.584 124.524C163.914 122.679 164.79 120.975 166.098 119.633C166.222 119.5 166.378 119.403 166.552 119.352C166.726 119.301 166.909 119.298 167.084 119.343C167.611 119.541 167.606 120.537 167.455 121.547C167.112 121.825 166.804 122.076 166.526 122.303C166.927 120.269 167.003 119.169 165.545 121.397C165.06 122.226 164.702 123.114 164.477 124.031C164.388 124.115 164.315 124.189 164.256 124.254C164.01 124.521 163.867 124.721 164.236 125.448C164.126 126.583 164.214 127.739 164.503 128.863C164.645 129.329 164.903 129.75 165.252 130.088C165.602 130.425 166.032 130.669 166.502 130.794C167.796 131.167 169.164 131.197 170.472 130.882C170.593 130.882 170.788 130.891 171.028 130.903C172.088 130.958 174.064 131.058 174.84 130.57C174.9 130.521 174.95 130.479 174.95 130.435C174.492 129.887 172.361 129.751 171.593 129.702C171.518 129.697 171.456 129.693 171.41 129.69C171.323 129.684 171.24 129.642 171.182 129.576C171.125 129.509 171.096 129.422 171.103 129.335C171.109 129.246 171.15 129.164 171.217 129.107C171.283 129.049 171.371 129.02 171.458 129.026C173.096 129.182 174.75 129.05 176.342 128.634C177.292 128.149 176.351 127.843 175.793 127.692C175.117 127.496 174.425 127.364 173.726 127.298C173.89 127.175 174.047 127.056 174.197 126.939C174.299 126.86 174.4 126.782 174.499 126.707C175.262 126.721 176.287 126.691 177.656 126.512H177.652C177.926 126.48 178.348 126.398 178.381 126.162C178.447 125.749 177.212 125.48 176.279 125.345C176.507 125.171 176.724 125.005 176.932 124.848ZM128.671 83.8475C130.553 82.4651 131.976 80.5507 132.758 78.3515L132.768 78.3503C132.81 78.2483 132.718 78.1163 132.551 78.1715C130.963 78.9741 129.222 79.4293 127.445 79.5071C119.468 80.1599 111.679 75.5963 108.582 69.0671C108.074 67.9941 107.88 67.2318 107.766 66.7843C107.642 66.3006 107.613 66.1847 107.382 66.4415C107.329 66.5002 107.269 66.5735 107.2 66.6569C106.69 67.2763 105.729 68.4436 104.172 68.1527C103.454 67.9749 102.752 67.7364 102.074 67.4399C101.802 67.3859 101.827 68.0171 101.872 68.2679C103.153 75.3923 105.982 78.2735 110.818 81.0719C114.802 83.3371 119.238 84.6947 123.808 85.0475C124.158 85.0096 124.487 84.9781 124.794 84.9486C126.505 84.7843 127.612 84.6783 128.671 83.8475ZM116.431 86.4627C111.695 85.2111 106.781 83.9124 104.809 79.3511L104.822 79.3415C104.579 78.8647 104.46 78.3345 104.477 77.7995C104.482 77.5589 104.518 77.4599 104.513 77.3629C104.504 77.1726 104.338 76.99 103.478 75.7595C103.069 75.5916 102.618 75.552 102.186 75.6459C101.754 75.7397 101.36 75.9627 101.057 76.2851C100.32 77.4983 100.93 79.6823 101.65 80.8067C102.816 82.8527 104.521 84.5393 106.58 85.6823C112.135 89.0663 125.04 92.3291 126.676 86.0495C126.75 85.7627 126.65 85.6511 126.373 85.6895C126.352 85.6926 126.314 85.6968 126.266 85.7023C125.9 85.744 124.877 85.8607 124.674 86.1395C124.085 86.9507 122.07 87.3527 121.057 87.2711C119.768 87.1389 118.486 86.9386 117.217 86.6711C116.956 86.6014 116.694 86.532 116.431 86.4627ZM105.478 78.3538C105.623 78.4469 105.763 78.55 105.894 78.6623C109.156 81.8039 115.301 84.4727 119.454 85.3463C120.458 85.5581 121.519 85.6751 122.327 85.7643C123.982 85.9467 124.576 86.0122 121.453 86.5355C117.241 86.2027 113.136 85.0379 109.376 83.1083C106.168 81.3691 105.251 78.6553 105.478 78.3538ZM106.673 55.4807C106.548 55.4207 106.44 55.5239 106.528 55.6715V55.6799C107.84 57.8723 106.921 61.9199 105.649 64.1999C105.12 65.2535 104.313 66.1426 103.315 66.7715C103.007 67.0271 103.62 67.2515 104.008 67.3715C104.27 67.4921 104.561 67.5389 104.848 67.5067C105.136 67.4746 105.409 67.3648 105.638 67.1891C107.603 65.5199 108.866 61.8491 108.841 59.1407C108.826 57.4007 108.604 56.2079 106.673 55.4807ZM120.778 68.2043C121.039 68.0779 121.307 67.9669 121.582 67.8719V67.8779C121.652 67.8558 121.728 67.8504 121.801 67.8623C121.874 67.8741 121.944 67.9027 122.004 67.9459C122.064 67.9893 122.114 68.0459 122.149 68.1115C122.184 68.1773 122.202 68.25 122.204 68.3243C122.131 69.1055 121.918 69.8671 121.576 70.5731C120.767 72.8645 119.516 74.4449 118.704 75.4707C118.039 76.311 117.669 76.7791 118.078 76.9607C119.529 77.5955 121.043 78.0781 122.594 78.4007C122.724 78.4305 122.861 78.4147 122.98 78.3562C123.1 78.2977 123.196 78.1999 123.252 78.0791C127.283 71.7059 128.171 66.0527 128.07 63.9971C128.05 63.6131 127.729 63.9388 127.342 64.3308C126.667 65.0155 125.792 65.9023 125.975 63.5627C126.382 60.3745 126.542 57.1599 126.455 53.9471C126.454 53.9193 126.452 53.8925 126.451 53.8668C126.427 53.3657 126.424 53.2756 123.016 53.0975C122.538 53.0987 122.066 53.1335 121.586 53.1755C121.244 53.2049 121.284 53.4466 121.386 54.0706C121.463 54.5421 121.576 55.2316 121.586 56.2127C121.656 62.5054 120.449 65.9573 119.899 67.5281C119.465 68.7673 119.441 68.8356 120.778 68.2043ZM122.084 47.1023C118.87 46.5683 113.182 47.2787 109.822 49.6007L109.816 49.6067C108.071 50.8127 105.737 53.1983 105.384 54.4799C106.136 54.4683 106.88 54.64 107.551 54.9804C108.221 55.3209 108.799 55.8196 109.234 56.4335C109.462 56.8011 109.882 56.5029 110.692 55.9277C112.403 54.7128 115.854 52.2621 122.922 52.2335C125.044 52.2411 127.151 52.5904 129.162 53.2679C132.877 54.4919 134.473 56.3263 135.35 57.334C135.68 57.7134 135.908 57.9756 136.109 58.0439C135.869 56.9484 135.427 55.9073 134.804 54.9743C131.753 50.7919 127.189 47.9671 122.084 47.1023ZM105.862 56.2235C104.516 53.6099 100.783 58.9763 100.866 63.1247L100.86 63.1307C100.921 66.3431 102.178 66.6815 103.289 65.8235C105.661 63.9779 107.134 58.6907 105.862 56.2235ZM54.2064 141.616C54.9592 140.875 55.6439 140.067 56.2524 139.205L56.2464 139.211C56.5872 138.72 56.5836 138.707 56.244 138.247C53.2796 134.327 52.4987 131.244 52.061 129.517C51.8907 128.845 51.7724 128.377 51.5976 128.146C50.4791 129.848 49.5573 131.671 48.8496 133.582C49.2957 136.252 50.4363 138.758 52.1568 140.849C52.4403 141.178 52.7664 141.465 53.1264 141.708C53.2884 141.823 53.4857 141.876 53.6834 141.859C53.881 141.842 54.0664 141.756 54.2064 141.616ZM55.1604 111.796C52.8771 116.498 51.9267 121.736 52.4124 126.942L52.4016 126.948C52.9608 133.999 59.7516 142.372 60.402 139.982C60.3707 138.428 60.7044 136.888 61.3764 135.486C62.7749 133.133 63.9104 132.582 64.3966 132.346C64.6672 132.215 64.7367 132.181 64.5384 131.988C64.18 131.623 63.9515 131.152 63.8884 130.644C63.8253 130.136 63.931 129.623 64.1892 129.181C64.5434 128.352 64.8519 127.614 65.1262 126.957C66.8534 122.824 67.2286 121.926 69.138 121.991C69.438 122 69.4353 121.85 69.4271 121.418C69.4211 121.101 69.4122 120.633 69.5172 119.967C69.8894 117.623 70.6618 116.481 71.2302 115.64C71.6242 115.058 71.9202 114.62 71.9172 114.028C71.8773 111.71 72.3021 109.408 73.1664 107.257C73.4153 106.469 73.8026 105.731 74.31 105.079C74.4624 104.914 74.5703 104.712 74.6237 104.494C74.677 104.275 74.674 104.047 74.6148 103.83C74.3207 102.052 74.84 101.051 75.2285 100.302C75.4962 99.7861 75.7019 99.3895 75.5364 98.9411C75.2092 97.9287 75.1497 96.8488 75.3638 95.8066C75.5778 94.7644 76.0582 93.7954 76.758 92.9939C77.2348 92.5117 77.2214 92.3368 77.1807 91.8079C77.1488 91.3931 77.1002 90.7603 77.2584 89.5907C77.3525 88.9012 77.6258 88.2483 78.0508 87.6972C78.476 87.1462 79.0382 86.7162 79.6812 86.4503C80.1549 86.2325 80.162 86.0651 80.1836 85.5527C80.1941 85.3031 80.2082 84.9715 80.2812 84.5123C80.3481 83.7234 80.6457 82.9715 81.137 82.3506C81.6281 81.7296 82.2913 81.2669 83.0437 81.0203C83.5543 80.7876 83.9638 80.4417 84.3855 80.0856C85.1856 79.4098 86.0295 78.6971 87.69 78.6515C88.0811 78.7067 88.4788 78.6924 88.8649 78.6095C89.2144 78.3919 89.5265 78.1192 89.7888 77.8019C90.9261 76.7633 92.0855 76.869 93.0767 76.9594C93.8698 77.0316 94.5553 77.0941 95.0352 76.5527C95.97 75.5051 98.3064 75.6155 99.4968 76.1555C100.027 76.3943 100.115 76.2507 100.235 76.0549C100.265 76.0067 100.296 75.9555 100.337 75.9059C100.614 75.5687 100.967 75.3023 101.368 75.1287C101.768 74.9551 102.204 74.8793 102.64 74.9075C103.046 74.9317 103.027 74.892 102.796 74.412C102.546 73.8952 102.051 72.8677 101.575 70.8599C101.107 68.8847 101.077 68.8307 100.735 68.8067C100.157 68.7643 99.5803 68.7132 98.9542 68.6577L98.7541 68.6399C92.7516 69.2339 87.6804 71.1443 87.2928 71.6147C87.6377 71.7256 87.9975 71.7835 88.3596 71.7863C91.3225 71.8175 95.0545 73.5275 95.232 74.2175C94.6895 74.0512 94.165 73.8313 93.6661 73.5611C92.0365 72.9059 86.262 71.8607 84.8892 72.8411C81.4718 75.0528 78.3645 77.7102 75.6492 80.7431C68.6232 88.4699 59.5668 101.64 55.1604 111.796ZM75.4096 115.023C75.1186 114.505 74.6878 113.739 74.4696 112.2C74.2886 110.381 74.5748 108.546 75.3012 106.868C75.2498 106.47 75.1014 106.09 74.8692 105.762C73.4034 108.305 72.6812 111.209 72.7848 114.143C72.7893 114.791 72.5558 115.419 72.1284 115.907C70.9222 117.741 70.2874 119.892 70.3044 122.087C70.1964 122.886 69.8368 123.294 69.5808 123.584C69.325 123.875 69.1728 124.048 69.48 124.375C71.9483 127.176 74.7573 129.656 77.8416 131.76C77.8698 131.779 77.8978 131.807 77.9262 131.836C78.0093 131.917 78.0962 132.004 78.2016 131.902C78.6051 131.516 77.5606 130.531 77.0763 130.074C77.0434 130.043 77.0132 130.014 76.986 129.989C76.3599 129.392 76.3792 128.945 76.3996 128.469C76.4181 128.041 76.4375 127.591 75.9864 126.989C75.6707 126.429 75.498 125.801 75.484 125.159C75.47 124.517 75.615 123.881 75.906 123.308C76.1969 122.7 76.1344 122.583 76.0269 122.381L76.026 122.38C74.9556 120.357 74.238 118.715 75.5748 116.244C75.83 115.772 75.6802 115.505 75.4096 115.023ZM93.1168 149.975C93.1268 149.85 93.1372 149.718 93.1728 149.606V149.603C94.8588 144.455 96.0769 143.426 95.8923 142.986C95.7715 142.698 95.0492 142.662 93.4632 141.887C86.8683 138.658 86.5616 138.235 86.1699 138.131C86.0936 138.11 86.014 138.102 85.884 138.088C85.4254 138.098 84.9708 138 84.5577 137.801C84.1446 137.602 83.7849 137.306 83.508 136.94C82.9422 136.373 82.4218 136.238 81.8801 136.098C81.1432 135.907 80.367 135.707 79.3836 134.393C78.6831 133.456 78.1685 133.074 77.2074 132.361C76.1502 131.576 74.5527 130.392 71.5728 127.626C68.4102 124.688 68.5091 123.88 68.5683 123.397C68.5868 123.245 68.6015 123.126 68.5092 122.982C68.357 123.004 68.2116 123.06 68.0843 123.146C67.9571 123.233 67.8513 123.348 67.7748 123.481C67.3332 124.229 66.9539 125.012 66.6408 125.822C65.4902 128.888 64.765 129.968 64.9444 130.869C65.1256 131.778 66.2288 132.504 68.7468 134.903C75.8885 141.278 83.9794 146.503 92.7289 150.39C93.073 150.529 93.0934 150.271 93.1168 149.975ZM109.275 147.505C109.127 147.102 107.106 147.387 96.9781 143.288V143.28C96.6268 143.141 96.3123 143.993 95.8148 145.341C95.3078 146.715 94.6107 148.605 93.4908 150.486C93.4032 150.632 93.3852 150.748 93.5736 150.826C97.5596 152.521 101.655 153.948 105.832 155.096C106.125 155.099 106.176 154.964 106.422 154.321C106.592 153.876 106.856 153.186 107.358 152.126C107.994 150.782 108.61 149.431 109.126 148.034C109.229 147.756 109.313 147.608 109.275 147.505ZM82.2857 135.206C82.8845 135.377 83.4525 135.54 83.9281 136.088L83.9244 136.082C84.6084 136.874 85.4064 137.404 87.7368 136.994C87.8616 136.974 87.9768 136.914 88.0662 136.825C88.1558 136.735 88.215 136.62 88.236 136.495C88.4904 135.558 88.6355 134.593 88.668 133.622C88.5798 131.893 88.232 130.188 87.636 128.563C87.083 127.085 86.1692 125.767 84.9779 124.732C83.7866 123.695 82.3553 122.974 80.814 122.63C79.9104 122.38 77.3352 122.176 77.0868 122.86C77.0289 123.019 76.9652 123.181 76.9008 123.344C76.496 124.373 76.0648 125.468 76.8744 126.607C77.0936 126.895 77.251 127.224 77.3372 127.576C77.4232 127.926 77.436 128.291 77.3748 128.647C77.3434 129.013 77.4378 129.116 78.2207 129.968C78.392 130.154 78.596 130.376 78.8388 130.645C79.1463 130.985 79.1384 131.137 79.1262 131.373C79.1115 131.659 79.0905 132.067 79.608 133.074C80.4326 134.675 81.3933 134.95 82.2857 135.206ZM27.6888 192.344C26.922 192.362 22.3824 198.38 22.1928 203.489C22.7052 207.154 24.9828 208.373 27.0504 207.66C26.9926 207.487 26.8949 207.492 26.753 207.498C26.6446 207.503 26.5104 207.509 26.3484 207.438C23.9496 206.396 23.118 204.211 23.3688 201.66C23.6844 198.467 25.4369 195.79 27.1053 193.241C27.3018 192.939 27.4972 192.642 27.6888 192.344ZM64.7652 185.664C65.3206 185.504 65.9405 185.326 66.7032 184.649C67.0389 184.35 66.7401 184.328 65.9871 184.271C64.2011 184.134 59.8596 183.804 55.368 179.14C51.6864 175.327 50.3396 172.819 49.3091 170.9C48.8403 170.027 48.4368 169.276 47.9088 168.58C47.6952 168.296 46.2864 168.837 45.8328 170.146C45.523 171.035 45.0527 171.28 44.4666 171.584C43.8976 171.881 43.2195 172.234 42.4728 173.288C42.4488 173.315 35.6496 181.842 34.1688 183.968C33.1755 185.398 32.587 186.487 32.0556 187.471C31.5908 188.333 31.1696 189.113 30.5592 189.968C30.5333 190.004 30.4619 190.096 30.3533 190.235C29.3082 191.568 24.8195 197.294 24.276 200.888C23.8344 203.815 24.6636 206.534 27.5736 206.784C30.8736 206.666 36.1404 202.595 38.0412 200.943C39.0695 200.049 39.5999 199.848 40.7298 199.418C42.6182 198.702 46.1812 197.348 56.5416 191.063L56.8445 190.879C62.026 187.738 62.599 187.391 63.084 186.734C63.6351 185.989 64.1621 185.838 64.7652 185.664ZM78.7597 226.221C80.1613 228.558 83.334 233.106 86.0412 233.393C86.655 233.256 86.9456 233.224 86.9612 233.139C87.0282 232.78 81.9737 231.465 75.678 216.673C74.6039 214.141 74.489 213.276 74.2734 213.249C74.184 213.239 74.0774 213.372 73.878 213.591C73.3308 214.197 73.3188 214.465 73.4508 214.855C74.7465 218.848 76.5296 222.666 78.7597 226.221ZM91.2251 220.8C91.2388 220.789 91.2528 220.777 91.2673 220.765H91.2696C91.3372 220.71 91.5047 220.574 91.7594 220.37C95.4212 217.423 117.086 199.986 118.027 195.562C116.098 196.045 114.074 196.004 112.166 195.441C107.911 194.411 104.441 192.522 101.726 191.044C100.575 190.416 99.5594 189.864 98.6773 189.481C96.2767 188.441 95.1154 187.674 94.4644 187.244C93.6602 186.714 93.6347 186.697 93.0133 187.313C81.0168 199.193 79.9187 203.928 79.3653 206.315C79.1197 207.374 78.9814 207.971 78.0457 208.524C76.5538 209.432 75.431 210.837 74.8752 212.493C75.09 213.395 77.9076 219.805 78.4968 220.872C80.7817 225.008 82.4256 227.924 85.7916 231.211C86.4057 231.878 87.2426 232.299 88.1449 232.393C88.7269 232.304 90.5376 228.176 90.4752 222.633C90.4634 221.58 90.1491 221.383 89.8538 221.198C89.7628 221.142 89.6737 221.085 89.5956 221.006C89.0773 220.477 87.1272 218.147 87.7728 217.787C88.0412 217.637 88.3265 218.047 88.714 218.605C88.8705 218.829 89.0438 219.079 89.2392 219.325C90.7319 221.208 90.7672 221.179 91.2251 220.8ZM123.912 172.54C125.501 170.819 126.403 168.016 124.5 166.607L124.466 166.601C123.498 165.884 123.986 164.904 124.559 163.752C125.213 162.439 125.977 160.904 124.826 159.281C124.532 158.867 124.506 158.689 124.406 158.621C124.154 158.45 123.437 158.971 116.892 158.226C99.7812 156.277 82.008 147.851 69.732 137.106C68.0494 135.633 67.062 134.664 66.436 134.051C65.3645 133 65.3511 132.986 64.7208 133.259C63.3774 134.022 62.3548 135.245 61.8408 136.701C61.3811 138.002 61.3166 138.901 61.27 139.551C61.2114 140.368 61.1812 140.79 60.4284 141.12C59.4657 141.562 58.5968 142.184 57.8688 142.953C56.76 144.091 56.6934 145.283 56.6183 146.626C56.5976 146.996 56.5762 147.379 56.532 147.775C56.4348 148.643 56.22 148.975 54.738 149.695C52.409 150.833 52.4057 152.729 52.4028 154.367C52.4004 155.689 52.3985 156.842 51.1704 157.289C50.7774 157.423 50.4233 157.651 50.139 157.954C49.8548 158.257 49.649 158.624 49.5396 159.025C49.0211 160.45 48.9486 161.999 49.332 163.465C49.4985 163.999 49.5774 164.209 49.5236 164.377C49.4693 164.545 49.2813 164.67 48.9132 165.037C47.5416 166.405 48.4854 167.976 49.7342 170.056C49.9822 170.468 50.2421 170.902 50.4984 171.356C52.1964 174.372 56.2092 179.264 59.0676 181.064C63.3192 183.739 67.152 183.628 67.4676 183.313C67.716 183.061 68.0142 183.003 68.4743 182.913C68.9699 182.818 69.6532 182.684 70.6644 182.233C71.5478 181.838 71.4903 181.264 71.4344 180.703C71.4269 180.63 71.4196 180.557 71.4144 180.484C71.358 179.71 71.6772 179.689 72.3854 179.642C72.656 179.624 72.9832 179.603 73.368 179.534C75.5361 179.149 75.4683 178.026 75.4131 177.114C75.3731 176.452 75.3398 175.9 76.1748 175.823C76.4842 175.794 76.7676 175.775 77.0294 175.758C78.3532 175.669 79.1197 175.619 79.8601 174.548C80.3309 173.868 80.4437 173.184 80.5451 172.568C80.7061 171.592 80.8386 170.788 82.3284 170.442C83.1059 170.262 83.6999 170.195 84.1994 170.137C85.7168 169.963 86.3627 169.89 88.6332 167.082C90.7885 164.416 93.8844 164.354 93.7716 165.121C93.7244 165.445 93.4949 165.443 93.1815 165.44C93.0177 165.438 92.831 165.437 92.6352 165.481C90.5312 165.962 89.8016 166.96 89.0223 168.025C88.5468 168.675 88.0529 169.351 87.2172 169.95C87.0301 170.084 86.7793 170.335 86.7793 170.52C86.7852 172.241 87.9995 173.189 88.9841 173.959C89.7854 174.586 90.4344 175.093 90.1572 175.8C90.0978 175.95 90.0527 176.119 89.9848 176.372C89.8883 176.734 89.7458 177.265 89.4504 178.163C89.334 178.518 89.4529 179.24 90.3624 179.912C91.7488 180.937 92.541 181.033 92.7272 181.422C92.8851 181.751 92.6073 182.288 91.8864 183.779C91.8738 183.805 91.8614 183.829 91.8493 183.853C91.6652 184.212 91.5957 184.348 93.4369 185.45C97.7844 188.048 106.306 192.748 111.197 194.194C116.072 195.635 118.241 194.489 119.78 193.675L119.868 193.628C120.899 192.914 121.612 191.827 121.852 190.596C122.041 190.21 122.077 189.764 121.952 189.352C121.828 188.94 121.552 188.59 121.18 188.372C120.386 187.808 120.971 187.302 121.786 186.596C122.393 186.07 123.128 185.432 123.515 184.578C124.105 183.274 123.486 182.6 122.776 181.829C122.639 181.679 122.498 181.525 122.362 181.363C121.906 180.822 122.36 180.44 123.004 179.903C123.662 179.352 124.517 178.636 124.789 177.414C124.957 176.908 124.934 176.357 124.724 175.867C124.513 175.376 124.13 174.98 123.648 174.754C122.322 174.185 122.776 173.718 123.547 172.922C123.662 172.804 123.786 172.676 123.912 172.54ZM126.994 156.658C127.834 154.642 128.564 152.581 129.18 150.485H129.16C129.269 149.983 129.326 149.472 129.332 148.958C129.336 148.914 129.308 148.866 129.282 148.818C129.269 148.794 129.254 148.77 129.245 148.746C129.052 148.891 128.939 149.047 128.832 149.195C128.73 149.338 128.634 149.471 128.478 149.575C127.38 150.306 126.593 150.253 124.664 150.121C124.508 150.11 124.344 150.098 124.171 150.088C119.55 149.538 114.964 148.734 110.431 147.679C110.264 147.638 110.175 147.613 110.115 147.644C109.979 147.714 109.99 148.069 109.574 149.178C107.82 153.864 106.625 154.896 106.801 155.254C106.886 155.426 107.294 155.442 108.118 155.638C110.777 156.276 125.965 159.202 126.994 156.658ZM136.464 138.708C137.208 138.705 137.948 138.617 138.672 138.444L138.658 138.439C139.709 138.349 139.21 131.64 134.683 128.223C134.628 128.183 134.578 128.125 134.527 128.069C134.328 127.842 134.14 127.63 133.76 128.519C133.714 128.63 133.732 128.905 133.757 129.301C133.832 130.46 133.976 132.662 132.762 134.879C131.635 136.936 131.672 136.969 132.152 137.329C133.355 138.334 134.902 138.828 136.464 138.708ZM162.581 132.352C163.183 132.203 163.948 132.014 164.534 131.174L164.501 131.166C164.658 130.889 164.527 130.674 164.3 130.304C164.056 129.904 163.699 129.323 163.476 128.286C163.273 127.357 163.241 126.398 163.384 125.459C163.102 125.369 162.854 125.264 162.629 125.168C162.029 124.914 161.586 124.726 161.074 125.066C160.777 125.263 160.564 125.092 160.278 124.861C160.177 124.781 160.069 124.693 159.944 124.612C158.972 123.984 158.525 124.129 158.132 124.256C157.757 124.379 157.432 124.484 156.746 123.891C155.672 122.961 154.709 123.031 153.913 123.089C153.245 123.138 152.694 123.177 152.296 122.607C152.128 122.425 151.938 122.263 151.73 122.128C151.256 121.656 150.647 121.345 149.987 121.239C149.327 121.135 148.65 121.239 148.054 121.541C147.887 121.637 147.694 121.676 147.502 121.655C147.311 121.633 147.131 121.551 146.989 121.421C144.912 119.782 143.202 120.569 142.247 121.008C141.87 121.182 141.611 121.301 141.493 121.195C141.269 120.986 141.661 120.433 142.052 120.235C142.253 120.134 142.422 120.054 142.564 119.986C143.17 119.697 143.276 119.646 143.276 119.275C143.273 118.998 143.282 118.732 143.292 118.475C143.339 117.186 143.377 116.107 141.736 114.794C141.245 114.401 141.179 114.252 141.394 113.637C141.493 113.352 141.595 113.09 141.69 112.846C142.028 111.977 142.282 111.327 142.052 110.56C141.646 109.591 141.137 108.67 140.532 107.812C140.358 107.46 140.468 106.945 140.59 106.383C140.707 105.836 140.836 105.244 140.717 104.717C140.339 103.081 139.753 102.469 139.325 102.021C138.971 101.652 138.725 101.395 138.788 100.767C138.816 100.494 138.857 100.246 138.896 100.011C139.04 99.1488 139.156 98.4526 138.468 97.2431C137.942 96.3178 137.306 95.9885 136.8 95.7264C136.274 95.4539 135.888 95.2541 135.912 94.5323C135.948 93.2999 135.523 92.0982 134.72 91.1627C133.606 89.8465 132.874 89.6919 132.379 89.5875C131.965 89.5 131.718 89.4479 131.554 88.7771C131.32 88.0465 130.92 87.3797 130.387 86.8283C129.688 86.274 128.833 85.9525 127.942 85.9091C127.559 85.8551 127.54 85.9091 127.42 86.2691C126.347 89.4647 123.649 90.4619 120.319 90.3419C113.764 90.1115 105.695 87.5291 101.719 82.3847C100.196 80.413 100.088 78.9089 100.023 77.9969C99.9862 77.4751 99.9628 77.1472 99.6961 77.0363C98.8991 76.6965 98.0424 76.519 97.176 76.5143C96.088 76.5216 95.6928 76.9029 95.3573 77.2267C95.091 77.4835 94.8623 77.7043 94.3549 77.6735C93.5589 77.5704 92.7537 77.5579 91.9548 77.6363C90.784 77.7414 90.3195 78.2598 89.9202 78.7051C89.6042 79.0577 89.3291 79.3645 88.7773 79.3847C87.9089 79.29 87.0306 79.4057 86.2164 79.7219C85.4891 80.0206 85.1383 80.4 84.8135 80.7511C84.4701 81.1225 84.1558 81.4625 83.4564 81.6419C82.9664 81.7391 82.5114 81.9667 82.14 82.3008C81.7685 82.6349 81.4941 83.0632 81.3456 83.5403C81.0724 84.3169 81.0315 84.9385 80.9979 85.4484C80.9464 86.2306 80.9122 86.7496 80.0832 87.1607C77.9175 88.2349 78.0429 89.9367 78.1452 91.3241C78.2063 92.1529 78.2593 92.8696 77.8105 93.2735C77.1803 93.8705 76.708 94.6144 76.4357 95.4387C76.1636 96.2629 76.0998 97.1418 76.2504 97.9967C76.2821 98.178 76.3341 98.3621 76.3865 98.5476C76.5462 99.1134 76.7096 99.6924 76.3128 100.245C74.9892 102.089 75.516 104.131 76.0356 106.071C76.0532 106.137 76.0716 106.196 76.0895 106.254C76.2069 106.631 76.2951 106.914 75.8556 108.028C75.4085 109.162 75.2328 110.385 75.3426 111.599C75.4524 112.814 75.8447 113.985 76.488 115.021C76.8431 115.593 76.6131 116.161 76.332 116.854C75.8932 117.937 75.3302 119.326 76.6776 121.517C76.845 121.789 76.9535 121.763 77.3337 121.671C77.6566 121.595 78.1756 121.47 79.0933 121.441C80.9846 121.634 80.9895 121.647 81.0023 121.681C81.0098 121.701 81.0198 121.728 81.4044 121.801C83.1045 122.265 84.6608 123.15 85.9308 124.371C89.2729 127.612 89.9113 134.436 88.7773 136.742C88.7583 136.782 88.7475 136.826 88.7454 136.869C88.7434 136.914 88.7501 136.958 88.7654 137C88.7805 137.042 88.8038 137.08 88.8339 137.113C88.8639 137.146 88.9001 137.172 88.9404 137.19C89.635 137.718 90.462 138.044 91.3301 138.132C92.1983 138.221 93.074 138.067 93.8605 137.689C95.0125 137.207 95.7496 137.424 96.4665 137.635C97.2349 137.862 97.9798 138.08 99.1872 137.425C100.502 136.71 100.823 136.573 101.356 136.573C102.343 136.719 103.353 136.583 104.266 136.178C104.702 135.883 105.02 135.622 105.29 135.4C105.923 134.879 106.291 134.576 107.3 134.576C109.637 134.584 110.436 133.689 111.152 132.888C111.772 132.193 112.33 131.568 113.771 131.657C115.572 131.768 116.089 131.078 116.579 130.426C116.961 129.918 117.326 129.431 118.267 129.361C119.589 129.258 120.833 128.694 121.782 127.768C121.817 127.64 121.759 127.523 121.667 127.334C121.439 126.871 121.004 125.984 121.212 123.5C121.242 123.146 121.144 123.128 120.883 123.079C120.636 123.034 120.24 122.959 119.666 122.54C118.498 121.687 117.874 121.856 117.301 122.012C116.829 122.14 116.392 122.259 115.714 121.79C115.52 121.657 115.341 121.506 115.166 121.357C114.584 120.866 114.041 120.408 113.129 120.716C112.669 120.887 112.167 120.91 111.693 120.781C111.22 120.651 110.798 120.377 110.489 119.996C110.154 119.725 109.776 119.513 109.37 119.368C109.093 119.228 108.955 119.271 108.645 119.367C108.448 119.428 108.18 119.511 107.761 119.582C106.816 119.743 106.511 119.403 106.242 119.102C106.173 119.025 106.106 118.95 106.031 118.887C105.036 118.052 104.465 118.215 103.912 118.371C103.779 118.409 103.647 118.447 103.511 118.47C102.984 118.558 102.764 118.46 102.395 118.296C102.19 118.205 101.939 118.094 101.564 117.983C100.579 117.691 100.276 117.761 99.8341 117.864C99.6236 117.912 99.3817 117.968 99.0192 117.996C98.9542 118.006 98.8876 117.993 98.8322 117.957C98.7767 117.922 98.7363 117.867 98.7185 117.804C98.7009 117.74 98.7072 117.673 98.7364 117.613C98.7654 117.554 98.8154 117.508 98.8765 117.483C99.2147 117.261 99.5961 117.113 99.9956 117.048C100.395 116.983 100.804 117.003 101.195 117.107C101.697 117.187 101.816 116.86 102.029 116.27C102.095 116.088 102.171 115.88 102.269 115.652C102.458 115.211 102.198 114.851 101.897 114.491C101.522 114.04 101.744 113.712 102.158 113.1C102.258 112.952 102.37 112.787 102.487 112.599C103.338 111.232 102.392 110.124 101.886 109.53C101.81 109.442 101.744 109.364 101.695 109.299C101.38 108.878 101.615 108.409 101.92 107.797C102.416 106.805 103.099 105.439 101.927 103.299C101.307 102.168 101.611 101.505 101.981 100.701C102.199 100.226 102.44 99.702 102.527 99.0023C102.792 96.8556 101.732 95.8221 100.93 95.0401C100.432 94.555 100.034 94.1667 100.114 93.6695C100.164 93.3534 100.218 93.0551 100.27 92.7705C100.497 91.5204 100.676 90.5327 100.291 89.4527C99.4982 87.2296 98.6924 86.8584 98.2859 86.6712C98.1026 86.5867 98.0005 86.5397 98.0173 86.3771C98.0508 86.0627 98.7757 86.0567 99.0469 86.2847C99.9287 86.9489 100.581 87.8718 100.913 88.9247C101.479 90.4201 101.394 90.9467 101.102 92.7529C101.066 92.976 101.026 93.2184 100.985 93.4847C100.916 93.9453 101.087 94.0768 101.404 94.3198C101.811 94.6325 102.459 95.13 103.145 96.7523C103.826 98.3646 103.328 99.5993 102.909 100.637C102.58 101.455 102.299 102.15 102.683 102.812C103.212 103.728 103.514 104.756 103.565 105.812C103.444 106.757 103.116 107.664 102.605 108.468C102.453 108.763 102.604 108.925 102.795 109.131C102.805 109.142 102.815 109.152 102.824 109.163C103.4 109.771 103.731 110.571 103.751 111.408C103.771 112.246 103.481 113.061 102.935 113.696C102.763 113.933 102.837 114.088 102.941 114.305C103.088 114.612 103.296 115.045 102.958 116.015C102.842 116.345 102.724 116.589 102.633 116.775C102.455 117.141 102.382 117.29 102.642 117.455C103.01 117.687 103.388 117.621 103.821 117.544C104.394 117.443 105.063 117.325 105.932 117.857C106.28 118.07 106.5 118.264 106.673 118.418C106.95 118.665 107.11 118.806 107.492 118.749C108.093 118.626 108.704 118.566 109.316 118.569C109.987 118.767 110.614 119.093 111.16 119.53C111.729 120.176 112.295 120.072 112.917 119.957C113.528 119.844 114.195 119.721 114.972 120.294C116.222 121.214 116.582 121.463 117.132 121.294C117.639 121.138 118.178 121.113 118.697 121.223C119.216 121.333 119.698 121.574 120.098 121.922C120.738 122.48 122.225 122.612 122.596 121.841C122.609 121.813 124.529 118.086 124.676 117.899C127.711 114.054 132.052 117.258 130.502 118.076C130.37 118.146 130.235 118.172 130.121 118.194C129.911 118.234 129.773 118.26 129.86 118.523C130.088 119.207 129.967 119.597 129.188 119.707C128.929 119.745 128.754 119.719 128.585 119.694C128.28 119.649 127.993 119.607 127.268 119.947C126.866 120.135 126.856 120.266 126.816 120.731C126.793 121.011 126.76 121.412 126.624 122.019C126.607 122.156 126.607 122.296 126.624 122.432C127.139 122.413 127.198 122.372 127.303 122.299C127.433 122.208 127.633 122.068 128.857 121.86C129.725 121.714 130.584 122.641 129.744 123.192C129.211 123.542 128.773 123.781 128.399 123.985C127.612 124.413 127.108 124.687 126.601 125.527C126.337 126.019 125.96 126.442 125.502 126.76C125.042 127.078 124.514 127.282 123.961 127.356C123.48 127.322 122.948 127.765 122.3 128.306C121.418 129.042 120.318 129.959 118.828 130.104C118.48 130.102 118.139 130.195 117.842 130.375C117.544 130.554 117.302 130.812 117.142 131.12C116.723 131.648 116.168 132.053 115.537 132.289C114.906 132.525 114.222 132.586 113.56 132.462C113.193 132.462 112.833 132.56 112.517 132.745C112.2 132.931 111.939 133.198 111.76 133.517C110.304 135.278 109.104 135.347 108.017 135.409C107.193 135.457 106.434 135.5 105.679 136.277C104.498 137.494 103.344 137.484 101.654 137.441C101.217 137.43 100.756 137.669 100.223 137.945C99.199 138.475 97.9085 139.144 96.0036 138.44C95.2942 138.177 94.8639 138.331 93.7047 138.744C93.5366 138.804 93.3531 138.869 93.1513 138.939C92.4458 139.103 91.7147 139.123 91.0013 139C90.2878 138.876 89.6063 138.611 88.9968 138.219C88.8296 138.083 88.6354 137.983 88.427 137.927C88.2185 137.87 88.0005 137.86 87.7872 137.893C86.1384 137.951 102.922 145.513 114.404 147.578C114.58 147.61 114.837 147.659 115.16 147.72C118.179 148.289 126.932 149.941 127.957 148.826C128.363 148.261 128.63 147.607 128.737 146.92C128.844 146.232 128.789 145.529 128.574 144.866C128.334 144.258 128.772 143.624 129.336 142.813C130.157 141.63 131.242 140.066 130.862 137.646C130.859 137.622 130.855 137.599 130.852 137.576C130.739 136.872 130.705 136.656 131.527 135.204C132.656 133.38 133.076 131.204 132.708 129.091C132.625 128.659 132.838 128.228 133.116 127.663C133.594 126.692 134.266 125.329 133.957 122.9C133.895 122.412 133.84 122.06 133.798 121.795C133.687 121.106 133.672 121.009 133.892 120.612C134.855 118.639 135 116.366 134.297 114.287C134.134 113.912 134.087 113.497 134.162 113.095C134.674 111.434 134.822 109.683 134.599 107.959C134.412 107.402 135.358 107.191 135.439 108.991C135.524 110.848 135.298 111.79 135.136 112.463C134.983 113.096 134.888 113.489 135.167 114.18C136.181 116.688 135.223 119.544 134.808 120.779C134.7 121.102 134.629 121.314 134.64 121.38C135.108 123.147 135.06 125.012 134.501 126.754C134.461 126.873 134.429 126.944 134.435 127.012C134.45 127.2 134.766 127.363 136.044 128.502C138.734 130.901 140.243 136.043 139.604 138.09C139.385 138.792 143.584 139.574 145.29 137.805C145.663 137.418 145.955 137.51 146.426 137.66C146.908 137.813 147.577 138.025 148.712 137.85C150.026 137.647 150.668 137.294 151.145 137.033C151.534 136.819 151.812 136.666 152.255 136.704C152.783 136.799 153.32 136.83 153.856 136.796C155.269 136.496 155.884 135.976 156.368 135.565C156.774 135.221 157.087 134.954 157.703 134.963C159.052 134.981 161.212 134.339 161.629 132.923C161.736 132.56 162.109 132.468 162.581 132.352ZM127.788 117.604C127.95 117.589 128.116 117.574 128.281 117.554C128.285 117.59 128.275 117.617 128.284 117.634C128.311 117.689 128.518 117.652 129.834 117.491C130.573 117.393 127.004 115.32 125.18 118.331C124.726 119.08 124.343 119.807 124.004 120.451C123.413 121.573 122.954 122.444 122.477 122.749C121.5 123.374 121.94 126.038 122.248 126.899C122.358 127.211 122.569 127.271 122.89 127.123C123.34 126.917 123.676 126.862 123.98 126.811C124.376 126.745 124.72 126.689 125.195 126.319C125.753 125.885 126.036 125.472 126.306 125.08C126.666 124.553 127.002 124.063 127.943 123.611C128.42 123.415 128.866 123.147 129.263 122.819C129.288 122.799 129.246 122.632 129.218 122.632C128.732 122.541 127.76 122.975 127.04 123.295C126.739 123.428 126.482 123.543 126.323 123.591C126.001 123.69 125.669 124.027 125.369 124.331C124.999 124.706 124.681 125.029 124.494 124.791C124.374 124.638 124.498 124.517 124.612 124.406L124.644 124.374C125.544 123.318 126.096 122.009 126.226 120.628C126.21 120.41 126.25 120.193 126.34 119.994C126.43 119.796 126.566 119.623 126.74 119.491C127.199 119.165 127.748 118.99 128.311 118.991C128.336 118.993 129.158 119.028 129.158 118.931C129.164 118.401 127.141 117.811 126.24 118.651C126.116 118.768 126.065 118.82 126.004 118.838C125.929 118.859 125.84 118.83 125.593 118.803C125.872 117.782 126.78 117.697 127.788 117.604Z"
                    fill="#253E92" />
            </g>
            <g id="Group_2">
                <path id="Vector_16"
                    d="M181.41 120.48C180.458 119.177 179.43 117.932 178.33 116.751C175.162 113.718 175.669 113.751 169.736 118.693C163.56 123.838 163.016 123.868 163.093 124.759C163.18 125.709 166.896 130.975 167.762 131.547C168.312 131.907 168.656 131.907 169.573 131.469C170.296 131.022 170.995 130.539 171.667 130.02C173.666 128.496 179.502 124.582 180.695 123.388C181.621 122.455 182.104 121.462 181.41 120.48ZM174.196 126.945C173.083 127.803 171.602 128.877 169.698 130.075C168.978 130.528 168.312 130.944 167.7 130.325C166.422 128.851 165.284 127.263 164.3 125.579C163.85 124.747 163.996 124.541 164.255 124.259C164.754 123.709 166.175 122.602 170.485 119.086C175.297 115.159 175.439 114.886 176.93 116.497C176.962 116.569 176.972 116.648 176.964 116.725C176.954 116.803 176.926 116.877 176.88 116.94C176.246 117.689 177.152 118.23 178.367 119.688C178.484 119.832 178.644 119.935 178.823 119.983C179.003 120.031 179.192 120.023 179.366 119.958C179.93 119.8 179.924 119.814 180.278 120.285C181.423 121.8 181.388 121.391 174.196 126.94V126.945Z"
                    fill="#253E92" />
                <path id="Vector_17"
                    d="M177.535 106.243C177.727 106.285 177.734 106.123 177.784 105.973C180.766 96.9799 181.936 95.4967 181.362 95.3335C180.56 95.1067 176.902 106.105 177.535 106.243Z"
                    fill="#253E92" />
                <path id="Vector_18"
                    d="M181.067 131.4C180.82 131.629 181.393 131.944 183.579 136.489C186.245 142.034 185.999 141.951 186.401 141.427C185.681 138.89 181.566 130.938 181.067 131.4Z"
                    fill="#253E92" />
                <path id="Vector_19"
                    d="M197.12 125.609C194.9 124.969 185.262 122.461 187.001 123.863C187.299 123.827 189.011 124.058 196.633 126.055C197.329 126.239 197.808 126.469 197.953 126.237C198.143 125.947 197.456 125.705 197.12 125.609Z"
                    fill="#253E92" />
                <path id="Vector_20"
                    d="M164.255 116.348C164.216 116.278 164.201 116.208 164.158 116.18C163.881 115.97 163.582 115.789 163.266 115.642C162.516 115.364 153.465 112.144 153.226 112.894C153.131 113.195 154.098 113.267 154.976 113.536C164.606 116.484 163.716 116.707 164.255 116.348Z"
                    fill="#253E92" />
                <path id="Vector_21"
                    d="M166.391 103.142C169.088 109.318 168.671 109.382 169.197 108.738C168.271 105.662 165.597 99.5372 164.525 98.462C164.493 98.4296 164.285 98.4896 164.315 98.582C164.432 99.02 164.02 97.7084 166.391 103.142Z"
                    fill="#253E92" />
                <path id="Vector_22"
                    d="M190.08 109.341C192.521 107.551 193.811 106.809 194.077 106.447C195.456 104.575 184.63 112.25 184.815 113.259C185.814 112.784 184.468 113.461 190.08 109.341Z"
                    fill="#253E92" />
                <path id="Vector_23"
                    d="M177.053 119.868C176.461 119.741 175.274 119.586 174.653 119.508C174.18 119.508 174.119 119.594 174.258 120.007C174.514 120.768 174.682 120.72 174.23 120.882C168.662 122.881 168.736 122.732 169.651 123.307C171.152 124.25 170.768 123.667 166.986 125.625C166.321 125.97 166.806 126.672 167.146 126.84C167.342 126.937 167.672 126.72 167.78 126.66C173.443 123.733 173.501 124.107 171.877 123.217C171.734 123.139 171.712 123 172.044 122.843C172.892 122.37 173.778 121.968 174.692 121.643C175.482 121.411 175.318 123.408 176.132 122.107C177.436 120.017 177.6 119.985 177.053 119.868Z"
                    fill="#253E92" />
            </g>
            <g id="Group_3">
                <path id="Vector_24"
                    d="M196.783 6.00023C213.703 6.15623 231.123 20.9342 231.283 42.0002C231.32 46.8311 230.389 51.6204 228.542 56.0845C226.695 60.5488 223.973 64.5971 220.533 67.9898C217.094 71.3826 213.009 74.0507 208.52 75.8364C204.031 77.622 199.23 78.4888 194.4 78.3854C164.439 77.8646 148.899 43.685 166.023 20.6918C173.079 11.2142 183.066 5.87423 196.783 6.00023ZM217.23 69.6314C222.387 65.5015 226.274 59.9993 228.444 53.758C230.612 47.5166 230.976 40.7898 229.49 34.3514C225.41 14.8682 203.951 1.28303 182.505 9.23063C167.095 14.9414 158.547 30.923 159.816 44.2262C162.84 75.9602 197.348 86.1602 217.23 69.6314Z"
                    fill="#253E92" />
                <path id="Vector_25"
                    d="M196.458 53.0087C200.932 52.3451 203.011 58.8083 199.299 63.8207C196.155 68.0663 191.397 66.6659 190.793 62.7671C190.027 57.8303 193.296 53.4791 196.458 53.0087ZM199.098 54.7055C198.684 54.2663 198.138 53.9748 197.543 53.8754C196.948 53.7762 196.337 53.8747 195.803 54.1559C198.025 54.8855 198.301 57.2303 198.007 59.5715C197.701 61.6134 196.939 63.5602 195.777 65.2667C197.88 65.7395 202.617 58.4915 199.096 54.7055H199.098Z"
                    fill="#253E92" />
                <path id="Vector_26"
                    d="M178.891 47.7601C178.964 49.3101 178.559 50.8449 177.733 52.1584C176.907 53.4718 175.698 54.5011 174.27 55.1077C171.398 56.0113 168.934 53.7385 168.75 50.4781C168.229 41.3101 178.962 39.0301 178.891 47.7601ZM173.55 43.2241C168.425 45.1441 168.2 54.4357 173.151 54.4357C173.226 54.4226 173.299 54.3962 173.365 54.3577C173.337 54.2864 173.298 54.2193 173.252 54.1585C170.705 51.6781 172.314 44.8681 175.82 43.4785C175.868 43.4524 175.913 43.4223 175.956 43.3885C175.59 43.19 175.187 43.0724 174.772 43.0436C174.357 43.0148 173.94 43.0755 173.55 43.2217V43.2241Z"
                    fill="#253E92" />
                <path id="Vector_27"
                    d="M184.192 32.2279C179.423 32.4175 177.371 28.5883 182.333 25.3255C188.474 21.2887 196.113 23.0227 194.261 27.1771C192.89 30.2551 187.486 32.3251 184.192 32.2279ZM180.269 29.2279C181.119 31.7383 179.807 28.7611 185.084 26.8603C191.878 24.4111 192.962 27.7003 193.255 27.2647C194.567 25.3375 192.901 23.2711 187.634 24.0895C184.825 24.5239 180.502 26.7223 180.269 29.2255V29.2279Z"
                    fill="#253E92" />
                <path id="Vector_28"
                    d="M210.479 36.6702C210.544 41.7714 206.909 43.2858 205.233 38.901C203.758 35.0418 205.187 29.367 208.113 30.9066C209.854 31.8186 210.459 34.689 210.479 36.6702ZM206.759 31.6914C207.438 32.4349 207.912 33.3421 208.136 34.3242C208.686 36.3252 208.576 38.4509 207.821 40.3842C207.648 40.8042 208.404 40.461 208.503 40.3398C210.819 37.4658 209.11 30.7398 206.759 31.6914Z"
                    fill="#253E92" />
                <path id="Vector_29"
                    d="M173.293 22.6804C173.018 28.2688 167.013 32.5324 166.139 28.8484C165.467 26.02 169.057 20.4904 172.139 20.8972C172.826 20.9884 173.371 22.2736 173.293 22.6804ZM167.315 29.2048C167.405 29.2845 167.522 29.3274 167.642 29.3248C167.892 29.2624 167.57 29.1052 167.677 28.7248C168.019 27.0154 168.805 25.4264 169.957 24.118C170.604 23.2981 171.41 22.618 172.328 22.1188C172.285 22.0137 172.221 21.9183 172.141 21.8383C172.061 21.7582 171.965 21.6952 171.86 21.6529C171.755 21.6106 171.642 21.5899 171.528 21.592C171.415 21.5941 171.302 21.619 171.199 21.6652C170.234 22.166 169.383 22.8601 168.698 23.704C168.014 24.548 167.51 25.5238 167.219 26.5708C166.979 27.3136 166.662 28.7644 167.315 29.2048Z"
                    fill="#253E92" />
                <path id="Vector_30"
                    d="M221.324 52.5397C220.944 57.1837 215.976 59.4445 214.829 56.4037C214.649 55.6993 214.616 54.9655 214.733 54.2479C214.849 53.5303 215.112 52.8444 215.504 52.2326C215.897 51.6208 216.411 51.0964 217.015 50.692C217.62 50.2876 218.3 50.0118 219.015 49.8817C219.939 49.7089 221.318 50.6401 221.324 52.5397ZM217.431 56.1637C217.14 56.4265 216.9 56.5513 216.63 56.7961C218.84 57.5461 222.225 51.6553 219.313 50.8489C219.402 51.8175 219.279 52.7938 218.954 53.7106C218.629 54.6276 218.109 55.4631 217.431 56.1601V56.1637Z"
                    fill="#253E92" />
                <path id="Vector_31"
                    d="M221.851 40.4659C221.577 39.3469 221.612 38.1744 221.954 37.0741C222.295 35.9739 222.93 34.9872 223.789 34.2199C225.136 33.1687 226.789 34.3003 227.186 36.2335C228.433 42.2599 222.82 45.2395 221.851 40.4659ZM225.846 35.2699C225.703 35.0296 225.475 34.8519 225.207 34.7722C224.938 34.6925 224.65 34.7169 224.4 34.8403C224.132 34.9843 224.138 35.0023 224.3 35.2951C224.878 36.5623 224.997 37.9912 224.637 39.3367C224 41.6599 223.071 41.7019 223.822 41.8891C226.015 42.4363 227.265 37.0639 225.846 35.2699Z"
                    fill="#253E92" />
                <path id="Vector_32"
                    d="M212.381 16.6465C214.557 18.6133 214.085 20.3941 212.429 20.4769C209.134 20.6413 204.374 16.0285 206.738 14.7541C208.306 13.9081 211.052 15.4453 212.381 16.6465ZM207.701 15.3625C207.279 15.4729 206.981 15.4753 206.981 15.8629C206.981 16.3621 207.262 15.8113 208.683 16.6117C212.243 18.6193 211.861 19.9201 212.643 19.5493C214.129 18.8401 210.296 15.3985 207.7 15.3601L207.701 15.3625Z"
                    fill="#253E92" />
                <path id="Vector_33"
                    d="M178.32 63.821C182.743 65.2274 183.24 69.9086 180.915 69.3698C179.951 69.0904 179.079 68.554 178.397 67.8177C177.713 67.0815 177.242 66.1732 177.036 65.1902C177.012 65.012 177.027 64.8306 177.081 64.6592C177.137 64.4878 177.229 64.3309 177.351 64.1997C177.475 64.0684 177.625 63.9664 177.793 63.9009C177.961 63.8354 178.141 63.808 178.32 63.821ZM178.025 64.7474C177.984 64.7677 177.949 64.7986 177.925 64.837C177.901 64.8753 177.887 64.9197 177.885 64.9652C177.884 65.0107 177.895 65.0557 177.918 65.0953C177.941 65.135 177.973 65.1678 178.013 65.1902C179.184 65.9366 180.113 67.0089 180.683 68.2754C180.703 68.3262 180.732 68.3726 180.77 68.412C180.807 68.4513 180.853 68.4829 180.903 68.5047C180.953 68.5267 181.007 68.5384 181.062 68.5396C181.116 68.5407 181.17 68.531 181.221 68.5112C181.272 68.4914 181.319 68.4616 181.357 68.4238C181.397 68.386 181.428 68.3409 181.451 68.2909C181.472 68.241 181.484 68.1872 181.485 68.1326C181.487 68.078 181.477 68.0239 181.457 67.973C180.793 65.687 178.619 64.4474 178.027 64.7474H178.025Z"
                    fill="#253E92" />
                <path id="Vector_34"
                    d="M205.148 67.9205C205.721 67.4128 206.418 67.0661 207.168 66.916C207.918 66.7659 208.694 66.8177 209.418 67.0661C210.887 67.4705 211.105 68.8193 210.417 69.4745C208.182 71.6033 203.305 69.9473 205.148 67.9205ZM208.148 67.6889C205.493 67.7105 205.361 69.2129 205.868 68.9105C206.432 68.6561 207.043 68.5228 207.661 68.5193C208.279 68.5158 208.891 68.6421 209.457 68.8901C210.062 69.1613 210.6 67.8905 208.149 67.6889H208.148Z"
                    fill="#253E92" />
                <path id="Vector_35"
                    d="M190.692 11.9393C190.415 11.1257 191.292 10.3793 192.079 10.1141C196.819 8.48205 198.956 12.1001 194.174 13.1141C192.926 13.3745 191.106 13.1513 190.692 11.9393ZM195.923 11.0993C193.827 9.68325 191.255 11.3069 191.519 11.6393C191.783 11.9717 192.169 12.3869 192.438 12.0185C192.743 11.7424 193.113 11.551 193.515 11.4634C193.917 11.3758 194.335 11.395 194.726 11.5193C194.881 11.5745 195.02 11.6693 195.174 11.7293C195.439 11.8337 195.96 11.4497 195.923 11.1005V11.0993Z"
                    fill="#253E92" />
                <path id="Vector_36"
                    d="M193.671 43.8616C193.374 43.8318 193.093 43.7179 192.861 43.5334C192.627 43.3491 192.451 43.1018 192.353 42.8209C192.256 42.5398 192.241 42.2368 192.31 41.9476C192.379 41.6583 192.529 41.3948 192.743 41.188C193.097 40.7274 193.567 40.3687 194.105 40.1488C194.806 39.4588 196.673 39.4288 197.135 40.6288C197.711 42.1204 195.748 43.7836 193.671 43.8616ZM195.911 41.3788C196.41 41.6056 196.543 40.9564 196.105 40.7212C194.445 39.8284 192.556 42.2944 193.273 42.7744C193.481 42.9136 193.655 41.5204 195.911 41.3788Z"
                    fill="#253E92" />
            </g>
            <g id="Group_4">
                <path id="Vector_37"
                    d="M80.7256 35.3256C81.7672 31.0788 81.7048 32.4324 79.1596 33.3264C78.8404 33.4392 78.6388 33.078 78.9496 32.88C81.7612 31.08 81.7516 31.92 80.284 30.2064C79.9096 29.7696 79.144 28.9188 79.6648 28.6656C79.8436 28.578 79.9372 28.7172 80.0248 28.8204C82.0828 31.176 81.6208 31.2132 82.1284 29.1876C82.6084 27.2844 82.828 25.848 83.272 26.1876C83.6524 26.4828 82.4152 30.0876 82.5112 30.708C82.5748 31.1268 85.9288 28.8072 86.3512 29.7936C86.3692 29.8332 86.248 29.9424 86.1772 30.006C85.7728 30.366 87.1372 29.382 83.0092 31.4076C82.12 31.8444 82.8568 31.7352 84.298 34.1976C84.3295 34.2562 84.3384 34.3242 84.3231 34.3889C84.3078 34.4536 84.2695 34.5104 84.2151 34.5488C84.1609 34.5871 84.0944 34.6044 84.0284 34.5971C83.9623 34.5899 83.9011 34.5588 83.8564 34.5096C83.3884 34.062 82.3732 32.4276 82.15 32.5332C81.8152 32.6988 81.5452 36.6516 80.7256 35.3256Z"
                    fill="#253E92" />
                <path id="Vector_38"
                    d="M28.0034 101.952C27.9458 102.124 26.6246 106.061 26.6522 106.223C28.0238 105.751 30.4922 104.852 30.5618 105.536C30.5618 105.634 30.4562 105.816 30.125 105.864C29.014 106.094 27.9322 106.448 26.8994 106.918C26.609 107.028 26.6006 107.129 26.7794 107.417C28.0358 109.511 28.1306 109.603 28.0862 109.915C27.9314 111.002 26.717 108.382 26.1518 107.802C25.6526 108.511 25.1834 111.049 24.5918 110.843C24.0002 110.636 25.799 107.531 25.2398 107.622C24.455 107.75 23.2586 108.652 23.0366 108.037C22.9586 107.825 22.8902 107.857 25.049 106.906C25.6202 106.654 25.5722 106.885 24.0806 104.692C23.6702 104.092 23.7602 104.042 23.8826 103.892C24.053 103.685 24.317 103.936 24.4598 104.132C26.3546 106.706 25.5398 106.806 27.3206 102.164C27.4202 101.902 27.5882 101.53 27.8198 101.652C27.9086 101.698 27.941 101.842 28.0034 101.952Z"
                    fill="#253E92" />
                <path id="Vector_39"
                    d="M219.158 174.22C218.456 174.331 217.405 175.356 217.118 174.94C216.911 174.645 217.251 174.505 218.737 173.599C219.309 173.25 219.432 173.349 219.217 172.954C217.544 169.916 217.554 170.236 217.641 169.602C218.39 169.879 219.217 171.798 219.725 172.275C219.937 171.943 219.62 172.664 220.724 169.32C220.82 169.027 220.958 168.747 221.071 168.458C221.083 168.403 221.117 168.355 221.163 168.325C221.21 168.294 221.268 168.283 221.323 168.295C221.737 168.385 221.514 168.735 221.141 169.947C220.301 172.694 220.154 172.827 220.891 172.534C222.781 171.788 222.811 171.694 223.325 171.663C223.664 171.642 223.573 171.985 223.445 172.098C223.367 172.167 222.018 172.762 220.747 173.347C220.188 173.604 220.423 173.532 221.334 175.116C221.486 175.38 221.586 175.671 221.736 175.945C221.845 176.145 221.833 176.316 221.616 176.409C221.244 176.572 221.101 175.809 220.017 174.338C219.267 175.645 219.561 176.085 218.865 177.296C218.835 177.349 218.613 177.471 218.579 177.222C218.451 176.32 219.228 174.848 219.158 174.22Z"
                    fill="#253E92" />
            </g>
            <g id="Group_5">
                <path id="Vector_40"
                    d="M186.24 161.653C173.001 148.974 150.615 158.181 150.517 176.773C150.471 179.577 150.989 182.361 152.039 184.96C153.09 187.559 154.653 189.921 156.634 191.904C158.615 193.888 160.975 195.453 163.573 196.506C166.171 197.56 168.954 198.081 171.757 198.037C190.713 197.967 199.956 174.79 186.24 161.653ZM153.825 187.001C152.415 184.517 151.541 181.765 151.26 178.924C150.981 176.081 151.299 173.212 152.196 170.501C153.094 167.789 154.549 165.297 156.469 163.182C158.391 161.069 160.733 159.381 163.345 158.229C165.959 157.077 168.785 156.485 171.641 156.492C174.496 156.499 177.319 157.105 179.926 158.272C182.533 159.438 184.866 161.137 186.777 163.261C188.686 165.385 190.128 167.886 191.011 170.602C198.539 194.16 166.067 208.126 153.826 187.001H153.825Z"
                    fill="#253E92" />
                <path id="Vector_41"
                    d="M160.392 199.919C152.232 214.882 153.912 214.432 152.264 213.426C151.544 212.987 151.625 212.751 152.014 212.093C155.166 206.749 159.714 198.233 159.746 198.046C159.77 197.901 159.52 197.686 159.386 197.856C158.571 198.869 151.426 212.596 151.037 212.155C149.31 210.199 150.66 207.742 151.966 208.158C152.279 208.258 152.254 208.018 152.326 207.881C152.541 207.498 151.092 207.274 150.406 208.083C149.898 208.729 149.622 209.527 149.622 210.349C149.622 211.173 149.898 211.971 150.406 212.617C150.834 213.163 150.766 213.01 147.759 218.663C146.475 221.079 145.217 223.336 145.108 223.583C144.902 224.049 145.348 224.332 145.662 223.888C145.977 223.444 147.49 220.176 151.144 213.755C151.35 213.395 151.292 213.905 152.657 214.422C153.11 214.594 152.811 214.767 152.408 215.622C146.871 227.292 146.942 226.467 147.318 226.791C147.897 227.287 149.273 222.748 153.424 215.177C153.819 214.457 154.833 215.321 156.604 215.001C158.284 214.696 159.285 213.243 158.978 213.052C158.728 212.897 158.604 213.089 158.463 213.241C157.589 214.185 156.692 214.681 154.263 214.228C154.032 214.186 153.946 214.12 153.995 213.978C154.125 213.605 161.105 199.818 160.835 199.679C160.719 199.62 160.572 199.594 160.392 199.919Z"
                    fill="#253E92" />
                <path id="Vector_42"
                    d="M151.32 225.092C151.263 225.041 151.233 225.016 151.138 225.156C151.103 225.219 151.11 225.311 151.223 225.508C151.816 226.552 151.863 227.152 151.488 227.757C151.235 228.165 150.634 228.526 149.622 228.154C149.309 228.034 149.093 228.198 149.214 228.537C149.77 230.082 149.049 233.033 146.934 232.69C146.029 232.544 145.351 231.741 145.023 230.225C144.849 229.418 144.648 229.745 144.481 229.92C144.093 230.495 143.586 230.981 142.997 231.347C141.481 232.287 139.443 230.967 139.383 228.782C139.431 228.1 139.626 227.436 139.955 226.838C140.284 226.238 140.739 225.718 141.288 225.311C141.897 224.874 142.3 225.231 142.648 225.246C142.695 225.254 142.743 225.246 142.786 225.227C142.829 225.208 142.866 225.177 142.893 225.137C142.919 225.098 142.933 225.052 142.933 225.004C142.935 224.957 142.923 224.91 142.897 224.87C142.745 224.556 141.605 224.03 141.898 222.59C142.249 220.866 143.578 220.265 144.426 220.606C145.103 220.88 144.865 221.271 145.02 221.391C145.175 221.511 145.27 221.448 145.27 221.34C145.57 220.02 143.716 219.569 142.692 220.296C142.067 220.712 141.607 221.334 141.395 222.056C141.183 222.776 141.232 223.548 141.533 224.236C141.79 224.732 140.976 224.272 139.785 225.935C137.184 229.563 140.178 233.16 142.835 232.127C143.445 231.872 143.97 231.453 144.355 230.916C144.922 230.375 144.724 233.462 147.426 233.316C149.373 233.216 149.964 231.458 149.909 229.187C149.909 229 149.809 228.791 149.971 228.785C150.405 228.896 150.863 228.842 151.259 228.633C151.654 228.424 151.957 228.076 152.11 227.656C152.218 227.196 152.202 226.718 152.063 226.266C151.925 225.815 151.668 225.41 151.32 225.092Z"
                    fill="#253E92" />
                <path id="Vector_43"
                    d="M169.294 159.832C165.909 160.353 162.725 161.777 160.081 163.955C148.589 175.371 155.657 191.16 167.698 193.608C170.131 194.134 172.65 194.122 175.079 193.576C177.508 193.029 179.789 191.96 181.762 190.442C183.736 188.924 185.356 186.994 186.508 184.787C187.66 182.58 188.319 180.149 188.435 177.663C188.553 175.175 188.128 172.692 187.188 170.387C186.249 168.082 184.818 166.008 182.997 164.312C181.175 162.614 179.005 161.334 176.639 160.56C174.273 159.788 171.766 159.539 169.294 159.832ZM171.557 193.286C168.244 193.317 164.999 192.347 162.247 190.503C159.495 188.658 157.365 186.026 156.135 182.95C154.905 179.873 154.632 176.498 155.355 173.264C156.076 170.031 157.758 167.091 160.18 164.83C168.653 156.569 184.489 159.81 187.583 173.858C189.665 183.316 181.633 193.352 171.557 193.286Z"
                    fill="#253E92" />
                <path id="Vector_44"
                    d="M178.222 163.695C173.304 165.772 168.644 168.411 164.333 171.559C163.922 171.881 163.74 172.081 164.333 173.307C165.598 175.921 167.064 178.431 168.719 180.817C168.821 180.987 168.968 181.124 169.146 181.213C169.322 181.301 169.522 181.336 169.718 181.316C171.758 181.289 173.785 181.336 175.819 181.196C178.372 181.019 179.342 181.286 179.383 180.548C179.748 174.098 179.298 163.321 178.222 163.695ZM177.792 164.45C177.466 165.116 175.872 167.683 174.63 170.06C173.209 172.779 173.303 173.018 172.846 172.868C169.606 171.802 164.455 172.178 164.744 171.923C168.89 169.094 173.254 166.594 177.792 164.45ZM169.206 180.417C167.534 178.153 166.079 175.737 164.86 173.2C164.38 172.301 164.518 172.431 164.917 172.438C169.786 173.002 169.883 172.864 172.661 173.383C173.021 173.45 172.864 173.475 171.52 176.143C168.731 181.695 169.542 180.305 169.206 180.417ZM175.624 180.697C169.084 180.817 169.64 180.979 170.016 180.253C171.073 178.213 170.909 178.412 173.263 174.027C173.548 173.497 173.263 173.471 178.23 179.608C179.033 180.601 179.104 180.472 175.637 180.688L175.624 180.697ZM178.624 179.221C177.326 177.155 175.788 175.25 174.042 173.547C173.644 173.133 173.449 173.655 175.738 169.378C178.402 164.399 178.091 164.977 178.22 164.859C178.471 165.154 178.895 177.699 178.871 177.699C178.879 179.48 178.968 179.787 178.627 179.221H178.624Z"
                    fill="#253E92" />
                <path id="Vector_45"
                    d="M177.841 182.072C172.77 182.461 168.498 182.611 168.375 182.572C168.015 182.452 168.195 182.822 166.23 179.199C162.661 172.622 162.787 172.07 162.787 176.002C162.752 176.002 162.916 178.75 162.92 178.788C164.062 191.233 164.26 189.726 165.724 189.15C168.976 187.951 172.095 186.416 175.028 184.568C175.345 184.369 177.934 182.673 178.185 182.4C178.377 182.193 177.973 182.062 177.841 182.072ZM164.828 188.372C164.653 187.972 163.268 175.16 163.345 174.932C163.734 175.346 165.77 180.244 167.665 182.732C167.824 182.942 167.899 182.625 165.132 187.905C164.893 188.378 164.908 188.305 164.83 188.372H164.828ZM165.368 188.475C168.276 183.258 168.153 183.157 168.495 183.195C168.562 183.195 172.287 183.18 172.767 183.142C174.615 182.998 175.28 182.796 176.764 182.793C176.971 182.673 176.919 182.683 176.977 182.728C176.949 182.737 164.808 189.48 165.37 188.475H165.368Z"
                    fill="#253E92" />
            </g>
        </g>
    </g>
</svg>