<svg width="240" height="240" viewBox="0 0 240 240" fill="none" xmlns="http://www.w3.org/2000/svg">
<g id="Whale-Slang--Streamline-Milano">
<g id="Whale-Slang--Streamline-Milano.svg">
<g id="Group">
<path id="Vector" d="M148.715 32.4332C148.738 35.3951 148.147 38.3297 146.978 41.0515C145.81 43.7733 144.09 46.2233 141.926 48.2463C139.763 50.2695 137.203 51.822 134.41 52.8056C131.615 53.7892 128.647 54.1826 125.694 53.961C122.741 53.7393 119.865 52.9075 117.249 51.5179C114.633 50.1283 112.334 48.2113 110.496 45.888C108.659 43.5647 107.324 40.8854 106.574 38.0197C105.825 35.154 105.679 32.1641 106.144 29.2388C106.998 23.8359 109.869 18.9577 114.177 15.5869C118.485 12.2161 123.91 10.6032 129.36 11.0732C139.808 11.7596 148.502 20.7596 148.715 32.4332ZM117.732 50.7704C120.857 52.4107 124.348 53.2266 127.876 53.1408C131.404 53.055 134.851 52.0704 137.892 50.28C140.933 48.4897 143.466 45.9529 145.253 42.9099C147.04 39.8669 148.02 36.4182 148.102 32.8904C148.213 21.3452 138.918 12.308 129.107 11.8448C105.892 10.7408 98.3617 40.73 117.732 50.7704Z" fill="#253E92"/>
<path id="Vector_2" d="M119.79 47.508C118.926 47.4444 118.97 47.2332 117.729 43.824C116.463 40.4388 115.454 36.9628 114.711 33.426C114.642 33.1176 114.38 32.9976 117.772 31.8192C118.641 31.4982 119.546 31.283 120.466 31.1784C121.009 31.1268 121.017 30.6372 122.54 35.3112C122.54 35.3412 123.8 39.7092 123.816 39.7344C123.956 40.2444 123.687 39.7632 129.739 38.2776C132.412 37.6212 132.379 37.734 132.609 38.202C133.194 39.511 133.6 40.8919 133.821 42.3084C134.034 43.4928 134.22 44.0376 133.599 44.3244C129.088 45.7524 124.471 46.8169 119.79 47.508ZM119.803 46.998C120.403 46.7424 122.848 46.5456 133.142 43.6812C133.525 43.5744 133.552 44.0268 132.172 39.0096C131.95 38.1996 132.058 38.3136 131.282 38.5296C123.025 40.7856 123.536 41.0808 123.229 40.032C122.221 36.5892 121.982 35.3184 120.709 31.9524C120.566 31.5768 120.597 31.6956 118.922 32.22C114.994 33.4524 115.359 33.2184 115.458 33.6948C115.68 34.7784 119.803 48.1572 119.803 46.998Z" fill="#253E92"/>
<path id="Vector_3" d="M135.015 33.3597C134.504 33.4053 134.476 32.9793 134.277 32.3997C131.68 24.9009 132.357 24.4029 131.726 24.7065C129.136 25.7745 126.456 26.6102 123.719 27.2037C123.148 27.3585 122.98 26.8437 121.988 23.8641C121.085 21.1557 121.148 21.0705 121.659 20.8977C126.117 19.3726 130.68 18.179 135.315 17.3265C136.106 17.2461 135.962 16.7577 137.649 20.8977C138.85 23.8722 139.866 26.918 140.692 30.0177C141.11 31.5501 142.044 31.7493 135.015 33.3597ZM135.3 17.7897C132.086 18.5937 131.34 18.6933 122.608 21.3693C121.784 21.6225 122.008 21.5913 122.331 22.6293C123.623 26.8197 123.464 26.7093 123.902 26.5785C128.582 25.1697 127.288 25.5537 132.024 23.9865C132.512 23.8257 132.171 23.3061 134.927 32.4045C135.082 32.9145 134.768 32.8641 137.988 31.9077C140.582 31.1373 140.434 31.3005 140.315 30.8877C139.39 27.3387 138.196 23.8651 136.744 20.4969C135.587 17.7489 135.566 17.7669 135.3 17.7873V17.7897Z" fill="#253E92"/>
<path id="Vector_4" d="M114.619 29.9514C113.734 29.8794 113.361 30.1506 112.428 25.0074C112.245 24.0018 112.172 23.9214 117.468 22.1646C117.937 22.0098 118.117 22.0926 118.395 22.5378C118.955 23.4356 119.385 24.4086 119.671 25.4274C120.422 28.0518 120.291 28.2738 119.659 28.4886C118.037 29.1587 116.347 29.6492 114.619 29.9514ZM117.652 22.8918C116.172 23.2976 114.723 23.8093 113.316 24.423C112.782 24.645 113.056 24.423 114.156 29.0142C114.29 29.5782 114.285 29.295 119.278 27.9078C119.628 27.8106 119.648 27.9978 118.701 25.167C117.96 22.9674 117.915 22.8738 117.652 22.8918Z" fill="#253E92"/>
<path id="Vector_5" d="M143.3 40.3542C143.556 41.3742 138.915 42.5478 137.744 42.7422C136.851 42.8898 136.004 38.7234 135.841 37.8282C135.678 36.933 135.503 37.0002 136.543 36.4302C137.919 35.7822 139.379 35.3263 140.88 35.0754C141.775 34.8894 142.014 35.115 142.155 35.5122C142.73 37.0741 143.115 38.6999 143.3 40.3542ZM137.857 42.1962C143.234 40.3614 142.707 40.539 142.563 39.8994C142.399 39.1722 141.987 37.3794 141.589 35.7882C141.498 35.4222 141.475 35.469 138.803 36.2982C136.014 37.1634 136.237 37.1094 136.332 37.3974C136.745 39.0258 137.253 40.6283 137.857 42.1962Z" fill="#253E92"/>
<path id="Vector_6" d="M131.421 33.751C131.421 34.177 131.626 34.3354 130.891 34.6258C129.436 35.1816 127.937 35.6143 126.411 35.9194C125.577 36.0034 125.889 36.4774 124.204 31.1134C123.995 30.4474 124.143 30.1798 124.691 29.9554C126.172 29.2974 127.742 28.8622 129.35 28.6642C129.581 28.6462 129.722 28.8406 129.809 29.0398C130.557 30.5302 131.099 32.1151 131.421 33.751ZM126.291 35.4226C126.581 35.2762 126.115 35.4142 128.561 34.7098C130.841 34.0546 130.916 34.1362 130.778 33.805C130.551 33.259 130.469 32.8918 129.373 29.5594C129.233 29.1358 129.271 29.2102 127.655 29.6674C124.702 30.5074 124.664 30.3934 124.775 30.7846C124.789 30.8194 126.105 35.095 126.291 35.4226Z" fill="#253E92"/>
<path id="Subtract" fill-rule="evenodd" clip-rule="evenodd" d="M110.291 52.6311C98.977 42.7311 98.827 25.9467 106.647 16.4799C126.53 -7.58963 162.029 13.7319 152.946 40.8903C147.384 57.5227 128.943 63.1267 115.417 56.1252C115.47 55.7809 115.507 55.4583 115.529 55.1559C116.159 55.4948 116.803 55.8081 117.461 56.0944C121.184 57.7152 125.239 58.4302 129.293 58.1811C141.825 57.5463 152.16 47.8083 153.306 34.1655C153.686 27.8095 151.692 21.5388 147.709 16.5703C143.727 11.6017 138.041 8.28995 131.755 7.27756C125.468 6.26518 119.03 7.62441 113.689 11.0915C108.348 14.5586 104.486 19.8861 102.852 26.0403C101.826 29.9697 101.746 34.0862 102.619 38.0523C103.491 42.0186 105.291 45.7215 107.871 48.8576C109.443 50.7692 111.278 52.437 113.315 53.815C113.131 54.0508 112.954 54.298 112.781 54.5558C111.922 53.9718 111.09 53.3305 110.291 52.6311Z" fill="#253E92"/>
</g>
<g id="Group_2">
<path id="Vector_7" d="M126.138 89.4999C120.858 87.1083 111.204 89.5995 110.91 89.5503C112.436 88.8157 113.92 87.9993 115.358 87.1047C117.826 85.5543 116.852 84.8055 116.189 84.7803C113.128 84.6603 110.734 85.8699 110.189 85.7679C110.445 85.4079 116.824 82.4931 121.215 80.3799C125.98 78.0867 128.175 75.7623 127.455 73.8927C126.108 70.3791 118.478 72.6747 114.917 74.2527C108.041 77.3019 104.216 81.6927 105.399 79.8447C109.103 74.3479 112.255 68.4987 114.809 62.3823C115.427 60.7803 117.449 54.8223 116.34 52.3947C116.247 52.159 116.097 51.9498 115.905 51.785C115.712 51.6201 115.482 51.5047 115.235 51.4486C114.988 51.3927 114.731 51.3978 114.486 51.4635C114.241 51.5292 114.016 51.6536 113.83 51.8259C109.361 54.8391 106.899 68.3991 102.668 75.5067C102.313 76.1041 101.917 76.6755 101.482 77.2167C101.337 76.5975 104.602 67.7967 103.778 64.6479C103.496 63.5679 102.759 63.4815 102.098 63.9207C100.272 65.1399 99.43 70.2543 98.242 74.3799C97.702 76.2579 96.9436 78.3639 96.268 78.8547C96.4444 75.9171 98.5792 67.6947 98.4772 60.3867C98.4376 57.5427 98.1172 50.9523 94.9852 51.3051C93.268 51.4983 92.3632 53.4987 92.2852 56.4531C92.1652 61.1727 92.9788 64.2723 92.9128 70.4463C92.8948 72.1395 92.854 75.6063 92.6068 77.3187C92.4616 76.5279 92.3896 75.3747 92.0356 73.7595C91.2124 69.9987 89.5612 64.8651 86.0356 65.3187C84.8116 65.4759 84.0148 66.7143 84.6712 69.3519C85.6864 73.4319 86.7964 74.3643 88.8112 83.3487C90.5008 90.8847 88.8436 99.8235 86.7988 105.982C86.7901 106.008 86.7892 106.035 86.796 106.061C86.8027 106.088 86.8171 106.111 86.8372 106.13C88.0907 107.303 89.4045 108.41 90.7732 109.446C91.3168 109.796 93.0832 103.754 108.173 97.5867C117.216 93.8919 124.767 93.7551 126.84 91.5591C127.503 90.8475 127.12 89.9451 126.138 89.4999ZM109.832 95.7399C102.364 98.4999 95.4316 101.86 90.8056 108.184C90.8005 108.191 90.7943 108.197 90.7871 108.201C90.7798 108.205 90.7717 108.208 90.7633 108.209C90.7549 108.211 90.7464 108.21 90.7383 108.208C90.73 108.206 90.7223 108.202 90.7156 108.197C89.6959 107.446 88.7333 106.621 87.8356 105.728C87.7012 105.572 91.1356 97.0539 90.562 88.2879C89.7904 76.4835 83.6368 66.8859 86.3248 66.4131C86.7351 66.3911 87.1438 66.4796 87.5082 66.6697C87.8725 66.8596 88.1791 67.144 88.396 67.4931C90.3028 69.7119 91.4128 74.8911 91.876 78.6819C92.3692 82.6947 92.116 83.5311 92.338 83.7843C93.7492 85.3635 93.898 70.7919 93.898 70.6587C93.898 60.7527 92.446 53.9787 94.7548 52.5135C96.256 51.5619 97.1872 55.2735 97.2748 59.9367C97.3267 62.2667 97.2337 64.5975 96.9964 66.9159C96.1732 74.7591 94.2364 82.1055 96.5812 79.9959C99.3796 77.4759 100.224 67.3383 102.278 65.1843C102.586 64.8603 102.821 65.0211 102.867 65.5767C103.158 69.1167 100.347 76.5183 100.028 79.5675C99.988 79.9347 100.437 80.2803 100.81 79.8219C108.087 70.8819 109.052 59.1351 113.41 53.6919C114.55 52.2699 115.311 52.3599 115.472 53.3247C115.943 56.1567 114.624 61.8111 107.745 73.7895C96.1588 93.9603 107.318 75.0927 122.536 73.2351C126.016 72.8103 128.056 74.4843 124.676 77.0415C120.668 80.0763 112.686 82.5495 100.406 90.2691C100.25 90.3314 100.111 90.4277 99.9979 90.5508C99.8848 90.674 99.8005 90.8209 99.7516 90.9807C99.7216 91.1127 99.8716 91.5375 100.2 91.3251C106.101 87.4851 114.592 85.3095 115.646 85.7283C114.964 86.7027 103.823 91.9767 102.291 93.5499C102.039 93.8079 102.392 94.1763 102.984 93.8451C113.936 87.7167 125.63 89.7327 125.874 90.7683C126.173 91.9611 115.57 93.6171 109.832 95.7423V95.7399Z" fill="#253E92"/>
</g>
<g id="Group_3">
<path id="Vector_8" d="M218.832 121.349C212.97 124.74 203.411 123.885 196.325 124.758C183.005 126.397 180.457 133.943 180.104 133.26C177.636 128.479 173.377 125.161 166.878 123.526C159.42 121.649 152.358 123.304 145.665 121.084C144.074 120.556 143.018 119.807 142.257 120.393C141.212 121.199 142.842 127.638 143.155 128.73C143.88 131.435 145.131 133.971 146.837 136.192C148.541 138.413 150.667 140.277 153.092 141.676C158.941 144.726 165.269 146.755 171.801 147.676C172.281 147.809 172.5 148.002 172.447 148.548C171.583 157.357 164.853 164.653 154.807 167.035C136.653 171.342 129.342 155.298 103.335 121.027C84.9011 96.737 56.6135 87.0674 40.0691 94.3766C31.8563 98.003 31.9415 101.068 30.7451 101.097C26.9183 101.17 23.2295 105.601 21.6887 109.045C11.1167 132.676 27.0347 172.991 42.6887 193.797C43.1687 194.437 43.7087 194.329 39.3491 195.487C36.6599 196.201 31.5779 197.047 29.3999 195.324C28.4399 194.561 27.6959 195.725 29.4863 196.937C33.5087 199.657 42.6731 196.097 46.5071 195.113C52.2935 193.623 52.3163 198.209 57.2675 198.526C64.1987 198.97 69.9071 195.173 71.3747 197.686C73.6799 201.624 77.3339 200.859 84.1655 199.584C89.8979 198.515 93.1115 197.633 94.8455 200.038C95.9327 201.546 96.6575 202.698 98.6855 202.75C103.319 202.87 104.912 201.6 105.464 202.192C113.888 211.578 125.1 218.016 137.454 220.559C139.173 220.929 140.563 220.833 139.974 219.043C139.397 217.307 138.47 217.291 134.064 205.756C123.963 179.32 111.063 168.898 109.65 167.035C109.602 166.969 109.577 166.89 109.58 166.809C109.583 166.727 109.614 166.65 109.666 166.588C109.719 166.527 109.791 166.485 109.871 166.469C109.951 166.453 110.034 166.465 110.106 166.503C112.794 168.154 117.786 174.063 119.826 176.497C124.827 182.497 128.773 190.408 132.469 197.377C132.854 198.105 133.055 198.623 133.895 198.243C135.721 197.376 137.657 196.759 139.647 196.408C140.607 196.336 140.057 196.962 139.716 198.655C139.643 198.929 139.635 199.215 139.692 199.492C139.749 199.769 139.872 200.028 140.047 200.25C140.222 200.471 140.448 200.649 140.705 200.767C140.961 200.887 141.241 200.944 141.524 200.935C145.979 200.895 154.435 195.635 158.775 195.907C159.795 195.971 158.629 196.781 158.223 198.233C158.157 198.43 158.143 198.641 158.184 198.845C158.225 199.048 158.317 199.237 158.454 199.395C158.591 199.551 158.766 199.669 158.963 199.737C159.158 199.804 159.369 199.819 159.573 199.78C160.415 199.716 161.247 199.581 162.066 199.377C173.798 196.312 175.332 196.263 176.352 196.032C176.721 195.948 177.596 196.332 177.303 196.971C176.648 198.399 174.663 201.25 179.4 201.208C179.415 201.208 184.735 200.827 185.508 200.752C187.293 200.575 193.325 199.385 194.161 198.82C194.43 198.637 194.603 197.872 193.905 197.8C191.808 197.581 189.176 198.955 180.895 199.458C180.126 199.605 179.337 199.605 178.568 199.458C177.411 199.135 179.33 198.001 179.132 196.323C178.79 193.417 174.752 194.891 173.819 194.687C175.793 191.055 183.884 182.961 186.977 152.136C187.199 149.921 186.813 150.013 188.676 150.096C198.371 150.519 205.667 148.201 211.217 143.553C219.017 137.02 221.496 126.137 221.723 122.229C221.838 120.095 220.68 120.281 218.832 121.349ZM82.1747 121.455C82.9199 120.471 84.0211 119.819 85.2419 119.638C86.4625 119.457 87.7055 119.762 88.7039 120.487C90.6059 121.979 90.3563 124.651 89.4827 123.9C88.8419 123.349 88.4999 120.78 85.7243 121.095C85.0644 121.188 84.4376 121.443 83.8991 121.836C83.3605 122.229 82.9266 122.747 82.6355 123.347C81.9275 124.679 80.9519 122.961 82.1747 121.455ZM84.1727 133.153C84.4127 133.233 84.4955 133.255 84.4547 133.464C84.4191 133.914 84.279 134.35 84.0455 134.737C83.812 135.124 83.4914 135.45 83.1095 135.691C82.2323 136.109 81.6227 135.571 81.5495 134.214C81.3395 130.086 84.0287 129.125 84.5903 130.768C84.6767 131.022 84.5723 130.995 84.2939 131.056C84.0548 131.099 83.837 131.22 83.6757 131.403C83.5145 131.584 83.4192 131.814 83.4052 132.057C83.3911 132.299 83.4593 132.539 83.5986 132.738C83.7378 132.937 83.9401 133.084 84.1727 133.153ZM51.3599 120.827C57.5843 124.054 60.5915 135 68.4719 147.63C71.7731 152.921 78.5951 161.661 84.7991 162.299C89.9003 162.823 93.0875 160.548 95.4263 155.998C95.7179 155.431 95.3987 155.398 94.4771 155.044C94.1735 154.924 93.1079 154.677 93.6563 154.217C94.2047 153.757 96.0815 153.891 97.1027 155.649C97.613 156.533 97.829 157.557 97.7195 158.572C97.2803 159.423 96.8675 158.033 96.5435 157.14C96.3779 156.684 95.9831 156.754 95.7959 157.069C86.6015 172.643 97.3559 191.707 97.7831 191.764C97.2095 191.682 79.5671 175.115 69.2879 160.998C54.8351 141.15 54.3191 132.469 51.4007 121.378C51.3359 121.138 51.3227 121.414 51.3599 120.827ZM55.1099 196.121C51.6035 193.953 50.9975 192.161 45.3011 193.776C44.5607 193.986 44.7011 194.287 41.0939 188.845C32.6449 176.002 26.3615 161.859 22.4939 146.98C21.3008 142.438 20.465 137.808 19.9943 133.135C19.9943 133.108 19.6475 126.857 19.7387 126.852C19.7387 105.732 29.6063 100.385 33.2603 102.873C33.5639 103.079 32.0135 103.224 29.9975 108.789C27.7064 115.878 27.1989 123.424 28.5203 130.756C32.384 155.278 43.2096 178.175 59.7095 196.723C58.1503 196.993 56.5459 196.783 55.1087 196.121H55.1099ZM77.0483 198.831C72.2015 198.899 73.7315 196.026 70.7939 195.246C68.9459 194.755 63.8411 196.194 62.2319 196.493C61.4663 196.636 61.5059 196.493 58.2371 192.754C54.4784 188.173 51.0307 183.346 47.9171 178.305C41.8746 168.815 37.1349 158.556 33.8255 147.804C31.5789 140.539 30.0477 133.072 29.2535 125.508C28.7429 119.299 29.688 113.057 32.0135 107.278C32.474 106.185 33.0957 105.167 33.8579 104.257C34.0889 103.939 34.4186 103.705 34.796 103.593C35.1733 103.481 35.5771 103.496 35.9447 103.637C43.1795 105.934 38.3447 113.717 43.1663 134.062C44.5235 140.983 46.7523 147.705 49.7999 154.065C63.9959 185.365 79.6703 197.687 80.2211 198.479C79.1707 198.657 78.111 198.774 77.0471 198.831H77.0483ZM103.688 200.496C103.449 200.575 103.204 200.639 102.956 200.687C97.8083 201.269 97.8215 201.339 96.1343 198.901C92.9987 194.373 82.7339 198.927 81.8147 198.016C78.2799 194.749 74.9613 191.256 71.8799 187.559C62.6267 176.597 52.9691 158.529 48.5687 147.283C43.2719 133.747 42.6035 121.99 41.6303 110.676C41.5103 109.255 41.1503 108.057 41.5919 108.3C44.9001 110.331 47.3928 113.456 48.6371 117.132C53.6051 130.678 49.9379 146.983 88.3703 184.649C96.6119 192.726 99.2903 194.105 100.406 195.652C104.319 201.093 102.792 199.049 103.783 200.256C103.895 200.368 103.856 200.453 103.686 200.496H103.688Z" fill="#253E92"/>
<path id="Vector_9" d="M168.577 229.205C166.281 227.508 155.673 231.414 154.819 231.586C153.543 231.84 153.798 228.27 151.268 228.364C148.439 228.468 142.73 230.952 141.249 231.724C140.485 232.121 140.231 230.586 138.777 229.204C136.866 227.392 130.497 230.629 128.175 231.724C127.953 231.828 128.006 231.979 127.181 229.938C126.95 229.369 126.511 228.911 125.953 228.655C125.395 228.401 124.761 228.37 124.181 228.568C122.436 228.865 120.731 229.36 119.096 230.04C113.928 232.181 114.74 232.59 114.186 231.287C112.986 228.48 113.061 227.313 107.729 229.629C101.15 232.487 101.275 232.141 100.797 230.823C100.32 229.504 100.07 227.937 98.3253 227.994C95.2641 228.094 87.9909 233.292 85.9653 231.613C85.8963 231.549 85.8107 231.504 85.7178 231.485C85.625 231.466 85.5287 231.473 85.4396 231.505C85.3507 231.538 85.2726 231.595 85.2141 231.67C85.1556 231.744 85.119 231.833 85.1085 231.928C84.9885 232.813 85.4685 233.136 86.3481 233.496C87.2277 233.856 90.4281 232.907 91.4781 232.425C98.0205 229.414 98.4177 229.175 98.8185 230.193C99.5325 232.007 99.2985 234.933 104.721 232.744C111.93 229.834 111.708 229.481 112.26 231.106C113.646 235.186 114.105 234.226 117.637 232.596C119.883 231.477 122.279 230.686 124.749 230.249C125.543 230.147 125.423 230.377 126.42 232.698C127.5 235.211 130.247 232 134.966 230.82C137.336 230.227 137.574 230.211 137.987 230.904C141.209 236.317 141.252 232.224 150.915 230.086C152.273 229.785 152.091 233.433 154.586 233.458C156.339 233.105 158.059 232.602 159.727 231.958C163.727 230.609 169.898 230.182 168.577 229.205Z" fill="#253E92"/>
<path id="Vector_10" d="M195.185 211.708C193.765 210.916 189.665 212.878 183.545 213.829C181.771 214.104 182.213 212.841 180.484 212.956C178.356 213.097 179.542 212.892 174.964 213.94C172.816 214.432 172.966 214.452 172.825 213.981C172.337 212.343 172.399 211.568 170.854 210.698C169.042 209.678 164.509 212.314 160.211 213.321C159.143 213.571 159.689 211.716 159.113 210.091C158.96 209.648 158.656 209.274 158.254 209.034C157.853 208.794 157.379 208.702 156.917 208.777C154.01 209.266 147.732 212.919 145.438 212.349C144.736 212.174 144.991 211.686 144.926 211.162C144.862 210.639 144.235 210.555 143.906 211.042C143.713 211.358 143.608 211.72 143.602 212.091C143.596 212.462 143.689 212.827 143.873 213.15C146.033 216.066 154.109 210.906 157.172 210.535C158.33 210.394 156.504 216.004 161.047 214.963C166.976 213.604 170.018 210.716 170.795 213.163C171.463 215.268 171.155 216.058 173.142 216.058C173.162 216.439 177.828 214.85 180.262 214.707C181.15 214.654 181.537 215.594 182.471 215.661C184.925 215.838 193.456 213.261 193.481 213.261C194.096 213.141 194.57 212.648 195.232 212.661C195.391 212.653 195.69 211.99 195.185 211.708Z" fill="#253E92"/>
<path id="Vector_11" d="M88.3557 215.639C89.8077 218.41 93.2025 214.767 97.6209 214.389C98.6673 214.3 98.1309 214.749 99.1521 216.113C99.8721 217.084 100.855 216.658 103.489 215.884C105.217 215.376 110.4 214.06 108.846 213.154C108.47 212.943 108.027 212.887 107.611 212.999C100.82 214.345 100.669 215.725 100.06 214.114C99.1377 211.669 95.9661 212.794 93.3405 213.726C89.9481 214.926 90.1317 215.256 89.7105 214.474C88.6701 212.537 88.8225 211.894 87.4305 210.963C85.3569 209.574 77.8557 214.05 75.3969 213.983C73.8285 213.941 74.5041 212.652 74.1597 211.257C73.1409 207.133 65.4321 212.886 60.9705 213.657C60.5826 213.777 60.1666 213.766 59.785 213.628C59.4035 213.49 59.0775 213.231 58.8561 212.891C58.0161 212.344 57.5517 215.182 60.7665 215.159C64.1073 215.136 68.1933 212.019 71.9913 211.452C73.4409 211.236 71.6445 213.84 73.8357 215.254C75.0729 216.052 76.8429 215.542 78.1725 215.086C88.0221 211.699 85.9509 211.05 88.3557 215.639Z" fill="#253E92"/>
</g>
<g id="Group_4">
<path id="Vector_12" d="M155.627 66.5679C141.033 84.5331 153.587 111.928 177.107 111.928C180.74 111.964 184.342 111.278 187.707 109.911C192.708 107.87 197.009 104.421 200.088 99.9832C203.168 95.5452 204.893 90.309 205.054 84.9099C205.931 58.6263 172.374 45.9591 155.627 66.5679ZM203.693 88.4799C203.067 92.3966 201.581 96.126 199.342 99.4007C197.104 102.676 194.169 105.414 190.748 107.421C186.573 109.794 181.86 111.06 177.058 111.097C148.971 109.355 141.507 76.7991 161.662 62.1471C180.719 48.2931 207.352 64.7343 203.693 88.4799Z" fill="#253E92"/>
<path id="Vector_13" d="M155.04 89.7135C155.631 91.9596 156.559 94.1036 157.789 96.0735C160.728 100.712 165.246 104.129 170.509 105.694C192.014 112.083 208.845 85.6299 193.541 68.8743C178.338 52.2219 149.726 65.7495 155.04 89.7135ZM198.137 88.3563C197.529 91.2561 196.337 94.0016 194.631 96.4244C192.926 98.8472 190.745 100.896 188.22 102.447C185.695 103.997 182.881 105.016 179.948 105.44C177.017 105.865 174.029 105.687 171.168 104.916C150.075 98.7603 149.885 70.3107 169.836 63.5247C186.509 57.8595 201.764 73.0383 198.138 88.3563H198.137Z" fill="#253E92"/>
<path id="Vector_14" d="M186.908 67.779C181.596 69.4311 176.475 71.6503 171.638 74.3982C167.465 76.6782 167.411 76.539 167.778 77.4846C169.302 81.5132 171.12 85.4241 173.217 89.1858C173.519 89.6658 173.295 89.6826 179.594 90.1074C181.808 90.3201 184.033 90.4056 186.258 90.363C187.056 90.363 186.897 90.2934 187.212 87.2346C187.787 82.323 188.089 77.3835 188.118 72.4386C187.941 67.2078 188.15 67.3638 186.908 67.779ZM186.957 68.4606C186.773 68.8206 180.008 79.0206 179.99 79.0494C179.589 79.6158 180.05 78.8022 169.316 76.8486C169.173 76.8222 169.242 76.869 169.062 76.7082C169.853 75.7974 187.4 67.5954 186.96 68.4606H186.957ZM172.454 86.3022C168.174 76.7814 168.181 77.343 168.627 77.3742C173.454 78.3342 172.676 78.1038 179.051 79.611C179.699 79.7646 179.636 79.533 177.587 82.7442C173.246 89.5446 174.366 87.891 173.987 88.491C173.675 89.001 173.819 89.3382 172.454 86.3022ZM185.834 89.7534C179.87 89.1114 174.126 89.2638 174.314 88.9398C174.643 88.3662 174.758 88.2306 176.903 84.8838C180.307 79.5726 179.877 79.8834 180.365 80.6106C187.239 90.8718 186.534 89.7582 185.834 89.7582V89.7534ZM187.22 75.3582C186.38 89.5914 186.733 89.7582 185.924 88.1322C184.477 85.2384 182.705 82.5181 180.644 80.0238C180.164 79.4238 180.272 79.713 182.364 76.5042C187.779 68.1978 187.091 69.1338 187.428 68.8842C187.497 69.2106 187.286 74.223 187.22 75.3582Z" fill="#253E92"/>
<path id="Vector_15" d="M184.546 91.66C170.55 90.94 172.456 91.1728 172.239 91.18C171.885 91.18 171.862 91.18 168.89 84.2584C166.579 78.8776 166.75 78.5932 166.339 78.646C166.062 78.682 166.003 78.9016 165.962 79.9492C165.814 83.6848 165.68 92.1088 165.962 94.774C166.442 99.334 165.962 100.131 167.042 99.7744C172.86 98.017 178.497 95.7106 183.878 92.8864C184.851 92.3944 185.198 92.2156 185.185 91.9264C185.172 91.6372 184.8 91.6792 184.546 91.66ZM166.88 98.5C166.852 98.0836 166.443 81.0532 166.64 80.4664C166.869 80.8444 167.924 83.5372 168.89 85.8232C171.404 91.7716 171.638 91.2448 171.127 92.0104C168.811 95.4868 167 98.4544 166.88 98.5ZM167.556 98.62C168.093 97.6924 167.728 98.29 170.788 93.688C171.868 92.0656 171.924 91.5688 172.828 91.8388C173.988 91.8676 183.441 92.17 183.564 92.1988C184.56 92.3992 167.086 99.4276 167.556 98.6176V98.62Z" fill="#253E92"/>
</g>
<g id="Group_5">
<path id="Vector_16" d="M77.4522 37.6492C67.0242 19.3432 39.3954 20.2564 30.5322 40.5172C29.1073 43.7355 28.347 47.2083 28.2968 50.7276C28.2467 54.2468 28.9079 57.7399 30.2406 60.9974C31.5733 64.2549 33.5502 67.2097 36.0527 69.6847C38.5552 72.1596 41.5318 74.1036 44.8038 75.4C54.7074 79.1308 62.5638 77.2084 68.8302 73.3084C74.5705 69.608 78.6676 63.8414 80.2726 57.2031C81.8777 50.5648 80.8679 43.5634 77.4522 37.6492ZM29.3994 53.9068C28.8994 49.6574 29.4774 45.3505 31.0801 41.3832C32.6828 37.416 35.2588 33.9162 38.5703 31.2064C41.8817 28.4968 45.8221 26.6647 50.0281 25.8789C54.2341 25.0932 58.5703 25.379 62.6366 26.7103C66.7031 28.0416 70.3688 30.3753 73.2958 33.4963C76.2228 36.6172 78.3168 40.4251 79.3847 44.5684C80.4527 48.7118 80.4601 53.0574 79.4064 57.2043C78.3527 61.3513 76.2718 65.1662 73.3554 68.2972C58.7346 84.0976 31.7094 75.4012 29.3994 53.9068Z" fill="#253E92"/>
<path id="Vector_17" d="M63.3067 31.7754C52.8966 26.9598 39.6354 31.617 35.097 42.0198C28.6206 56.8674 39.3858 72.4794 53.9502 72.525C66.705 72.567 75.4027 62.4966 75.6871 52.701C75.9847 42.4482 71.1391 35.3994 63.3067 31.7754ZM64.299 69.0222C60.9414 70.7693 57.2071 71.6679 53.4223 71.6394C48.6036 71.4075 44.0209 69.4842 40.4799 66.2077C36.9389 62.9314 34.6664 58.5114 34.0617 53.7252C33.4572 48.939 34.5593 44.0928 37.1743 40.0387C39.7892 35.9847 43.7498 32.9823 48.3594 31.5594C55.8378 29.235 65.5494 31.5738 70.7994 38.6394C77.6598 47.8914 76.1154 62.6286 64.299 69.0222Z" fill="#253E92"/>
<path id="Vector_18" d="M62.8553 45.2532C61.2845 45.2316 64.3636 43.7676 61.9576 39.7332C61.4325 38.7637 60.6115 37.9873 59.6143 37.517C58.6171 37.0466 57.4958 36.9071 56.4137 37.1184C53.0981 37.6284 53.266 38.6784 52.9012 37.9092C51.4468 34.8468 51.2501 34.2168 50.1485 34.6872C47.4053 35.8584 47.2829 35.9832 47.5649 36.822C48.7433 40.338 49.5772 40.032 48.5668 40.488C48.2884 40.614 48.4085 40.6284 46.5869 36.888C46.4189 36.5424 46.0949 36.6636 45.7469 36.8112C42.7469 38.1084 42.4312 38.3136 42.8008 39.1296C44.3524 42.5652 44.3056 42.1896 43.9108 42.3696C40.3348 43.9488 39.1109 44.3844 39.3641 45.1452C39.708 46.344 40.2117 47.4911 40.8616 48.5556C41.248 49.1316 41.2324 49.1676 44.5252 47.7492C44.9152 47.5812 44.7652 47.8356 45.5248 49.5756C48.6736 56.7912 48.0101 55.308 48.1889 55.6704C50.4221 60.1908 50.8072 59.9028 50.4184 60.048C49.3212 60.4344 48.2683 60.9373 47.278 61.548C46.8964 61.788 46.8508 61.926 47.002 62.3292C47.4496 63.5292 48.2777 66.2352 49.2041 65.8728C50.8143 65.3011 52.3856 64.6253 53.908 63.8496C54.2345 63.684 54.1144 64.0056 54.7672 65.3544C56.1388 68.1864 55.5737 68.0532 59.2397 66.4128C59.3136 66.3726 59.3808 66.3211 59.4389 66.2604C59.7521 65.9844 59.7425 65.9508 59.5793 65.5608C57.9749 61.7328 57.9952 61.9164 58.2364 61.8192C58.5784 61.6812 58.7032 61.4952 58.816 61.7676C59.2437 62.9612 59.8112 64.0999 60.5068 65.16C60.7936 65.52 60.778 65.52 61.234 65.4156C62.1486 65.1508 63.0274 64.7756 63.8512 64.2984C64.8856 63.7896 64.408 63.054 63.6448 61.3596C62.9764 59.8752 62.6656 59.7216 63.1649 59.5536C64.923 58.7654 66.475 57.5814 67.6996 56.094C69.4373 53.6676 69.2944 51.1932 68.0776 48.4896C67.6258 47.4934 66.8882 46.6538 65.9583 46.0776C65.0286 45.5015 63.9485 45.2144 62.8553 45.2532ZM68.2793 51.6552C68.2121 54.6408 67.18 56.9472 62.5 59.1432C61.768 59.4864 62.1268 59.4672 62.6608 60.7584C63.88 63.7008 63.9209 63.6384 63.5873 63.7884C60.8273 65.0604 61.0132 65.1084 60.8932 64.8288C58.9564 60.3996 59.2133 60.6288 57.7049 61.386C57.3017 61.5876 57.2969 61.4796 58.192 63.6408C59.0872 65.802 59.212 65.7912 58.9336 65.9208C55.2136 67.5876 56.8684 67.7448 54.5692 63.564C54.2248 62.9364 54.3809 63.084 51.2705 64.4748C49.0949 65.4444 49.1248 65.4216 48.9748 65.2608C48.478 64.3538 48.0294 63.4213 47.6309 62.4672C47.4065 61.9872 47.1184 62.2512 50.692 60.5352C51.592 60.1032 51.46 60.7896 48.292 54.1884C44.902 47.1384 45.4852 46.6284 44.6752 46.9884C43.534 47.4816 42.8633 47.7984 42.2381 48.0564C41.1257 48.5172 41.506 48.606 39.9424 45.1764C39.802 44.868 39.7025 44.9784 42.5393 43.7304C44.8001 42.7332 45.0917 42.8016 44.9453 42.3012C44.8313 41.9136 43.5988 39.1272 43.4836 38.868C43.336 38.5356 43.4404 38.6484 45.8584 37.4388C46.1548 37.2912 45.9881 37.2384 47.5385 40.3068C48.0017 41.2272 48.2213 41.2668 48.5885 41.1252C50.1785 40.5084 49.9613 40.8648 48.2285 36.8424C47.9753 36.252 47.9344 36.4152 50.5444 35.1684C50.8276 35.034 50.8349 35.0832 51.4637 36.3852C52.7429 39.0396 52.5784 39.09 53.1772 38.85C54.5149 38.1353 55.9985 37.7363 57.5141 37.6836C60.8993 37.7172 63.598 42.7512 61.486 45.3708C61.2676 45.642 61.384 46.044 61.8916 45.99C62.6276 45.864 63.3818 45.894 64.1053 46.0782C64.8289 46.2624 65.5056 46.5966 66.0917 47.0592C67.3971 48.2437 68.1831 49.895 68.2793 51.6552Z" fill="#253E92"/>
<path id="Vector_19" d="M59.04 49.3381C56.9903 49.7277 55.0277 50.4838 53.2464 51.5701C52.5804 51.9193 52.5876 51.9457 52.8252 52.6909C53.2404 54.0425 53.8081 55.3425 54.5172 56.5657C55.4688 58.1701 55.4496 58.2613 56.1036 58.0057C58.0899 57.2796 59.95 56.2467 61.6164 54.9445C62.155 54.4945 62.5306 53.8798 62.6851 53.1952C62.8397 52.5106 62.7646 51.7941 62.4715 51.1564C62.1785 50.5186 61.6837 49.995 61.0636 49.6665C60.4433 49.3379 59.7323 49.2225 59.04 49.3381ZM62.1984 52.3741C62.04 54.7105 59.5728 55.7413 57.42 56.6941C55.6008 57.5005 55.7736 57.4585 55.596 57.1249C54.5496 55.1677 53.4504 52.4449 53.436 52.4185C53.328 52.2385 53.4156 52.1629 53.5716 52.0789C56.6196 50.4637 60.6144 48.3829 62.0688 51.5989C62.1466 51.8503 62.1902 52.1111 62.1984 52.3741Z" fill="#253E92"/>
<path id="Vector_20" d="M57.3497 44.3266C56.6561 41.2066 54.3077 41.4682 51.3857 42.7954C49.5761 43.6174 48.8357 43.5022 49.2557 44.617C49.6925 45.9416 50.2795 47.212 51.0053 48.403C51.3101 48.949 51.5321 48.9838 52.0265 48.7978C53.0708 48.3935 54.0752 47.8925 55.0265 47.3014C56.3609 46.4926 57.3017 45.7426 57.3497 44.3266ZM51.8165 48.1834C51.6845 48.2494 51.6101 48.253 51.5369 48.0862C49.7369 44.0398 49.4969 44.1898 50.1209 43.9462C52.6037 42.979 56.1461 40.885 56.8013 44.2834C56.9345 46.2094 53.1125 47.5438 51.8165 48.1834Z" fill="#253E92"/>
</g>
</g>
</g>
</svg>
