<svg width="240" height="240" viewBox="0 0 240 240" fill="none" xmlns="http://www.w3.org/2000/svg">
<g id="Flippening-Slang--Streamline-Milano">
<g id="Flippening-Slang--Streamline-Milano.svg">
<path id="Vector" d="M141.48 20.3556C143.66 24.9336 143.775 28.0356 144.668 27.8076C157.538 24.5736 167.588 25.9944 173.634 27.8076C182.799 30.558 190.413 36.1692 197.868 44.5452C201.021 48.3851 203.778 52.5347 206.095 56.9304C206.52 57.9864 196.313 68.9616 186.895 73.3704C185.159 74.1828 175.689 46.2264 147.089 41.508C146.63 41.4324 147.098 41.1156 147.089 48.9252C147.089 49.776 146.917 50.358 146.211 50.136C136.53 47.0928 124.826 39.9684 125.409 37.9236C126.969 32.4636 136.725 22.0836 140.059 19.8336C140.88 19.2852 141.147 19.6476 141.48 20.3556Z" fill="#253E92"/>
<path id="Vector_2" d="M118.024 203.767C116.254 208.135 105.25 217.951 100.432 220.288C99.5397 220.722 99.2913 220.545 97.6233 214.191C96.7221 210.759 97.8345 211.657 93.7905 211.944C84.4894 212.684 75.1694 210.768 66.9155 206.416C58.6616 202.065 51.8133 195.459 47.1681 187.368C44.4375 182.89 42.2531 178.101 40.6617 173.104C40.4613 172.024 48.9417 165.531 61.4349 160.442C62.5485 159.987 62.6457 160.064 62.9241 160.734C69.9645 177.716 77.4525 191.694 96.5409 197.534C96.7041 197.584 96.7593 197.517 96.7809 197.371C96.9465 195.784 97.5981 190.518 98.1849 189.258C98.4249 188.733 98.6937 188.614 99.2097 188.874C103.052 190.816 115.298 199.633 118.024 203.767Z" fill="#253E92"/>
<g id="Group">
<path id="Vector_3" d="M189.64 194.305C220.799 182.641 233.017 138.353 207.054 111.701C181.596 85.5685 136.67 91.9273 122.11 130.421C107.851 168.127 145.073 210.988 189.64 194.305ZM120.907 146.216C121.936 109.967 159.775 86.9365 191.772 102.859C230.962 122.357 227.554 178.301 186.529 193.123C180.332 195.311 173.762 196.246 167.201 195.871C160.64 195.498 154.219 193.824 148.31 190.946C131.318 182.29 120.412 163.687 120.907 146.216Z" fill="#253E92"/>
<path id="Vector_4" d="M169.8 161.43C170.046 161.566 170.322 161.636 170.603 161.636C170.883 161.636 171.159 161.566 171.405 161.43C173.685 160.165 195.627 148.682 196.858 146.485C194.907 140.954 176.855 108.476 171.308 102.565C169.845 101.005 153.874 123.792 144.024 143.296C143.823 143.572 143.733 143.915 143.772 144.254C143.812 144.594 143.979 144.906 144.238 145.129C152.406 151.097 160.944 156.541 169.8 161.43ZM184.485 152.263C170.553 160.208 171.372 160.663 171.372 159.08C171.372 135.062 171.362 160.502 171.372 136.484C171.372 135.455 171.062 135.49 175.386 137.286C182.031 140.046 183.843 140.826 193.582 145.364C196.485 146.716 196.484 145.422 184.487 152.263H184.485ZM171.348 133.348C171.562 131.022 171.468 105.936 171.702 105.193C172.581 105.74 194.363 143.713 194.382 144.6C193.095 144.48 188.186 140.04 172.533 134.702C171.825 134.459 171.272 134.206 171.351 133.348H171.348ZM170.333 104.701C170.441 106.015 170.213 131.868 170.014 133.836C170.006 133.939 169.974 134.039 169.924 134.129C169.874 134.22 169.805 134.298 169.722 134.36C169.482 134.532 161.783 136.889 159.014 137.872C150.111 141.028 146.874 142.912 146.164 142.844C146.619 140.305 170.178 102.776 170.336 104.701H170.333ZM148.574 143.615C152.805 141.958 165.213 136.831 169.64 135.715C170.16 135.583 170.046 135.551 170.046 139.709C170.046 142.907 170.078 155.467 170.213 158.694C170.271 160.078 170.724 160.651 168.82 159.414C166.916 158.177 147.077 145.578 146.163 144.942C145.588 144.55 146.214 144.539 148.574 143.615Z" fill="#253E92"/>
<path id="Vector_5" d="M169.701 189.719C170.342 189.699 170.739 189.426 171.884 187.744C173.602 185.224 180.65 177.731 187.022 167.556C188.564 165.094 194.694 155.278 195.992 152.396C196.289 151.733 195.476 151.343 194.561 151.93C193.976 152.306 173.081 164.8 172.293 165.25C169.653 166.738 169.631 166.671 169.341 166.42C168.654 165.82 166.708 164.784 164.627 163.436C145.056 150.759 143.804 148.196 143.316 149.978C142.782 151.926 167.211 188.285 169.701 189.719ZM170.496 168.464C170.376 167.711 170.976 167.496 172.425 166.638C195.522 152.943 193.125 154.233 193.545 154.223C193.361 155.59 173.852 183.569 170.568 186.723C170.25 183.882 170.747 170.008 170.496 168.464ZM146.268 152.744C146.5 152.519 147.886 153.807 157.6 160.442C169.166 168.341 169.172 167.393 169.113 168.555C168.968 171.425 168.905 182.291 169.277 186.773C169.37 187.894 146.099 152.904 146.268 152.74V152.744Z" fill="#253E92"/>
<path id="Subtract" fill-rule="evenodd" clip-rule="evenodd" d="M112.376 129.644C111.469 130.569 110.537 131.465 109.581 132.329C100.525 170.102 128.491 211.712 174.655 209.928C197.446 209.047 222.106 192.935 230.695 166.863C234.469 155.641 235.023 143.586 232.294 132.065C229.27 119.591 222.512 108.338 212.923 99.8071C203.332 91.2765 191.368 85.8755 178.628 84.3254C165.886 82.7753 152.977 85.1501 141.621 91.1323C136.862 93.6391 132.472 96.7295 128.541 100.312C128.248 101.6 127.91 102.885 127.527 104.165C136.434 95.1656 147.841 89.0503 159.524 87.0839C214.358 77.8559 250 136.692 222.259 179.772C212.086 195.57 195.295 206.082 177.962 207.553C132.084 211.446 100.849 170.964 112.185 130.311C112.247 130.088 112.311 129.866 112.376 129.644Z" fill="#253E92"/>
</g>
<g id="Group_2">
<path id="Vector_6" d="M96.6325 30.0334C81.8568 22.9256 64.8983 21.8338 49.3332 26.9882C33.7681 32.1426 20.8131 43.1404 13.2001 57.6622C-8.36027 98.3218 20.5705 151.802 72.7753 149.786C95.5669 148.905 120.228 132.793 128.815 106.722C138.945 75.973 124.131 42.9406 96.6325 30.0334ZM120.375 119.624C110.202 135.421 93.4117 145.94 76.0789 147.419C30.2005 151.332 -1.03188 110.831 10.3009 70.1782C16.6801 47.2798 36.7093 30.4462 57.6433 26.9266C112.473 17.707 148.115 76.5478 120.375 119.624Z" fill="#253E92"/>
<path id="Vector_7" d="M69.2256 35.8611C52.6488 35.7315 36.8004 42.8019 25.5876 59.2671C9.39837 83.0427 17.3916 115.547 41.0484 130.364C89.7684 160.892 144.067 99.3447 107.334 54.1971C102.753 48.491 96.9522 43.8825 90.3581 40.7097C83.764 37.5369 76.5433 35.8802 69.2256 35.8611ZM105.79 118.454C100.904 124.334 94.7097 128.988 87.7029 132.046C80.6961 135.105 73.0708 136.48 65.4372 136.064C38.1 134.548 17.5632 109.971 18.8676 85.6983C19.2874 77.6312 21.6167 69.7791 25.664 62.7883C29.7113 55.7973 35.3608 49.8673 42.1476 45.4863C88.5264 15.6699 141.569 75.4719 105.79 118.454Z" fill="#253E92"/>
<path id="Vector_8" d="M91.1052 82.0104C92.6364 80.8879 93.8837 79.4228 94.7475 77.7322C95.6111 76.0415 96.0673 74.1721 96.0793 72.2736C96.3805 61.9104 88.9897 57.012 78.5125 57.5748C78.0733 57.5976 78.0649 57.5748 78.0625 57.138C78.0457 54.5724 77.8309 49.7268 77.6293 48.7704C77.4277 47.814 77.5297 47.136 75.8917 47.0532C74.9317 47.0052 69.5317 46.8132 67.9537 47.3892C67.5061 47.5536 67.4497 48.5076 67.4245 49.7772C67.3741 52.2408 67.5013 56.2632 67.5265 57.0648C67.5661 58.326 67.3789 57.9828 65.4637 58.0248C65.1709 58.0308 65.2885 54.1284 65.1709 51.4884C65.0665 49.1484 65.1565 49.2912 65.1445 48.498C65.1325 47.7048 64.8841 47.2608 64.2145 47.2656C54.7201 47.3388 55.0945 47.4624 54.9889 48.8136C54.7369 52.1844 54.7861 56.2656 54.8173 57.006C54.8449 57.6936 55.0573 57.6612 50.7673 57.6288C49.8073 57.6216 43.7713 57.3108 42.4669 57.7488C42.1706 57.8158 41.9039 57.9767 41.7067 58.2077C41.5094 58.4387 41.3921 58.7273 41.3725 59.0304C41.1149 61.9902 41.0692 64.9645 41.2357 67.9308C41.219 68.2871 41.3383 68.6364 41.5693 68.9081C41.8003 69.1799 42.1258 69.3539 42.4801 69.3948C43.0441 69.4908 47.4805 69.7548 50.0461 69.7548C51.0409 69.7548 50.4061 68.9256 50.3389 77.946C50.1673 99.96 51.0685 101.266 50.4589 102.002C50.1409 102.385 49.4461 102.362 42.2893 102.488C42.1166 102.477 41.9434 102.502 41.7808 102.561C41.6181 102.62 41.4694 102.712 41.3439 102.832C41.2185 102.951 41.1189 103.095 41.0516 103.254C40.9843 103.413 40.9504 103.585 40.9525 103.758C40.9525 104.29 40.0861 110.605 41.2105 113.269C41.5057 113.97 41.9761 113.934 44.0905 114.036C48.3013 114.239 47.8945 114.191 54.3049 114.185C55.2901 114.185 54.9757 113.914 54.8461 116.778C54.8053 117.678 54.7165 123.952 55.3897 124.385C56.2525 124.939 56.5345 125.033 62.4121 125.026C64.5385 125.026 65.0305 124.949 65.1529 123.252C65.2237 122.284 65.3557 114.522 65.5861 114.071C67.0261 114.034 67.3417 113.814 67.3597 114.252C67.4521 116.628 67.3597 122.754 67.4293 123.697C67.4349 123.856 67.4722 124.012 67.5388 124.154C67.6055 124.298 67.7003 124.428 67.8177 124.535C67.9349 124.64 68.0725 124.723 68.2219 124.776C68.3714 124.828 68.5299 124.85 68.6881 124.841C71.2049 125.131 73.7432 125.19 76.2709 125.016C76.8913 124.964 77.4565 124.706 77.7025 123.644C78.2029 121.476 77.8105 115.288 77.9941 114.007C84.1393 113.676 89.514 113.608 95.3004 108.716C99.1045 105.499 100.915 99.0612 100.517 93.5964C100.261 90.9536 99.2323 88.4449 97.5583 86.3842C95.8841 84.3234 93.6395 82.8021 91.1052 82.0104ZM95.1228 106.268C90.546 111.529 85.0993 112.237 77.3041 112.441C76.0981 112.472 76.8097 113.322 76.5205 122.714C76.4881 123.746 76.1161 123.696 75.5605 123.697C67.9525 123.707 68.7073 123.866 68.7073 123.232C68.7073 117.346 68.7517 115.204 68.5441 113.377C68.4529 112.582 67.9441 112.433 66.8209 112.482C65.6977 112.531 64.1413 112.266 64.1881 113.263C63.8545 118.943 63.7705 121.234 63.7549 123.079C63.7489 123.665 63.6841 123.756 63.1309 123.697C61.0657 123.478 58.9981 123.62 56.9317 123.592C56.3701 123.583 56.3449 123.671 56.2705 122.632C55.9501 118.213 56.2705 113.951 56.1217 113.532C55.9285 112.541 55.5529 112.892 42.5545 112.757C42.0565 112.757 42.2809 112.71 42.2125 108.526C42.1837 106.82 42.1069 105.272 42.1069 104.591C42.1069 103.535 41.3965 103.97 49.1053 103.822C52.2157 103.762 52.2697 102.943 52.2385 101.366C52.1281 95.8716 51.5005 77.1324 52.1773 69.4464C52.3405 67.5876 51.1357 68.472 42.8353 67.998C42.3229 67.968 42.5293 68.1288 42.5425 64.7088C42.5533 62.076 42.5221 60.6456 42.5425 59.8872C42.5629 59.1288 43.2013 59.0364 43.8097 59.0304C50.1349 58.9692 51.9049 59.0508 54.1609 59.0712C55.3513 59.082 56.2885 59.0256 56.4229 57.924C56.5141 57.174 56.3029 53.9976 56.5657 49.1268C56.5657 48.69 56.4457 48.8496 61.6741 48.6468C64.7941 48.5268 63.2965 47.2068 64.0057 56.514C64.2589 59.8356 63.4453 59.514 68.0857 59.37C68.5189 59.3568 68.7913 59.2008 68.8381 58.5708C68.8945 57.8076 68.8381 51.7068 68.8909 49.9488C68.9233 48.858 68.8261 48.618 69.3229 48.5268C71.3735 48.3124 73.4378 48.2586 75.4969 48.366C75.9469 48.3924 76.0501 48.5088 76.0969 48.7668C76.4701 50.6244 76.2277 56.7024 76.5409 58.1676C76.9357 59.2968 77.9569 59.016 79.1305 59.016C85.1701 59.016 87.696 60.2256 89.6196 61.392C91.0252 62.333 92.1874 63.5942 93.0107 65.0718C93.8342 66.5494 94.2952 68.2012 94.356 69.8916C95.2224 80.0076 88.428 80.9004 88.674 82.2852C88.8024 83.0052 89.0413 82.9824 90.5761 83.4288C99.7777 86.1084 101.52 98.9112 95.1228 106.268Z" fill="#253E92"/>
<path id="Vector_9" d="M82.3429 88.7828C77.9269 86.0564 71.8357 86.3924 64.7269 86.8136C64.1857 86.846 63.3949 86.8136 63.3253 87.4952C62.8057 92.5772 62.9977 101.362 63.5497 102.847C63.7093 103.274 64.0009 103.678 66.0637 103.64C73.6705 103.498 83.3893 104.443 85.3945 97.3736C85.8811 95.8041 85.8469 94.1193 85.2968 92.5709C84.7468 91.0225 83.7105 89.6936 82.3429 88.7828ZM65.1385 102.049C64.8469 102.049 64.8001 101.864 64.7881 101.604C64.5481 96.6548 64.6153 90.3656 64.7377 89.114C64.8433 88.034 65.0653 88.0928 65.4721 88.0544C69.9493 87.6344 78.4153 87.3344 81.9265 90.1376C83.2161 91.16 84.0731 92.6309 84.3265 94.2572C85.6081 102.792 73.7749 102.138 65.1385 102.049Z" fill="#253E92"/>
<path id="Vector_10" d="M63.9604 79.1993C64.2244 79.6961 72.2632 79.9409 77.3344 78.4589C78.7084 78.1527 79.917 77.3412 80.7202 76.1851C81.5234 75.0291 81.8625 73.6133 81.67 72.2189C81.2728 67.8473 78.2296 66.6533 73.8376 66.1241C71.6524 65.8613 65.7208 65.6117 64.384 66.0041C63.5644 66.2441 63.5716 66.1997 63.352 68.2097C63.112 70.4033 62.9116 77.2217 63.9604 79.1993ZM66.2572 67.0889C71.002 66.9689 75.0364 67.0889 77.4856 68.1545C78.3733 68.5152 79.1311 69.1362 79.6591 69.9357C80.187 70.7353 80.4606 71.676 80.4436 72.6341C80.7796 78.2477 74.0392 78.2393 66.1636 78.2393C65.0992 78.2393 64.9888 77.8793 64.9024 77.0921C64.5856 74.2507 64.5298 71.3864 64.7356 68.5349C64.8664 67.6793 64.7356 67.1273 66.2572 67.0877V67.0889Z" fill="#253E92"/>
</g>
</g>
</g>
</svg>
