<svg width="24" height="24" viewBox="0 0 24 24" fill="none" xmlns="http://www.w3.org/2000/svg">
<path fill-rule="evenodd" clip-rule="evenodd" d="M17 5C15.8954 5 15 5.89543 15 7V12.5C15 12.7761 15.2347 12.9976 15.474 12.8598C15.9782 12.5694 16.4397 11.8718 16.7202 11.1823C16.7283 11.1621 16.7324 11.1521 16.7341 11.1484C16.7781 11.0495 16.8462 11.0036 16.9544 11.0001C16.9584 11 16.9723 11 17 11H20C21.1046 11 22 10.1046 22 9V7C22 5.89543 21.1046 5 20 5H17Z" fill="#A5A5A5"/>
<path d="M13 7C13 9.20914 11.2091 11 9 11C6.79086 11 5 9.20914 5 7C5 4.79086 6.79086 3 9 3C11.2091 3 13 4.79086 13 7Z" fill="#A5A5A5"/>
<path d="M2 18C2 15.2386 4.23858 13 7 13H11C13.7614 13 16 15.2386 16 18V20C16 20.5523 15.5523 21 15 21H3C2.44772 21 2 20.5523 2 20V18Z" fill="#A5A5A5"/>
</svg>
