<svg width="20" height="20" viewBox="0 0 20 20" fill="none" xmlns="http://www.w3.org/2000/svg">
    <path
        d="M4.41072 1.07739C4.73616 0.751954 5.2638 0.751954 5.58923 1.07739L7.2559 2.74406C7.58134 3.06949 7.58134 3.59713 7.2559 3.92257L5.58923 5.58923C5.2638 5.91467 4.73616 5.91467 4.41072 5.58923C4.08529 5.2638 4.08529 4.73616 4.41072 4.41072L4.6272 4.19425C3.4233 4.37424 2.49998 5.41262 2.49998 6.66665C2.49998 7.12688 2.12688 7.49998 1.66665 7.49998C1.20641 7.49998 0.833313 7.12688 0.833313 6.66665C0.833313 4.47725 2.52194 2.68226 4.66785 2.51302L4.41072 2.2559C4.08529 1.93046 4.08529 1.40283 4.41072 1.07739Z"
        fill="white" />
    <path
        d="M18.3333 12.5C18.7935 12.5 19.1666 12.8731 19.1666 13.3333C19.1666 15.5227 17.478 17.3177 15.3321 17.4869L15.5892 17.7441C15.9147 18.0695 15.9147 18.5971 15.5892 18.9226C15.2638 19.248 14.7362 19.248 14.4107 18.9226L12.7441 17.2559C12.4186 16.9305 12.4186 16.4028 12.7441 16.0774L14.4107 14.4107C14.7362 14.0853 15.2638 14.0853 15.5892 14.4107C15.9147 14.7362 15.9147 15.2638 15.5892 15.5892L15.3728 15.8057C16.5767 15.6257 17.5 14.5873 17.5 13.3333C17.5 12.8731 17.8731 12.5 18.3333 12.5Z"
        fill="white" />
    <path
        d="M1.66665 13.3333C1.66665 16.0947 3.90522 18.3333 6.66665 18.3333C9.42807 18.3333 11.6666 16.0947 11.6666 13.3333C11.6666 12.5627 11.4923 11.8328 11.181 11.181C10.6879 10.1487 9.85125 9.31205 8.819 8.819C8.16712 8.50764 7.43724 8.33331 6.66665 8.33331C3.90522 8.33331 1.66665 10.5719 1.66665 13.3333Z"
        fill="white" />
    <path
        d="M13.3333 11.6666C16.0947 11.6666 18.3333 9.42807 18.3333 6.66665C18.3333 3.90522 16.0947 1.66665 13.3333 1.66665C10.5719 1.66665 8.33331 3.90522 8.33331 6.66665C8.33331 6.68555 8.33342 6.70443 8.33363 6.72329C8.33464 6.81508 8.39857 6.89317 8.4869 6.91818C8.85033 7.0211 9.20113 7.15407 9.53646 7.31423C10.9128 7.97162 12.0283 9.08718 12.6857 10.4635C12.8459 10.7988 12.9789 11.1496 13.0818 11.5131C13.1068 11.6014 13.1849 11.6653 13.2767 11.6663C13.2955 11.6665 13.3144 11.6666 13.3333 11.6666Z"
        fill="white" />
</svg>