<svg width="48" height="48" viewBox="0 0 48 48" fill="none" xmlns="http://www.w3.org/2000/svg">
<g clip-path="url(#clip0_6020_12447)">
<path d="M28.9766 0.707548C25.6141 -0.131184 22.0759 -0.251035 18.6331 0.492205C18.367 0.549644 18.1979 0.8119 18.2553 1.07797C18.3128 1.34404 18.575 1.51317 18.8411 1.45573C22.1382 0.74395 25.5346 0.861312 28.7652 1.67102C36.491 3.60737 42.9217 9.41609 45.371 17.0038C46.3183 19.9383 46.7207 23.0629 46.8012 26.3375C46.8079 26.6096 47.0339 26.8248 47.3061 26.8181C47.5782 26.8114 47.7933 26.5854 47.7867 26.3133C47.705 22.9937 47.2979 19.7887 46.3273 16.7574C43.7836 8.81362 37.0625 2.72449 28.9766 0.707548Z" fill="#253E92"/>
<path d="M16.1319 2.19872C16.3943 2.12634 16.5484 1.85494 16.476 1.59254C16.4036 1.33014 16.1322 1.17611 15.8698 1.2485C12.2693 2.24177 7.20442 5.67389 4.07429 10.2589C4.07307 10.2607 4.07187 10.2625 4.07067 10.2643C1.32221 14.4063 -0.400683 19.6113 0.0803443 24.6621C0.0808023 24.6669 0.081331 24.6717 0.0819302 24.6765C0.197213 25.5988 0.390745 26.5193 0.584504 27.441C0.992597 29.3821 1.4017 31.328 1.08283 33.3048C1.03948 33.5735 1.22218 33.8265 1.49091 33.8698C1.75964 33.9132 2.01262 33.7305 2.05597 33.4618C2.38929 31.3954 1.97541 29.3798 1.56144 27.3638C1.36999 26.4315 1.17852 25.499 1.06094 24.5615C0.608524 19.7888 2.2381 14.8099 4.89022 10.812C7.90128 6.40297 12.7771 3.12421 16.1319 2.19872Z" fill="#253E92"/>
<path d="M22.5995 3.29989C28.7874 2.92202 34.974 5.44736 39.1288 10.2855C39.3061 10.492 39.2825 10.8031 39.076 10.9805C38.8695 11.1578 38.5583 11.1342 38.381 10.9277C34.4299 6.32682 28.5428 3.92358 22.6566 4.28396C22.6545 4.28409 22.6524 4.2842 22.6503 4.2843C15.2065 4.64449 8.23533 9.69427 5.67119 16.7703C5.57845 17.0262 5.29582 17.1584 5.0399 17.0657C4.78399 16.973 4.6517 16.6903 4.74444 16.4344C7.44566 8.98014 14.7658 3.68026 22.5995 3.29989Z" fill="#253E92"/>
<path d="M40.6303 12.4386C40.4785 12.2127 40.1723 12.1525 39.9464 12.3043C39.7204 12.456 39.6602 12.7622 39.812 12.9882C42.1153 16.4178 43.0676 20.1499 43.4441 24.5788C43.4672 24.85 43.7057 25.0512 43.977 25.0281C44.2482 25.0051 44.4494 24.7665 44.4263 24.4953C44.0416 19.9696 43.0595 16.0557 40.6303 12.4386Z" fill="#253E92"/>
<path d="M44.0968 26.5878C44.3685 26.5708 44.6025 26.7773 44.6195 27.049C44.8052 30.0209 44.8069 33.3834 44.4782 35.8682C44.4425 36.1381 44.1948 36.3279 43.9249 36.2922C43.6551 36.2565 43.4653 36.0088 43.501 35.7389C43.8178 33.344 43.8196 30.0528 43.6357 27.1104C43.6187 26.8388 43.8251 26.6048 44.0968 26.5878Z" fill="#253E92"/>
<path d="M4.92692 19.1574C4.99081 18.8928 4.8281 18.6265 4.5635 18.5627C4.2989 18.4988 4.03262 18.6615 3.96873 18.9261C3.60698 20.4243 3.41919 21.9635 3.41175 23.5041C3.40408 25.0919 3.70015 26.6419 3.99634 28.1924C4.23863 29.4608 4.481 30.7296 4.55724 32.0199C4.65738 33.7148 4.30088 35.4122 3.68482 37.0277C3.58783 37.282 3.71539 37.5668 3.96972 37.6638C4.22406 37.7608 4.50886 37.6333 4.60585 37.3789C5.25703 35.6713 5.65174 33.8319 5.54124 31.9618C5.46553 30.6803 5.22318 29.4189 4.98093 28.158C4.68532 26.6193 4.38986 25.0815 4.39746 23.5088C4.40453 22.045 4.583 20.5818 4.92692 19.1574Z" fill="#253E92"/>
<path d="M17.8594 8.20502C17.9609 8.45761 17.8383 8.74461 17.5857 8.84605C12.4761 10.898 8.63912 15.5285 7.85636 20.9889C7.52934 23.2701 7.88265 25.5299 8.23587 27.789C8.43478 29.0612 8.63367 30.3333 8.711 31.6088C8.87867 34.3748 8.56362 37.4129 6.76353 40.1772C6.61499 40.4053 6.30966 40.4698 6.08157 40.3213C5.85347 40.1727 5.78897 39.8674 5.93751 39.6393C7.57757 37.1208 7.88802 34.3233 7.72708 31.6685C7.64862 30.3742 7.45098 29.0874 7.25346 27.8015C6.89907 25.4942 6.54509 23.1896 6.88062 20.849C7.7164 15.0188 11.8029 10.1061 17.2184 7.93133C17.471 7.82989 17.758 7.95243 17.8594 8.20502Z" fill="#253E92"/>
<path d="M35.1617 11.011C31.1307 7.23555 25.2884 5.91784 19.9786 7.08247C19.7127 7.14079 19.5445 7.4036 19.6028 7.66948C19.6611 7.93536 19.9239 8.10362 20.1898 8.04531C25.2177 6.94249 30.719 8.20051 34.4879 11.7305C37.6645 14.7058 39.5092 19.035 39.9921 23.7584C40.0197 24.0292 40.2617 24.2263 40.5325 24.1986C40.8033 24.1709 41.0004 23.929 40.9727 23.6582C40.4713 18.7535 38.5487 14.1834 35.1617 11.011Z" fill="#253E92"/>
<path d="M40.8695 26.0054C41.1403 25.9776 41.3824 26.1745 41.4102 26.4453C41.8783 31.0028 41.6765 35.9253 40.9699 40.6872C40.9299 40.9565 40.6793 41.1424 40.41 41.1024C40.1408 41.0625 39.9549 40.8118 39.9948 40.5425C40.6916 35.8468 40.8879 31.0079 40.4296 26.546C40.4018 26.2752 40.5988 26.0332 40.8695 26.0054Z" fill="#253E92"/>
<path d="M23.6865 10.0165C16.134 10.0165 9.99756 16.0419 9.99756 23.4914C9.99756 24.2872 10.0682 25.0669 10.2028 25.825C10.2504 26.093 10.5062 26.2717 10.7742 26.2241C11.0422 26.1766 11.2209 25.9207 11.1733 25.6527C11.0487 24.9508 10.9833 24.2287 10.9833 23.4914C10.9833 16.6014 16.6632 11.0022 23.6865 11.0022C26.8604 11.0022 29.7603 12.1462 31.986 14.0364C32.1935 14.2126 32.5045 14.1872 32.6807 13.9797C32.8569 13.7723 32.8316 13.4612 32.6241 13.285C30.2256 11.2481 27.1012 10.0165 23.6865 10.0165Z" fill="#253E92"/>
<path d="M33.7284 15.1226C33.9248 14.9342 34.2368 14.9408 34.4252 15.1372C36.6003 17.4054 37.2966 20.9703 37.7573 23.962C38.2762 27.332 38.3554 30.6195 38.3554 32.1438C38.3554 32.416 38.1348 32.6367 37.8626 32.6367C37.5904 32.6367 37.3697 32.416 37.3697 32.1438C37.3697 30.6442 37.2912 27.4123 36.783 24.1121C36.3553 21.3346 35.7388 17.9312 33.7138 15.8195C33.5254 15.623 33.5319 15.311 33.7284 15.1226Z" fill="#253E92"/>
<path d="M38.2303 34.9664C38.2519 34.6951 38.0495 34.4576 37.7781 34.436C37.5068 34.4143 37.2693 34.6168 37.2477 34.8881C37.0056 37.924 36.6894 40.9566 36.0476 43.758C35.9868 44.0233 36.1526 44.2877 36.418 44.3484C36.6833 44.4092 36.9476 44.2434 37.0084 43.9781C37.6671 41.1029 37.9876 38.0105 38.2303 34.9664Z" fill="#253E92"/>
<path d="M10.9961 27.639C11.2632 27.5864 11.5223 27.7603 11.5749 28.0274C12.617 33.3193 11.8971 38.1266 9.13747 42.3376C8.98827 42.5653 8.68276 42.6289 8.45509 42.4797C8.22742 42.3305 8.16381 42.025 8.31301 41.7973C10.9095 37.8352 11.6083 33.2989 10.6078 28.2178C10.5552 27.9507 10.729 27.6916 10.9961 27.639Z" fill="#253E92"/>
<path d="M23.6865 13.2233C18.7839 13.2233 13.9745 17.0183 13.4836 21.7878C13.2687 23.8759 13.5706 25.9326 13.8726 27.9903C14.1363 29.787 14.4001 31.5843 14.32 33.4036C14.1367 37.5674 12.915 41.0044 10.8158 43.8353C10.6537 44.0539 10.6995 44.3626 10.9182 44.5248C11.1368 44.6869 11.4455 44.6411 11.6076 44.4224C13.8341 41.42 15.1136 37.7895 15.3048 33.447C15.3845 31.6358 15.1199 29.8442 14.8555 28.0538C14.5531 26.0064 14.2509 23.9605 14.4641 21.8887C14.8954 17.6988 19.208 14.209 23.6865 14.209C25.7753 14.209 31.1798 15.3401 32.899 20.9404C33.9763 24.4498 34.2701 29.1994 34.0092 33.8137C33.7483 38.4273 32.9366 42.84 31.8452 45.6696C31.7473 45.9236 31.8737 46.2089 32.1277 46.3068C32.3817 46.4048 32.6669 46.2783 32.7649 46.0243C33.9068 43.0639 34.7292 38.5395 34.9934 33.8693C35.2574 29.1997 34.9672 24.3186 33.8413 20.6511C31.933 14.4346 25.9509 13.2233 23.6865 13.2233Z" fill="#253E92"/>
<path d="M16.1018 42.3384C16.3298 42.4871 16.3941 42.7925 16.2454 43.0204C15.9397 43.489 15.6709 43.9793 15.402 44.4696C15.1331 44.9599 14.8642 45.4503 14.5585 45.919C14.4098 46.1469 14.1045 46.2112 13.8765 46.0625C13.6485 45.9138 13.5842 45.6084 13.7329 45.3805C14.0385 44.9119 14.3074 44.4216 14.5763 43.9313C14.8451 43.441 15.1141 42.9506 15.4197 42.4819C15.5684 42.254 15.8738 42.1897 16.1018 42.3384Z" fill="#253E92"/>
<path d="M20.322 18.3394C20.5482 18.1881 20.609 17.882 20.4577 17.6557C20.3063 17.4295 20.0002 17.3687 19.774 17.5201C17.8223 18.8255 16.6249 20.6205 16.6249 23.2502C16.6249 24.816 16.9023 26.0959 17.1869 27.4087C17.6126 29.3731 17.9014 31.3333 17.8495 33.351C17.7865 35.8012 17.3071 38.0401 16.3855 40.173C16.2776 40.4228 16.3926 40.7129 16.6425 40.8209C16.8924 40.9289 17.1825 40.8138 17.2904 40.5639C18.2648 38.3088 18.7688 35.9449 18.8349 33.3763C18.8888 31.2797 18.592 29.2419 18.1504 27.2002C17.8653 25.8817 17.6107 24.7046 17.6107 23.2502C17.6107 20.9971 18.6018 19.4899 20.322 18.3394Z" fill="#253E92"/>
<path d="M22.2456 16.6077C24.2908 16.1908 26.4917 16.706 28.1116 18.0171C31.0052 20.3591 31.39 24.6302 31.7018 28.0912L31.7177 28.2675C32.1207 32.7288 31.6594 37.0622 30.7302 41.414C30.6734 41.6802 30.4115 41.8499 30.1453 41.7931C29.8791 41.7362 29.7094 41.4743 29.7662 41.2081C30.6815 36.9216 31.1276 32.6914 30.736 28.3562C30.723 28.2127 30.7101 28.0671 30.6971 27.9198L30.6969 27.9176C30.4199 24.79 30.073 20.8728 27.4915 18.7833C26.1065 17.6624 24.207 17.2139 22.4425 17.5736C22.1758 17.6279 21.9155 17.4558 21.8612 17.1891C21.8068 16.9224 21.9789 16.6621 22.2456 16.6077Z" fill="#253E92"/>
<path d="M30.0336 43.8664C30.1008 43.6026 29.9414 43.3343 29.6776 43.2672C29.4138 43.2 29.1455 43.3594 29.0784 43.6232C28.7804 44.7936 28.3213 45.85 27.7392 46.8226C27.5994 47.0561 27.6754 47.3588 27.909 47.4986C28.1425 47.6384 28.4452 47.5624 28.585 47.3288C29.2123 46.2807 29.7103 45.1362 30.0336 43.8664Z" fill="#253E92"/>
<path d="M27.6235 36.7141C27.8938 36.7461 28.087 36.9912 28.055 37.2615C27.5895 41.195 26.5387 44.7032 24.8525 47.746C24.7205 47.984 24.4206 48.0701 24.1825 47.9381C23.9444 47.8062 23.8583 47.5062 23.9903 47.2682C25.604 44.3562 26.6229 40.9754 27.0761 37.1456C27.1081 36.8753 27.3532 36.6821 27.6235 36.7141Z" fill="#253E92"/>
<path d="M27.5219 22.9917C27.1802 21.1659 25.6133 19.7693 23.7109 19.7693C21.1349 19.7693 19.3276 22.3659 19.9645 24.7817C21.0421 29.0459 21.219 33.1558 20.4895 37.1141L20.489 37.117C19.8559 40.671 18.6402 43.8681 16.9818 46.5774C16.8397 46.8095 16.9127 47.1129 17.1449 47.255C17.377 47.3971 17.6804 47.3241 17.8225 47.092C19.5487 44.2719 20.8058 40.9582 21.4592 37.2913C22.2166 33.1803 22.0289 28.9263 20.9195 24.5376L20.9181 24.5324C20.4404 22.7253 21.772 20.7551 23.7109 20.7551C25.1101 20.7551 26.2916 21.7844 26.5524 23.1697C27.2698 27.3309 27.6435 31.1896 27.3774 34.512C27.3557 34.7833 27.558 35.0209 27.8294 35.0426C28.1007 35.0644 28.3383 34.862 28.36 34.5907C28.6358 31.147 28.2465 27.1932 27.5232 22.9986C27.5228 22.9963 27.5224 22.994 27.5219 22.9917Z" fill="#253E92"/>
<path d="M22.2403 44.3379C22.4824 44.4623 22.5778 44.7594 22.4534 45.0015L21.1474 47.5429C21.023 47.785 20.7259 47.8805 20.4838 47.756C20.2417 47.6316 20.1463 47.3345 20.2707 47.0924L21.5766 44.551C21.701 44.3089 21.9981 44.2135 22.2403 44.3379Z" fill="#253E92"/>
<path d="M24.0775 23.4669C24.0152 23.2019 23.75 23.0376 23.485 23.0998C23.22 23.1621 23.0556 23.4274 23.1179 23.6924C24.7799 30.7674 24.5517 36.98 22.5272 42.2722C22.4299 42.5265 22.5572 42.8114 22.8114 42.9087C23.0657 43.0059 23.3506 42.8787 23.4479 42.6244C25.5587 37.1063 25.7733 30.6856 24.0775 23.4669Z" fill="#253E92"/>
</g>
<defs>
<clipPath id="clip0_6020_12447">
<rect width="48" height="48" fill="white"/>
</clipPath>
</defs>
</svg>
