<svg width="20" height="20" viewBox="0 0 20 20" fill="none" xmlns="http://www.w3.org/2000/svg">
    <path
        d="M17.5001 13.3334C17.5001 13.8334 17.0001 14.2501 16.0834 14.5834C15.3334 14.8334 14.4167 15.0001 13.3334 15.0001C12.2501 15.0001 11.3334 14.8334 10.5834 14.5834C9.75008 14.2501 9.16675 13.8334 9.16675 13.3334C9.16675 12.4167 11.0001 11.6667 13.3334 11.6667C15.6667 11.6667 17.5001 12.4167 17.5001 13.3334Z"
        stroke="#FFFFFF" stroke-width="1.25" stroke-miterlimit="10" stroke-linecap="round" stroke-linejoin="round" />
    <path
        d="M17.5001 13.3333V15.8333C17.5001 16.3333 16.9167 16.7499 16.0834 17.0833C15.3334 17.3333 14.4167 17.4999 13.3334 17.4999C12.2501 17.4999 11.3334 17.3333 10.5834 17.0833C9.75008 16.7499 9.16675 16.3333 9.16675 15.8333V13.3333C9.16675 13.8333 9.75008 14.2499 10.5834 14.5833C11.3334 14.8333 12.3334 14.9999 13.3334 14.9999C14.4167 14.9999 15.3334 14.8333 16.0834 14.5833C17.0001 14.2499 17.5001 13.8333 17.5001 13.3333Z"
        stroke="#FFFFFF" stroke-width="1.25" stroke-miterlimit="10" stroke-linecap="round" stroke-linejoin="round" />
    <path
        d="M6.66667 10.8333C5.58333 10.8333 4.66667 10.6667 3.91667 10.4167C3.08333 10.0833 2.5 9.66667 2.5 9.16667C2.5 8.25 4.33333 7.5 6.66667 7.5C9 7.5 10.8333 8.25 10.8333 9.16667"
        stroke="#FFFFFF" stroke-width="1.25" stroke-miterlimit="10" stroke-linecap="round" stroke-linejoin="round" />
    <path
        d="M6.66667 10.8334C5.58333 10.8334 4.66667 10.6667 3.91667 10.4167C3 10.0834 2.5 9.66675 2.5 9.16675V11.6667C2.5 12.1667 3.08333 12.5834 3.91667 12.9167C4.66667 13.1667 5.58333 13.3334 6.66667 13.3334"
        stroke="#FFFFFF" stroke-width="1.25" stroke-miterlimit="10" stroke-linecap="round" stroke-linejoin="round" />
    <path d="M13.3333 6.66667L17.4999 2.5" stroke="#FFFFFF" stroke-width="1.25" stroke-linecap="round"
        stroke-linejoin="round" />
    <path d="M14.4167 2.5H17.5001V5.58333" stroke="#FFFFFF" stroke-width="1.25" stroke-linecap="round"
        stroke-linejoin="round" />
</svg>