<svg width="20" height="20" viewBox="0 0 20 20" fill="none" xmlns="http://www.w3.org/2000/svg">
    <g clip-path="url(#clip0_2202_14526)">
        <mask id="mask0_2202_14526" style="mask-type:luminance" maskUnits="userSpaceOnUse" x="0"
            y="0" width="20" height="20">
            <path d="M0 0H32V32H0V0Z" fill="white" />
        </mask>
        <g mask="url(#mask0_2202_14526)">
            <path fill-rule="evenodd" clip-rule="evenodd"
                d="M0 0H45.5978V2.4625H0V0ZM0 4.925H45.5978V7.3875H0V4.925ZM0 9.84375H45.5978V12.3125H0V9.84375ZM0 14.7688H45.5978V17.2313H0V14.7688ZM0 19.6938H45.5978V22.1562H0V19.6938ZM0 24.6125H45.5978V27.075H0V24.6125ZM0 29.5375H45.5978V32H0V29.5375Z"
                fill="#BD3D44" />
            <path fill-rule="evenodd" clip-rule="evenodd"
                d="M0 2.4624H45.5978V4.9249H0V2.4624ZM0 7.3874H45.5978V9.84365H0V7.3874ZM0 12.3062H45.5978V14.7687H0V12.3062ZM0 17.2312H45.5978V19.6937H0V17.2312ZM0 22.1562H45.5978V24.6187H0V22.1562ZM0 27.0749H45.5978V29.5374H0V27.0749Z"
                fill="white" />
            <path fill-rule="evenodd" clip-rule="evenodd" d="M0 0H18.2382V17.2312H0V0Z"
                fill="#192F5D" />
            <path fill-rule="evenodd" clip-rule="evenodd"
                d="M1.51876 0.737549L1.68751 1.4188H2.22186L1.79063 1.83755L1.95468 2.52505L1.51876 2.10005L1.08754 2.5188L1.25159 1.83755L0.815674 1.4188H1.3594L1.51876 0.737549ZM4.5608 0.737549L4.72486 1.4188H5.26389L4.82798 1.83755L4.99203 2.52505L4.5608 2.10005L4.12489 2.5188L4.28894 1.83755L3.85771 1.4188H4.39206L4.5608 0.737549ZM7.59816 0.737549L7.7669 1.4188H8.29656L7.86533 1.83755L8.02939 2.52505L7.59347 2.10005L7.16224 2.5188L7.32629 1.83755L6.89038 1.4188H7.42941L7.59816 0.737549ZM10.6402 0.737549L10.8042 1.4188H11.3433L10.9074 1.83755L11.0761 2.52505L10.6402 2.10005L10.2043 2.5188L10.373 1.83755L9.93711 1.4188H10.4715L10.6402 0.737549ZM13.6775 0.737549L13.8463 1.4188H14.3806L13.9494 1.83755L14.1135 2.52505L13.6775 2.10005L13.2463 2.5188L13.4104 1.83755L12.9791 1.4188H13.5135L13.6775 0.737549ZM16.7196 0.737549L16.8836 1.4188H17.4227L16.9868 1.83755L17.1555 2.52505L16.7196 2.10005L16.2837 2.5188L16.4524 1.83755L16.0165 1.4188H16.5555L16.7196 0.737549ZM3.04213 2.46255L3.20618 3.1438H3.74522L3.3093 3.56255L3.46867 4.2438L3.04682 3.82505L2.6109 4.2438L2.76558 3.56255L2.34372 3.1438H2.87807L3.04213 2.46255ZM6.07948 2.46255L6.24822 3.1438H6.78257L6.34665 3.56255L6.5154 4.2438L6.07948 3.82505L5.64356 4.2438L5.81231 3.56255L5.37639 3.1438H5.91543L6.07948 2.46255ZM9.12152 2.46255L9.28557 3.1438H9.82461L9.38869 3.56255L9.55275 4.2438L9.12152 3.82505L8.6856 4.2438L8.84966 3.56255L8.41843 3.1438H8.95278L9.12152 2.46255ZM12.1589 2.46255L12.3276 3.1438H12.862L12.426 3.56255L12.5948 4.2438L12.1589 3.82505L11.7276 4.2438L11.8917 3.56255L11.4558 3.1438H11.9995L12.1589 2.46255ZM15.2009 2.46255L15.365 3.1438H15.904L15.4681 3.56255L15.6321 4.2438L15.2009 3.82505L14.765 4.2438L14.929 3.56255L14.4978 3.1438H15.0322L15.2009 2.46255ZM1.51876 4.1813L1.68751 4.87505H2.22186L1.79063 5.2938L1.95468 5.97505L1.51876 5.55005L1.08754 5.97505L1.25159 5.28755L0.815674 4.8688H1.3594L1.51876 4.1813ZM4.5608 4.1813L4.72486 4.8688H5.26389L4.82798 5.28755L4.99203 5.9688L4.5608 5.5438L4.12489 5.9688L4.28894 5.2813L3.85771 4.86255H4.39206L4.5608 4.1813ZM7.59816 4.1813L7.7669 4.8688H8.29656L7.86533 5.28755L8.02939 5.9688L7.59347 5.5438L7.16224 5.9688L7.32629 5.2813L6.89038 4.86255H7.42941L7.59816 4.1813ZM10.6402 4.1813L10.8042 4.8688H11.3433L10.9074 5.28755L11.0761 5.9688L10.6402 5.5438L10.2043 5.9688L10.373 5.2813L9.93711 4.86255H10.4715L10.6402 4.1813ZM13.6775 4.1813L13.8463 4.8688H14.3806L13.9494 5.28755L14.1135 5.9688L13.6775 5.5438L13.2463 5.9688L13.4104 5.2813L12.9791 4.86255H13.5135L13.6775 4.1813ZM16.7196 4.1813L16.8836 4.8688H17.4227L16.9868 5.28755L17.1555 5.9688L16.7196 5.5438L16.2837 5.9688L16.4524 5.2813L16.0165 4.86255H16.5555L16.7196 4.1813ZM3.04213 5.9063L3.20618 6.58755H3.74522L3.3093 7.0063L3.47336 7.6938L3.04213 7.2688L2.60621 7.68755L2.77027 7.0063L2.33904 6.58755H2.87339L3.04213 5.9063ZM6.07948 5.9063L6.24822 6.58755H6.78257L6.34665 7.0063L6.5154 7.6938L6.07948 7.2688L5.64356 7.68755L5.81231 7.0063L5.37639 6.58755H5.91543L6.07948 5.9063ZM9.12152 5.9063L9.28557 6.58755H9.82461L9.38869 7.0063L9.55275 7.6938L9.12152 7.2688L8.6856 7.68755L8.84966 7.0063L8.41843 6.58755H8.95278L9.12152 5.9063ZM12.1589 5.9063L12.3276 6.58755H12.862L12.4307 7.0063L12.5948 7.6938L12.1589 7.2688L11.7276 7.68755L11.8917 7.0063L11.4558 6.58755H11.9995L12.1589 5.9063ZM15.2009 5.9063L15.365 6.58755H15.904L15.4681 7.0063L15.6321 7.6938L15.2009 7.2688L14.765 7.68755L14.929 7.0063L14.4978 6.58755H15.0322L15.2009 5.9063ZM1.51876 7.6313L1.68751 8.31255H2.22186L1.79063 8.7313L1.95468 9.4188L1.51876 8.9938L1.08754 9.41255L1.25159 8.7313L0.815674 8.31255H1.3594L1.51876 7.6313ZM4.5608 7.6313L4.72486 8.31255H5.26389L4.82798 8.7313L4.99203 9.41255L4.5608 8.9938L4.12489 9.41255L4.28894 8.7313L3.85771 8.31255H4.39206L4.5608 7.6313ZM7.59816 7.6313L7.7669 8.31255H8.29656L7.86533 8.7313L8.02939 9.4188L7.59347 8.9938L7.16224 9.41255L7.32629 8.7313L6.89038 8.31255H7.42941L7.59816 7.6313ZM10.6402 7.6313L10.8042 8.31255H11.3433L10.9074 8.7313L11.0761 9.4188L10.6402 8.9938L10.2043 9.41255L10.373 8.7313L9.93711 8.31255H10.4715L10.6402 7.6313ZM13.6775 7.6313L13.8463 8.31255H14.3806L13.9494 8.7313L14.1135 9.4188L13.6775 8.9938L13.2463 9.41255L13.4104 8.7313L12.9791 8.31255H13.5135L13.6775 7.6313ZM16.7196 7.6313L16.8836 8.31255H17.4227L16.9868 8.7313L17.1555 9.4188L16.7196 8.9938L16.2837 9.41255L16.4524 8.7313L16.0165 8.31255H16.5555L16.7196 7.6313ZM3.04213 9.3563L3.20618 10.0375H3.74522L3.3093 10.4563L3.47336 11.1375L3.04213 10.7125L2.60621 11.1375L2.77027 10.45L2.33904 10.0313H2.87339L3.04213 9.3563ZM6.07948 9.3563L6.24822 10.0375H6.78257L6.34665 10.4563L6.5154 11.1375L6.07948 10.7125L5.64356 11.1375L5.81231 10.45L5.37639 10.0313H5.91543L6.07948 9.3563ZM9.12152 9.3563L9.28557 10.0375H9.82461L9.38869 10.4563L9.55275 11.1375L9.12152 10.7125L8.6856 11.1375L8.84966 10.45L8.41843 10.0313H8.95278L9.12152 9.3563ZM12.1589 9.3563L12.3276 10.0375H12.862L12.4307 10.4563L12.5948 11.1375L12.1589 10.7125L11.7276 11.1375L11.8917 10.45L11.4558 10.0313H11.9995L12.1589 9.3563ZM15.2009 9.3563L15.365 10.0375H15.904L15.4681 10.4563L15.6321 11.1375L15.2009 10.7125L14.765 11.1375L14.929 10.45L14.4978 10.0313H15.0322L15.2009 9.3563ZM1.51876 11.075L1.68751 11.7625H2.22186L1.79063 12.1813L1.95468 12.8563L1.51876 12.4375L1.08754 12.8563L1.25159 12.175L0.815674 11.7563H1.3594L1.51876 11.075ZM4.5608 11.075L4.72486 11.7625H5.26389L4.82798 12.1813L4.99672 12.8563L4.5608 12.4375L4.12489 12.8563L4.29363 12.175L3.85771 11.7563H4.39206L4.5608 11.075ZM7.59816 11.075L7.7669 11.7625H8.29656L7.86533 12.1813L8.02939 12.8563L7.59347 12.4375L7.16224 12.8563L7.32629 12.175L6.89038 11.7563H7.42941L7.59816 11.075ZM10.6402 11.075L10.8042 11.7625H11.3433L10.9074 12.1813L11.0761 12.8563L10.6402 12.4375L10.2043 12.8563L10.373 12.175L9.93711 11.7563H10.4715L10.6402 11.075ZM13.6775 11.075L13.8463 11.7625H14.3806L13.9494 12.1813L14.1135 12.8563L13.6775 12.4375L13.2463 12.8563L13.4104 12.175L12.9791 11.7563H13.5135L13.6775 11.075ZM16.7196 11.075L16.8836 11.7625H17.4227L16.9868 12.1813L17.1555 12.8563L16.7196 12.4375L16.2837 12.8563L16.4524 12.175L16.0165 11.7563H16.5555L16.7196 11.075ZM3.04213 12.8L3.20618 13.4813H3.74522L3.3093 13.9L3.47336 14.5875L3.04213 14.1625L2.60621 14.5813L2.77027 13.9L2.33904 13.4813H2.87339L3.04213 12.8ZM6.07948 12.8L6.24822 13.4813H6.78257L6.34665 13.9L6.5154 14.5875L6.07948 14.1625L5.64356 14.5813L5.81231 13.9L5.37639 13.4813H5.91543L6.07948 12.8ZM9.12152 12.8L9.28557 13.4813H9.82461L9.38869 13.9L9.55275 14.5875L9.12152 14.1625L8.6856 14.5813L8.84966 13.9L8.41843 13.4813H8.95278L9.12152 12.8ZM12.1589 12.8L12.3276 13.4813H12.862L12.4307 13.9L12.5948 14.5875L12.1589 14.1625L11.7276 14.5813L11.8917 13.9L11.4558 13.4813H11.9995L12.1589 12.8ZM15.2009 12.8L15.365 13.4813H15.904L15.4681 13.9L15.6321 14.5875L15.2009 14.1625L14.765 14.5813L14.929 13.9L14.4978 13.4813H15.0322L15.2009 12.8ZM1.51876 14.525L1.68751 15.2063H2.22186L1.79063 15.625L1.95468 16.3063L1.51876 15.8875L1.08754 16.3063L1.25159 15.6188L0.815674 15.2H1.3594L1.51876 14.525ZM4.5608 14.525L4.72486 15.2063H5.26389L4.82798 15.625L4.99672 16.3063L4.5608 15.8875L4.12489 16.3063L4.29363 15.6188L3.85771 15.2H4.39206L4.5608 14.525ZM7.59816 14.525L7.7669 15.2063H8.29656L7.87471 15.625L8.03876 16.3063L7.60284 15.8875L7.17161 16.3063L7.33567 15.6188L6.89975 15.2H7.43879L7.59816 14.525ZM10.6402 14.525L10.8042 15.2063H11.3433L10.9074 15.625L11.0761 16.3063L10.6402 15.8875L10.2043 16.3063L10.373 15.6188L9.93711 15.2H10.4715L10.6402 14.525ZM13.6775 14.525L13.8463 15.2063H14.3806L13.9494 15.625L14.1135 16.3063L13.6775 15.8875L13.2463 16.3063L13.4104 15.6188L12.9791 15.2H13.5135L13.6775 14.525ZM16.7196 14.525L16.8836 15.2063H17.4227L16.9868 15.625L17.1555 16.3063L16.7196 15.8875L16.2837 16.3063L16.4524 15.6188L16.0165 15.2H16.5555L16.7196 14.525Z"
                fill="white" />
        </g>
    </g>
    <defs>
        <clipPath id="clip0_2202_14526">
            <rect width="20" height="20" rx="16" fill="white" />
        </clipPath>
    </defs>
</svg>