<svg width="24" height="24" viewBox="0 0 24 24" fill="none" xmlns="http://www.w3.org/2000/svg">
<path d="M2 6.5C2 5.11929 3.11929 4 4.5 4H19C19.5523 4 20 4.44772 20 5C20 5.55228 19.5523 6 19 6H4.5C4.22386 6 4 6.22386 4 6.5C4 6.77614 4.22386 7 4.5 7L19 7C20.5727 7 21.8627 8.21016 21.9897 9.75008C22.0011 9.88768 21.8881 10 21.75 10H18.5C16.567 10 15 11.567 15 13.5C15 15.433 16.567 17 18.5 17H21.75C21.8881 17 22.0011 17.1123 21.9897 17.2499C21.8627 18.7898 20.5727 20 19 20H5C3.34315 20 2 18.6569 2 17V6.5Z" fill="#A5A5A5"/>
<path d="M21.5 12C21.7761 12 22 12.2239 22 12.5V14.5C22 14.7761 21.7761 15 21.5 15H18.5C17.6716 15 17 14.3284 17 13.5C17 12.6716 17.6716 12 18.5 12H21.5Z" fill="#A5A5A5"/>
</svg>
