<svg width="155" height="154" viewBox="0 0 155 154" fill="none" xmlns="http://www.w3.org/2000/svg">
    <path
        d="M96.4115 14.7821C95.4206 15.65 83.6612 20.8039 83.5459 20.5044C83.4845 20.3507 86.2035 15.289 86.288 15.0816C86.5261 14.4825 86.8103 14.6131 89.0839 14.6131C89.3604 14.6131 96.1119 14.567 96.4115 14.7821Z"
        fill="#191919" />
    <path
        d="M66.4172 14.9891C66.8012 14.9891 73.4759 14.9354 73.7524 15.1889C79.2827 20.2429 80.2044 20.4964 80.3657 20.9342C80.3043 20.9342 79.3672 21.4795 65.0039 15.4039C63.7442 14.8739 65.0653 14.9738 66.4325 14.9738L66.4172 14.9891Z"
        fill="#191919" />
    <path
        d="M81.7261 15.0735C84.4605 15.0198 85.075 14.966 84.8445 15.3347C84.7216 15.519 82.1639 20.2658 81.9949 20.573C81.8259 20.8803 81.6877 20.8496 80.6431 19.9893C77.878 17.685 78.1852 17.9231 77.4248 17.2319C74.1988 14.3438 74.3371 15.2041 81.7261 15.0735Z"
        fill="#191919" />
    <path
        d="M95.6279 14.1136C86.526 14.0138 86.4646 14.3978 86.0421 13.8525C84.5059 11.8938 82.2631 9.91985 82.002 9.48972C82.6241 9.27465 96.8875 13.8832 96.8568 14.0291C96.8261 14.1751 96.3422 14.152 95.6279 14.152V14.1136Z"
        fill="#191919" />
    <path
        d="M64.574 14.4207C62.9303 14.4207 77.693 9.51259 77.9618 9.4281C80.0817 8.71377 78.2537 10.0042 75.4962 12.5005C73.1228 14.6204 74.0369 14.3516 71.748 14.3516C71.7633 14.2133 64.574 14.413 64.574 14.4207Z"
        fill="#191919" />
    <path
        d="M77.1709 13.9134C76.5411 13.8136 75.6885 14.19 75.6348 13.8366C75.6348 13.7061 80.0282 9.61982 80.082 9.58142C80.443 9.29722 80.4661 9.3049 80.7963 9.6275C82.1428 10.9015 83.4246 12.2422 84.6368 13.6446C84.944 14.0901 77.555 13.9749 77.1709 13.9134Z"
        fill="#191919" />
    <path fill-rule="evenodd" clip-rule="evenodd"
        d="M54.1434 24.3599C54.0897 23.5227 54.0298 22.7215 53.9722 21.955C53.4806 15.4262 53.1741 11.363 58.9824 8.35289C70.2426 2.52308 101.727 3.5216 106.52 13.2994C107.964 16.2258 107.288 25.1357 106.65 26.7102C102.602 36.4496 66.0335 37.7861 55.7872 28.1466C55.719 28.08 55.648 28.0165 55.5744 27.9561C55.0844 27.5421 54.3017 26.8808 54.1434 24.3599ZM70.473 6.11774C45.6407 9.53574 53.1142 24.8899 78.707 25.8423C94.6448 26.426 105.183 22.0018 105.705 16.7174C105.974 13.9983 105.114 12.4314 102.318 10.5727C95.5051 6.11774 80.8346 4.71214 70.473 6.11774ZM74.6822 44.5837C68.5374 43.9078 59.4893 41.7034 55.8947 38.3622C54.4737 37.0487 54.3585 36.6263 54.105 31.3495L54.082 30.8287C54.0336 29.7695 53.9675 28.3294 54.1895 28.2771C54.2955 28.241 54.4906 28.4254 54.8424 28.7587C56.6029 30.4216 62.2998 35.806 80.6195 36.1577C87.7704 36.296 102.441 34.6216 107.034 28.4231C107.48 27.8163 107.556 28.5767 107.564 28.8993C107.618 31.2573 107.41 36.4957 106.312 38.0165C103.562 41.7878 91.3267 46.4271 74.6822 44.5837ZM65.9029 49.438C64.1847 46.2312 60.0731 43.6505 54.4008 41.9814C54.3854 41.6765 54.3705 41.3716 54.3562 41.0666C54.304 40.0028 54.2256 38.409 54.4584 38.3553C54.5644 38.3184 54.7594 38.5027 55.1112 38.8361C56.8717 40.5013 62.5686 45.891 80.8883 46.2428C88.0393 46.3733 102.702 44.7066 107.303 38.5004C107.748 37.9013 107.825 38.654 107.833 38.9843C107.887 41.3347 107.679 46.5807 106.581 48.0939C103.824 51.8729 91.5955 56.5045 74.9433 54.661C72.5115 54.3945 69.6043 53.8837 66.7593 53.1548C66.6318 51.6417 66.3684 50.3029 65.9029 49.438ZM68.6335 125.222C67.7314 125.021 66.8343 124.799 65.9428 124.556C66.0965 124.146 66.2094 123.721 66.2793 123.282C66.5996 120.937 66.7286 118.571 66.6656 116.206C67.5397 116.421 68.4745 116.622 69.4768 116.806C68.8431 119.789 68.5858 122.605 68.6342 125.222H68.6335ZM107.344 56.1396C107.78 53.9275 107.871 50.8605 107.833 49.2076C107.825 48.885 107.748 48.1323 107.303 48.7314C102.702 54.9375 88.0393 56.6043 80.8883 56.4737C75.0002 56.3608 70.417 55.7271 66.8476 54.8646C66.9314 58.3701 66.482 62.1983 66.2025 63.2368C69.2218 64.0433 72.3526 64.6047 74.9433 64.892C80.1717 65.4711 84.9638 65.4112 89.1637 64.9404C89.3988 64.4788 89.7029 63.9833 90.0977 63.448C92.8229 59.7251 99.4707 57.2572 107.344 56.1388V56.1396ZM88.6315 66.2915C85.702 66.6279 82.9752 66.7431 80.8883 66.7047C74.7436 66.5864 70.0199 65.902 66.3883 64.9819C66.6602 67.7539 66.5573 70.5528 66.0796 73.3026C66.0661 73.3429 66.0523 73.3831 66.0381 73.4232C68.9603 74.2093 71.9369 74.7775 74.9433 75.123C79.833 75.6645 84.3409 75.6476 88.3396 75.2574C88.261 73.4697 88.2684 71.6792 88.3619 69.8923C88.4087 69.5259 88.4018 69.1472 88.3941 68.7401C88.3811 68.0335 88.3665 67.2439 88.6315 66.2915ZM88.4125 76.5585C85.566 76.875 82.923 76.9825 80.8883 76.9433C74.1215 76.8135 69.0759 75.9963 65.3161 74.9332C64.7704 75.8223 64.0566 76.5964 63.2146 77.2122C63.8506 77.5455 63.8014 78.107 63.7138 79.1124C63.6923 79.3582 63.6693 79.6301 63.6524 79.9312C63.6567 80.9104 63.5459 81.8867 63.3221 82.84C67.1349 84.1181 71.513 84.9814 74.9433 85.3616C78.9428 85.8048 82.6864 85.8731 86.106 85.6696C86.3134 85.244 86.5622 84.8398 86.8487 84.4629C87.1173 83.9321 87.5749 83.5211 88.1314 83.3108C88.1084 81.5365 88.2082 80.899 88.7075 80.3921L88.7321 80.3667C88.7651 80.3329 88.7874 80.3106 88.7997 80.2838C88.8235 80.2315 88.812 80.1639 88.7766 79.965C88.7405 79.7576 88.6791 79.4081 88.6076 78.7867C88.5277 78.0454 88.4626 77.3025 88.4125 76.5585ZM85.6029 87.0345C84.034 87.1459 82.461 87.19 80.8883 87.1666C72.5215 87.0061 66.7877 85.7948 62.8597 84.3677L62.8382 84.4245C63.7561 84.6027 63.7085 85.569 63.6332 87.1105C63.624 87.2972 63.6148 87.493 63.6063 87.6966L64.4743 88.4647C65.6448 89.444 66.1656 91.5063 66.3353 93.9696C69.314 94.7592 72.391 95.3099 74.9433 95.5926C77.0425 95.8253 79.071 95.9543 81.0189 95.995C82.3315 94.8044 83.7549 93.742 85.2695 92.8221C85.2734 91.2375 85.3148 89.805 85.374 88.8948C85.3692 88.2674 85.4462 87.642 85.6029 87.0345ZM79.5941 97.3638C74.0823 97.181 69.7718 96.5312 66.4006 95.6778C66.4221 97.6195 66.2862 99.7003 66.118 101.637C66.0481 102.444 65.8562 103.236 65.5488 103.985C68.1707 104.714 70.8383 105.267 73.5339 105.641C75.1638 102.638 77.213 99.794 79.5941 97.3638ZM72.8042 107.051C70.2349 106.734 68.0221 106.301 66.1172 105.805C66.2386 106.31 66.2101 106.971 66.1825 107.619L66.1717 107.882C66.164 108.149 66.0043 112.738 65.4966 114.202L65.558 114.22C65.7848 114.203 66.0104 114.265 66.1971 114.395C67.4016 114.716 68.6157 115 69.8378 115.246C70.1635 113.956 70.5446 112.68 70.98 111.423C71.4968 109.929 72.1064 108.469 72.805 107.051H72.8042ZM103.125 16.2258C102.963 9.84298 92.1101 8.27608 85.758 7.65392C78.9067 6.98568 60.7337 7.4235 58.4831 13.7142C57.1544 17.4548 62.9073 20.2583 63.2991 20.2199C63.422 20.5348 67.7233 22.3091 74.3058 23.2077C81.065 24.1295 89.7675 23.5534 93.8307 22.5165C99.3609 21.1032 103.209 19.2982 103.125 16.2258ZM75.12 22.1247C69.9891 21.541 57.8764 18.7682 59.5354 13.7986V13.8447C61.6323 7.57711 94.4682 5.55704 101.496 13.7295C105.69 18.6376 92.018 24.0526 75.12 22.1247Z"
        fill="#253E92" />
    <path
        d="M65.0652 49.8988C66.6014 52.7869 65.6643 62.0884 65.2649 63.1023C60.8638 74.3625 23.7881 74.47 13.3113 65.6063C11.4525 64.0701 11.4064 63.4403 11.1837 61.5738C10.886 58.3463 10.8269 55.1013 11.007 51.8652C10.9379 43.493 25.2474 41.4191 33.6119 40.9506C48.5282 40.1134 61.7087 43.6389 65.0652 49.8988ZM15.1394 46.9724C11.2221 50.3213 11.0685 54.4536 17.8738 58.4016C23.0891 61.4202 29.2645 62.3112 35.1865 62.6491C59.7116 64.0778 68.9825 53.6932 61.8085 47.9863C51.0629 39.4221 22.9739 40.2977 15.1624 46.9801L15.1394 46.9724Z"
        fill="#253E92" />
    <path
        d="M11.0767 122.867C10.8539 120.379 10.6773 116.177 10.7618 116.277C16.63 123.005 31.1469 123.82 36.0626 123.881C66.9475 124.257 65.4344 112.951 65.6802 115.286C65.8145 117.918 65.7013 120.556 65.3422 123.167C63.1532 136.916 12.2595 135.664 11.0767 122.867Z"
        fill="#253E92" />
    <path
        d="M15.7464 107.859C11.6986 105.554 10.7078 104.625 10.7539 100.715C10.6233 100.385 10.2546 97.0286 10.7539 97.3896C23.7499 107.452 66.6785 104.648 63.706 91.5751C63.6829 91.0313 63.706 90.4868 63.7751 89.9468C63.7751 89.1787 63.7367 89.4629 63.9134 89.1787C66.0947 90.9914 65.4956 98.5494 65.2268 101.568C64.0593 114.602 27.4445 114.51 15.7464 107.859Z"
        fill="#253E92" />
    <path
        d="M8.09618 92.2974C7.98865 91.7905 7.52779 84.4936 7.90416 84.2939C8.11154 84.1864 8.02705 85.6995 13.1733 88.4032C24.9558 94.5479 50.6714 94.4942 60.695 87.182C61.9931 86.2295 62.7304 84.7318 62.7304 85.5843C62.7304 88.5645 62.4539 91.4218 62.4462 91.4372C62.2849 92.3589 62.7688 94.3175 58.9514 97.0366C47.6144 105.117 10.4849 103.25 8.09618 92.2974Z"
        fill="#253E92" />
    <path
        d="M10.6846 113.059C10.6385 112.859 10.0318 105.001 10.4619 104.917C10.5848 104.917 11.0456 105.508 11.1071 105.593C15.4007 112.106 32.1067 113.596 39.9105 113.466C62.0622 113.089 64.8811 105.785 65.1345 105.846C65.388 105.908 65.1345 109.741 65.1345 110.025C64.9195 112.022 65.4648 114.633 62.0622 117.176C50.464 125.94 12.9659 123.635 10.6846 113.059Z"
        fill="#253E92" />
    <path
        d="M38.974 82.0746C30.4098 82.0746 11.3227 79.9931 10.9464 71.5441C10.5316 61.989 10.6545 63.9707 12.4211 66.0446C19.0727 73.8407 51.3709 76.89 63.3301 67.4425C64.1125 66.7926 64.8491 66.0894 65.5345 65.3379C65.8264 66.252 65.427 72.2046 65.1735 73.0188C63.1918 79.6167 48.2141 81.8519 44.8498 81.8595C44.75 81.8903 38.974 82.2282 38.974 82.0746Z"
        fill="#253E92" />
    <path
        d="M8.54163 83.0806C8.10381 82.4584 7.81194 75.9757 8.08845 71.6744C8.05596 70.4328 8.44591 69.2169 9.1945 68.2257C9.83202 67.2656 9.96259 67.0045 9.83202 69.7619C9.83202 70.53 9.13306 72.335 10.5003 74.7775C13.9336 80.0773 25.0172 82.1666 31.8685 82.9116C51.8389 85.0853 61.1865 78.9483 61.2019 78.9483C61.3632 78.9483 62.8686 77.6195 62.8226 78.1802C62.3694 83.8717 63.7366 87.5125 47.1766 90.9381C38.62 92.7047 28.7424 91.8368 21.7912 90.3237C18.6727 89.6401 9.56319 86.0685 8.54163 83.0806Z"
        fill="#253E92" />
    <path
        d="M58.8214 48.1703C61.5558 50.0982 62.2778 52.3948 60.9644 54.315C56.279 61.1741 28.6355 62.9867 17.9514 55.3443C16.3 54.1614 15.071 52.3641 15.5626 50.3901C17.5135 42.4864 48.3908 40.8504 58.8214 48.1703ZM59.9659 53.7389C62.6311 50.6666 56.9703 47.7632 53.0531 46.5035C38.8511 41.895 17.9744 45.5127 16.8299 50.6128C15.5933 56.1354 30.8322 59.008 36.5468 59.154C40.4333 59.2538 55.2882 59.177 59.9659 53.7389Z"
        fill="#253E92" />
    <path
        d="M27.6599 53.6392C27.2836 53.309 26.5385 53.8389 24.841 53.7084C23.7964 53.6316 23.2434 52.6868 23.927 52.3488C25.1636 51.7421 26.1852 52.0032 25.6783 51.5808C25.2942 51.2658 25.7474 50.8127 24.1421 51.0277C23.6198 51.1045 22.3755 51.189 22.1066 50.7359C21.4384 49.6144 22.4292 49.53 23.6812 49.1997C24.2573 49.0537 24.0653 49.2458 23.8579 48.4316C23.6505 47.6174 24.8026 46.4576 26.0162 48.5775C26.1929 48.8848 26.0162 48.854 27.7444 48.5775C31.7846 47.9016 43.7284 47.2334 44.1432 47.1489C43.7591 46.7418 43.7053 46.8032 43.498 46.5805C43.0064 46.0505 44.412 45.6127 45.9482 46.6957C46.1952 46.8741 46.4966 46.9609 46.8007 46.9415C47.1925 46.9415 47.5688 47.0029 47.9759 47.0029C48.744 47.0029 51.5629 46.5498 51.3478 48.1628C51.2941 48.5545 50.8409 48.5084 48.5059 48.6774C48.2217 48.6774 48.5904 48.9616 48.7747 49.2611C49.1357 49.8449 49.3508 49.4071 51.5629 49.5069C52.0007 49.5069 52.6536 49.8295 52.6305 50.4133C52.6305 51.4732 49.8117 50.8511 50.1727 51.4041C51.0483 52.7329 50.357 55.7976 47.1003 55.2445C44.627 54.7991 41.7928 52.4794 41.4318 52.4026C41.4318 52.8788 42.7913 56.3352 38.3594 57.4106C33.9276 58.4859 30.9013 56.4889 27.6599 53.6392ZM38.0292 55.5287C39.1429 55.2445 40.0646 54.7146 39.8111 53.5317C39.5441 52.0553 38.9072 50.6706 37.96 49.5069C37.6912 49.1459 37.768 49.0998 33.3515 49.6682C27.3527 50.4363 27.13 50.3672 27.4679 50.7359C30.6171 54.1155 33.8507 56.6194 38.0292 55.5287ZM42.9526 48.8617C42.259 49.0046 41.5555 49.0944 40.848 49.1305C39.9878 49.1305 41.6161 50.0983 42.5302 50.8818C43.8128 51.8816 45.2167 52.7152 46.7086 53.3627C47.2846 53.5778 48.7056 53.8082 48.744 53.0478C48.8285 51.6729 47.3691 49.9754 46.3937 49C46.0019 48.6159 45.8406 48.7311 42.9526 48.8617Z"
        fill="#191919" />
    <path fill-rule="evenodd" clip-rule="evenodd"
        d="M146.276 80.1074C146.691 79.0551 147.674 69.3926 146.068 66.3893C139.47 54.0538 98.6926 54.2074 91.2882 64.3001C89.8388 66.2718 89.8565 67.4716 89.8741 68.6859C89.8803 69.1314 89.8872 69.58 89.8211 70.0685C89.6915 72.8868 89.771 75.7109 90.0592 78.5175L90.07 78.6073C90.2912 80.4807 90.3657 81.1082 92.2637 82.7112C103.14 91.8976 141.667 91.8285 146.276 80.1074ZM97.0412 75.1916C89.9824 71.1054 90.113 66.8041 94.1916 63.317V63.3477C102.333 56.3888 131.528 55.4978 142.681 64.3693C150.201 70.3296 140.377 81.0829 115.03 79.6082C108.877 79.2548 102.456 78.3255 97.0412 75.1916ZM119.549 120.481C120.016 117.251 120.066 114.026 119.662 110.959C128.407 110.556 136.708 108.647 141.521 105.132C142.112 104.699 142.591 104.159 142.944 103.762C143.398 103.25 143.641 102.976 143.641 103.473C143.641 106.545 143.349 109.541 143.342 109.564C143.316 109.703 143.305 109.866 143.292 110.051C143.22 111.128 143.095 112.968 139.709 115.378C135.564 118.333 127.867 120.074 119.549 120.481ZM119.301 121.991C133.459 121.464 146.365 117.209 144.647 109.694C144.614 109.13 144.637 108.564 144.717 108.004C144.717 107.865 144.715 107.76 144.714 107.68V107.679C144.712 107.488 144.711 107.436 144.733 107.398C144.743 107.383 144.755 107.368 144.768 107.355C144.789 107.331 144.82 107.298 144.862 107.236C147.128 109.126 146.506 116.983 146.23 120.11C145.482 128.486 130.58 131.646 116.455 131.185C117.76 128.242 118.715 125.157 119.301 121.991ZM119.512 109.96C118.972 106.713 117.903 103.666 116.256 101.011C133.31 101.901 141.591 96.7965 142.033 96.5253L142.046 96.5169C142.048 96.5156 142.049 96.5146 142.051 96.5138C142.104 96.5138 142.294 96.3786 142.528 96.2112C143.043 95.8441 143.773 95.3233 143.741 95.7457C143.699 96.2657 143.673 96.7711 143.647 97.2619C143.387 102.24 143.204 105.752 127.473 109.003C124.898 109.534 122.209 109.836 119.512 109.96ZM88.8357 91.0642C88.1213 91.3407 87.4201 91.6564 86.7334 92.0074C86.7457 90.9628 86.7803 89.942 86.8409 89.0173C86.8055 87.7266 87.209 86.462 87.9854 85.4303L88.0683 85.3059C88.6621 84.4141 88.7489 84.2835 88.6459 86.9665C88.6459 87.1193 88.6175 87.3175 88.583 87.5571C88.4724 88.3367 88.298 89.5534 88.8357 91.0642ZM115.392 99.7275C114.877 99.0191 114.314 98.3457 113.709 97.712C110.145 93.9945 100.851 89.7239 95.9889 89.7239C94.0096 89.7131 92.0408 90.0103 90.1529 90.6049C89.9475 90.0514 89.8303 89.469 89.8058 88.879C89.4547 80.6167 89.4809 80.6528 90.5562 82.1413C90.7736 82.4417 91.0339 82.8019 91.3419 83.1644C98.2547 91.3139 131.882 94.4093 144.256 84.6161C145.075 83.9421 145.845 83.2106 146.56 82.4271C146.859 83.3795 146.452 89.5703 146.191 90.4382C144.117 97.2973 128.525 99.6553 125.061 99.6553C125.027 99.6484 124.477 99.6745 123.719 99.7106C121.917 99.7966 118.939 99.938 118.939 99.8243C117.893 99.8243 116.694 99.7943 115.392 99.7275ZM109.808 141.436C112.242 138.798 114.286 135.721 115.886 132.412C117.383 132.474 118.754 132.488 119.93 132.468C140.571 132.124 145.064 125.999 145.97 124.765C146.076 124.621 146.133 124.544 146.161 124.549C146.378 124.593 146.244 127.209 146.184 128.37V128.37C146.171 128.646 146.161 128.839 146.161 128.897C146.125 129.236 146.111 129.592 146.096 129.962V129.963V129.963C146.019 131.853 145.929 134.102 142.981 136.324C136.498 141.192 122.061 142.77 109.808 141.436ZM139.578 64.5843C142.42 66.5814 143.173 68.9778 141.805 70.9825C136.943 78.1027 108.225 80.0076 97.0642 72.0502C95.3514 70.8289 94.0763 68.9778 94.591 66.904C96.6341 58.6624 128.748 56.9879 139.578 64.5843ZM140.769 70.3757C143.549 67.1421 137.65 64.1542 133.61 62.8484C118.924 58.094 97.1487 61.8038 95.9735 67.119C94.6831 72.8567 110.567 75.8522 116.474 75.9981C120.468 76.098 135.907 76.0135 140.769 70.3757Z"
        fill="#253E92" />
    <path
        d="M107.196 70.2763C106.796 69.9384 106.021 70.476 104.262 70.3454C103.171 70.261 102.595 69.2778 103.302 68.9245C104.592 68.2946 105.66 68.5635 105.122 68.1564C104.73 67.8338 105.199 67.3192 103.517 67.5803C102.971 67.6648 101.681 67.7493 101.397 67.2808C100.705 66.1133 101.735 66.0288 103.033 65.6908C103.632 65.5372 103.44 65.7369 103.225 64.9227C103.01 64.1086 104.193 62.8719 105.46 65.0764C105.644 65.3989 105.46 65.3605 107.257 65.0764C111.466 64.3774 123.879 63.6784 124.309 63.5939C123.909 63.1715 123.856 63.2329 123.641 63.0025C123.126 62.4495 124.585 61.9963 126.183 63.1254C126.443 63.3097 126.756 63.4019 127.074 63.3866C127.473 63.3866 127.888 63.448 128.295 63.4403C129.102 63.4403 132.02 62.9795 131.798 64.6539C131.744 65.0533 131.275 65.0072 128.848 65.1839C128.549 65.1839 128.933 65.4834 129.125 65.7907C129.509 66.4051 129.685 65.9443 132.028 66.0518C132.481 66.0518 133.15 66.3821 133.134 66.9889C133.134 68.0949 130.2 67.4497 130.576 68.0181C131.49 69.4007 130.768 72.6267 127.397 71.9815C124.823 71.5206 121.882 69.1088 121.505 69.032C121.505 69.5236 122.919 73.1183 118.287 74.2397C113.655 75.3611 110.56 73.2335 107.196 70.2763ZM117.949 72.2349C119.117 71.9354 120.069 71.3824 119.808 70.1534C119.531 68.6207 118.871 67.1831 117.888 65.975C117.603 65.591 117.688 65.5449 113.118 66.1363C106.881 66.9044 106.65 66.866 106.973 67.25C110.253 70.7372 113.563 73.3717 117.957 72.2349H117.949ZM123.08 65.3221C122.359 65.4727 121.627 65.5679 120.891 65.6063C119.992 65.6063 121.72 66.6125 122.642 67.4267C123.976 68.4615 125.434 69.3259 126.982 69.9998C127.581 70.2302 129.056 70.4683 129.102 69.6695C129.186 68.2409 127.665 66.482 126.652 65.4681C126.252 65.0456 126.091 65.1685 123.088 65.2991L123.08 65.3221Z"
        fill="#191919" />
    <path
        d="M72.2547 111.845C75.7879 101.622 84.9512 90.8612 96.0655 91.0148C100.674 91.0763 110.329 95.2854 114.262 100.232C115.99 102.413 117.603 105.9 118.309 110.663C118.985 115.426 118.693 120.278 117.449 124.926C114.446 136.309 104.991 148.406 93.2389 148.468C88.7533 148.468 79.2367 145.104 75.112 140.295C68.6601 132.853 69.0595 120.993 72.2547 111.845ZM77.2703 140.226C78.6903 141.641 80.4287 142.694 82.3397 143.299C84.4674 144.251 88.3846 143.99 88.9684 143.806C89.5521 143.621 95.5893 143.268 102.233 135.357C105.574 131.254 108.001 126.485 109.353 121.37C113.793 105.055 106.465 94.5327 98.4159 92.8121C88.5459 90.6922 79.9817 99.1566 75.2272 108.105C70.4727 117.053 69.5203 133.06 77.2319 140.226H77.2703Z"
        fill="#253E92" />
    <path
        d="M97.2025 95.2162C89.9825 94.0487 83.6381 99.2486 79.9666 104.963C78.5747 107.082 77.3963 109.333 76.4487 111.684C73.4916 121.539 72.2166 132.814 80.4351 139.005C88.4309 145.027 100.751 136.862 105.782 124.411C109.561 115.002 109.169 97.1133 97.2025 95.2162ZM104.592 123.443C99.7603 136.57 89.4832 141.025 84.3985 139.435C74.6591 136.363 73.9448 122.199 77.1707 112.828C79.0388 107.174 82.6534 102.257 87.4939 98.7878C92.5556 95.2315 99.2072 95.3391 103.117 100.408C107.925 106.607 107.326 115.955 104.592 123.405V123.443Z"
        fill="#191919" />
    <path
        d="M90.5044 112.314C80.6421 113.366 78.983 115.202 80.6267 113.144C84.3904 108.451 94.7289 98.2734 95.2896 97.9508C96.0192 97.536 94.8825 99.8787 92.2172 109.472C91.2955 112.813 91.5797 112.36 90.4736 112.36L90.5044 112.314Z"
        fill="#191919" />
    <path
        d="M101.696 119.472C101.696 120.548 101.819 119.772 94.2453 113.773C92.4249 112.329 92.5402 113.427 93.4772 109.986C95.7201 101.653 95.7815 100.992 96.5496 98.6494C96.8952 97.4512 100.382 111.646 101.696 119.472Z"
        fill="#191919" />
    <path
        d="M89.637 125.095C88.9381 125.095 89.061 125.718 91.8031 116.055C92.5174 113.536 91.949 113.566 93.9076 115.287C100.897 121.355 101.397 121.286 100.751 121.624C99.5992 122.207 91.5035 124.581 89.637 125.095Z"
        fill="#191919" />
    <path
        d="M95.512 128.551C92.1632 131.501 89.4672 133.521 86.2028 135.933C85.6882 136.309 85.7957 136.209 87.2935 131.478C88.7913 126.746 87.9233 127.061 89.2444 126.739C100.051 124.112 106.357 119.027 95.512 128.551Z"
        fill="#191919" />
    <path
        d="M90.6887 113.55C91.4031 113.55 90.9729 113.305 89.552 118.812C88.9573 120.607 88.47 122.436 88.0926 124.288C88.0926 124.434 87.939 124.48 87.8314 124.381C87.432 123.989 79.7204 115.363 80.212 115.248C83.0616 114.549 87.9697 114.027 90.6887 113.55Z"
        fill="#191919" />
    <path
        d="M79.1673 116.899C79.6819 117.322 86.925 125.848 87.3244 126.309C87.5471 126.57 87.5318 126.562 87.0171 128.037C84.2751 135.963 85.3197 137.745 83.7067 133.022C81.894 127.737 84.4748 136.094 79.6512 119.964C78.6757 116.846 78.9061 117.253 79.1673 116.899Z"
        fill="#191919" />
</svg>