<svg width="20" height="20" viewBox="0 0 20 20" fill="none" xmlns="http://www.w3.org/2000/svg">
    <path
        d="M10.4166 14.9999C10.4166 15.23 10.23 15.4166 9.99992 15.4166C9.7698 15.4166 9.58325 15.23 9.58325 14.9999C9.58325 14.7698 9.7698 14.5833 9.99992 14.5833C10.23 14.5833 10.4166 14.7698 10.4166 14.9999Z"
        stroke="#1F1F1F" stroke-width="0.833333" />
    <path
        d="M7.91675 12.1357C8.50138 11.7097 9.22138 11.4584 10.0001 11.4584C10.7788 11.4584 11.4988 11.7097 12.0834 12.1357M13.9274 9.35639C12.8141 8.58023 11.4603 8.12508 10.0002 8.12508C8.54017 8.12508 7.1864 8.58023 6.07308 9.35639M4.16675 6.6215C5.82026 5.46814 7.83118 4.79175 10.0001 4.79175C12.169 4.79175 14.1799 5.46814 15.8334 6.6215"
        stroke="#1F1F1F" stroke-width="1.25" stroke-linecap="round" stroke-linejoin="round" />
</svg>